<?xml version="1.0" standalone="no"?>
<!DOCTYPE svg PUBLIC "-//W3C//DTD SVG 20010904//EN"
 "http://www.w3.org/TR/2001/REC-SVG-20010904/DTD/svg10.dtd">
<svg version="1.0" xmlns="http://www.w3.org/2000/svg"
 width="260.000000pt" height="260.000000pt" viewBox="0 0 260.000000 260.000000"
 preserveAspectRatio="xMidYMid meet">
<metadata>
Created by potrace 1.11, written by Peter Selinger 2001-2013
</metadata>
<g transform="translate(0.000000,260.000000) scale(0.100000,-0.100000)"
fill="#000000" stroke="none">
<path d="M1105 2585 c-295 -47 -540 -176 -746 -393 -176 -185 -284 -398 -335
-658 -24 -120 -24 -348 0 -468 50 -255 169 -489 334 -658 l56 -57 69 119 c72
126 114 171 227 242 292 186 642 228 960 116 106 -38 166 -68 255 -128 105
-72 135 -105 205 -227 35 -62 67 -113 71 -113 12 0 146 163 191 235 173 269
240 581 192 904 -62 424 -341 796 -737 981 -219 103 -505 143 -742 105z m310
-259 c100 -8 216 -41 324 -92 274 -129 465 -355 558 -659 25 -84 27 -102 27
-275 0 -174 -2 -191 -28 -275 -35 -117 -74 -201 -86 -189 -5 5 -177 299 -383
654 l-375 645 -144 3 -143 2 -360 -621 c-198 -342 -371 -641 -385 -665 -14
-24 -28 -44 -32 -44 -11 0 -69 151 -95 249 -35 132 -37 334 -5 463 32 132 75
233 142 336 174 269 464 445 778 471 48 4 98 6 112 5 14 -2 57 -5 95 -8z m148
-875 c136 -235 247 -430 247 -433 0 -3 -41 12 -91 34 -151 65 -239 82 -419 82
-175 0 -266 -17 -412 -80 -44 -19 -81 -34 -83 -34 -2 0 109 194 247 430 138
237 253 430 257 430 3 -1 117 -193 254 -429z"/>
<path d="M599 427 c-99 -170 -91 -152 -72 -169 71 -61 245 -152 368 -191 313
-103 662 -83 951 52 88 42 244 138 244 151 0 9 -105 196 -122 217 -7 9 -27 0
-76 -34 -306 -211 -705 -245 -1031 -88 -52 25 -123 66 -157 90 l-64 44 -41
-72z"/>
</g>
</svg>
