<svg width="48" height="48" viewBox="0 0 48 48" fill="none" xmlns="http://www.w3.org/2000/svg">
<path d="M36 23.4375C36 22.875 35.4375 22.3125 34.875 22.3125H25.6875V13.125C25.6875 12.5625 25.125 12 24.5625 12H23.4375C22.7812 12 22.3125 12.5625 22.3125 13.125V22.3125H13.125C12.4688 22.3125 12 22.875 12 23.4375V24.5625C12 25.2188 12.4688 25.6875 13.125 25.6875H22.3125V34.875C22.3125 35.5312 22.7812 36 23.4375 36H24.5625C25.125 36 25.6875 35.5312 25.6875 34.875V25.6875H34.875C35.4375 25.6875 36 25.2188 36 24.5625V23.4375ZM47.25 24C47.25 11.1562 36.8438 0.75 24 0.75C11.1562 0.75 0.75 11.1562 0.75 24C0.75 36.8438 11.1562 47.25 24 47.25C36.8438 47.25 47.25 36.8438 47.25 24ZM44.25 24C44.25 35.1562 35.1562 44.25 24 44.25C12.8438 44.25 3.75 35.25 3.75 24C3.75 12.9375 12.75 3.75 24 3.75C35.0625 3.75 44.25 12.8438 44.25 24Z" fill="#333539"/>
</svg>
