<svg width="13" height="14" viewBox="0 0 13 14" fill="none" xmlns="http://www.w3.org/2000/svg">
<path d="M5.48438 0.5H7.51562C7.85332 0.5 8.125 0.77168 8.125 1.10938V5.375H10.3518C10.8037 5.375 11.0297 5.9209 10.7098 6.24082L6.84785 10.1053C6.65742 10.2957 6.34512 10.2957 6.15469 10.1053L2.2877 6.24082C1.96777 5.9209 2.19375 5.375 2.6457 5.375H4.875V1.10938C4.875 0.77168 5.14668 0.5 5.48438 0.5ZM13 10.0469V12.8906C13 13.2283 12.7283 13.5 12.3906 13.5H0.609375C0.27168 13.5 0 13.2283 0 12.8906V10.0469C0 9.70918 0.27168 9.4375 0.609375 9.4375H4.33418L5.57832 10.6816C6.08867 11.192 6.91133 11.192 7.42168 10.6816L8.66582 9.4375H12.3906C12.7283 9.4375 13 9.70918 13 10.0469ZM9.85156 12.2812C9.85156 12.002 9.62305 11.7734 9.34375 11.7734C9.06445 11.7734 8.83594 12.002 8.83594 12.2812C8.83594 12.5605 9.06445 12.7891 9.34375 12.7891C9.62305 12.7891 9.85156 12.5605 9.85156 12.2812ZM11.4766 12.2812C11.4766 12.002 11.248 11.7734 10.9688 11.7734C10.6895 11.7734 10.4609 12.002 10.4609 12.2812C10.4609 12.5605 10.6895 12.7891 10.9688 12.7891C11.248 12.7891 11.4766 12.5605 11.4766 12.2812Z" fill="#001FFF"/>
</svg>
