<svg width="31" height="21" viewBox="0 0 31 21" fill="none" xmlns="http://www.w3.org/2000/svg">
<path d="M0.188129 11.2984C3.10514 17.0844 8.88535 21 15.4998 21C22.1142 21 27.8944 17.0844 30.8114 11.2984C31.059 10.7953 31.059 10.2047 30.8114 9.70156C27.8944 3.91562 22.1142 0 15.4998 0C8.88535 0 3.10514 3.91562 0.188129 9.70156C-0.0648232 10.2047 -0.0648232 10.7953 0.188129 11.2984ZM15.4998 2.625C19.7784 2.625 23.2498 6.15234 23.2498 10.5C23.2498 14.8477 19.7784 18.375 15.4998 18.375C11.2211 18.375 7.74976 14.8477 7.74976 10.5C7.74976 6.15234 11.2157 2.625 15.4944 2.625H15.4998ZM15.4998 15.75C15.9626 15.7445 16.4201 15.6734 16.8614 15.5422C16.0164 14.3773 16.264 12.7422 17.4104 11.8836C18.3199 11.2055 19.5577 11.2055 20.4619 11.8836C21.21 9.08906 19.5847 6.2125 16.8399 5.45781C14.0897 4.69765 11.2588 6.34922 10.5161 9.13828C9.76799 11.9328 11.3933 14.8094 14.1381 15.5641C14.5794 15.6898 15.0423 15.75 15.4998 15.75Z" fill="#9DAFBD"/>
</svg>
