<svg width="25" height="24" viewBox="0 0 25 24" fill="none" xmlns="http://www.w3.org/2000/svg">
<g clip-path="url(#clip0)">
<path d="M24.4062 13.7422H21.1797C20.8432 13.7422 20.5859 13.4712 20.5859 13.1616V9.5035C20.5859 9.17446 20.3088 8.92285 19.9921 8.92285H16.0333C15.8749 8.92285 15.7166 8.98092 15.5978 9.09705C15.2217 9.46479 15.4988 10.1035 16.0333 10.1035H18.7451C19.0816 10.1035 19.3389 10.3745 19.3389 10.6841V13.1422C19.3389 13.4712 19.0618 13.7229 18.7451 13.7229H5.38401C5.14648 13.7229 4.94854 13.8583 4.82977 14.0519L2.3555 19.1809C2.07839 19.7422 1.20744 19.5487 1.20744 18.9293V10.6841C1.20744 10.3551 1.48456 10.1035 1.80127 10.1035H6.73001C7.26445 10.1035 7.54157 9.46479 7.16548 9.09705C7.04672 8.98092 6.88836 8.92285 6.73001 8.92285H0.593824C0.257324 8.92285 0 9.19382 0 9.5035V23.4003C0 23.7293 0.277118 23.9809 0.593824 23.9809H20.1702C20.4078 23.9809 20.6255 23.8454 20.7245 23.6325L24.9406 14.5745C25.1386 14.1874 24.8417 13.7422 24.4062 13.7422Z" fill="#A1AEB7"/>
<path d="M13.1632 0H9.40235C9.06585 0 8.80853 0.270968 8.80853 0.580645V6.11613C8.80853 6.44516 8.53141 6.69678 8.21471 6.69678H7.00726C6.47282 6.69678 6.1957 7.33548 6.57179 7.70323L7.77924 8.90323L8.96688 10.0839L10.9463 12.0387C11.1838 12.271 11.5797 12.271 11.7974 12.0387L13.7769 10.0839L14.9645 8.90323L16.172 7.70323C16.548 7.33548 16.2709 6.69678 15.7365 6.69678H14.3509C14.0144 6.69678 13.7571 6.42581 13.7571 6.11613V0.580645C13.7571 0.270968 13.4997 0 13.1632 0Z" fill="#A1AEB7"/>
</g>
<defs>
<clipPath id="clip0">
<rect width="25" height="24" fill="white"/>
</clipPath>
</defs>
</svg>
