<svg width="32" height="37" viewBox="0 0 32 37" fill="none" xmlns="http://www.w3.org/2000/svg">
<path d="M8.08594 5.49219V14.0703C7.24219 13.6484 6.1875 13.3672 4.92188 13.3672C2.03906 13.3672 0 15.6172 0 18.5C0 21.9453 3.72656 22.5781 5.34375 23.5625C6.60938 24.3359 9.35156 26.5859 10.0547 27.8516C9.42188 28.2734 9 28.9766 9 29.75V34.25C9 35.5156 9.98438 36.5 11.25 36.5H27C28.1953 36.5 29.25 35.5156 29.25 34.25V29.75C29.25 29.1172 28.9688 28.5547 28.4766 28.1328C29.0391 25.7422 31.5 23.1406 31.5 19.3438V17.7266C31.5 13.5078 28.8984 11.3984 25.4531 11.4688C24.2578 10.4844 22.4297 9.99219 20.8125 10.3438C19.9688 9.78125 19.0547 9.5 18.0703 9.5C18 9.5 18 9.5 18 9.5V5.49219C18 2.82031 15.75 0.5 13.0078 0.5C10.3359 0.5 8.08594 2.82031 8.08594 5.49219ZM11.25 34.25V29.75H27V34.25H11.25ZM15.75 5.49219V12.4531C16.875 11.4688 18.9844 11.3281 20.3906 12.875C21.9375 11.9609 23.9062 12.7344 24.5391 13.8594C27.4922 13.3672 29.25 14.6328 29.25 17.7266V19.3438C29.25 22.4375 27 24.7578 26.3672 27.5703H12.375C11.6016 25.4609 8.15625 22.7188 6.53906 21.6641C4.71094 20.5391 2.25 20.1875 2.25 18.5C2.25 16.8125 3.375 15.6172 4.92188 15.6172C7.59375 15.6172 9 17.6562 10.3359 17.6562V5.49219C10.3359 4.08594 11.6016 2.75 13.0078 2.75C14.4844 2.75 15.75 4.01562 15.75 5.49219ZM24.75 30.5938C23.9062 30.5938 23.3438 31.2266 23.3438 32C23.3438 32.8438 23.9062 33.4062 24.75 33.4062C25.5234 33.4062 26.1562 32.8438 26.1562 32C26.1562 31.2266 25.5234 30.5938 24.75 30.5938Z" fill="white"/>
</svg>
