<svg width="37" height="37" viewBox="0 0 37 37" fill="none" xmlns="http://www.w3.org/2000/svg">
<path d="M35.664 4.50781L32.9921 1.83594C32.1484 0.992188 30.9531 0.5 29.8281 0.5C28.7031 0.5 27.5078 0.992188 26.664 1.83594L21.3906 7.10938L19 9.5L1.84371 26.6562L0.99996 34.6719C0.859335 35.6562 1.63277 36.5 2.61715 36.5C2.68746 36.5 2.75777 36.5 2.82808 36.5L10.8437 35.6562L28 18.5L30.3906 16.1094L35.664 10.8359C37.4218 9.07812 37.4218 6.26562 35.664 4.50781ZM9.29683 32.4219L4.5859 32.9141L5.07808 28.2031L21.3203 11.8906L23.5 9.71094L27.789 14L25.6093 16.1797L9.29683 32.4219ZM33.2734 8.44531L30.1796 11.6094L25.8906 7.32031L29.0546 4.22656C29.3359 3.94531 29.6875 3.875 29.8281 3.875C29.9687 3.875 30.3203 3.94531 30.6015 4.22656L33.2734 6.89844C33.6953 7.32031 33.6953 8.02344 33.2734 8.44531Z" fill="white"/>
</svg>
