<svg id="Слой_1" data-name="Слой 1" xmlns="http://www.w3.org/2000/svg" viewBox="0 0 2766.12 2000"><defs><style>.cls-1{fill:#dce9fb;}.cls-12,.cls-2{fill:#c0d8fb;}.cls-3{fill:#dfebfd;}.cls-4{fill:#b7d3f3;}.cls-5{fill:#ebf3fa;}.cls-6{fill:#abc8f7;}.cls-7{fill:#ffa561;}.cls-8{fill:#fff;}.cls-9{fill:#aec3ff;}.cls-10{fill:#cde0fb;}.cls-11{fill:#e2884b;}.cls-12,.cls-14{opacity:0.5;}.cls-13,.cls-14{fill:#afcdfb;}.cls-15{fill:#f99746;}.cls-16{fill:#ef7e29;}.cls-17{fill:#e6f1ff;}.cls-18{fill:#163560;}.cls-19{fill:#1c468a;}.cls-20{fill:#2a4e96;}.cls-21{fill:#77a4e5;}.cls-22{fill:#9fc1f4;}.cls-23{fill:#233862;}.cls-24{fill:#abddda;}.cls-25{fill:#2b478b;}.cls-26{fill:#ffb27d;}.cls-27{fill:#e2915a;}.cls-28{fill:#91cecf;}.cls-29{fill:#7da8f4;}.cls-30{fill:#e8945b;}.cls-31{fill:#466aa5;}.cls-32{fill:#225399;}.cls-33{fill:#174884;}.cls-34{fill:#2e3552;}</style></defs><rect class="cls-1" x="488.78" y="614.26" width="678.79" height="1088.49"/><rect class="cls-2" x="1296.77" y="495.36" width="159.54" height="154.77" rx="11.41"/><rect class="cls-3" x="1303.68" y="502.07" width="145.71" height="141.36" rx="10.42"/><path class="cls-4" d="M1373.23,516.19a3.31,3.31,0,1,1,3.31,3.31A3.31,3.31,0,0,1,1373.23,516.19Z"/><path class="cls-4" d="M1399.9,520.86a3.31,3.31,0,1,1,1.28,4.5A3.32,3.32,0,0,1,1399.9,520.86Z"/><path class="cls-4" d="M1422.75,539a3.31,3.31,0,1,1-1,4.57A3.32,3.32,0,0,1,1422.75,539Z"/><path class="cls-4" d="M1434.06,567.11a3.31,3.31,0,1,1-3.3,3.3A3.31,3.31,0,0,1,1434.06,567.11Z"/><path class="cls-4" d="M1428.28,599.71a3.3,3.3,0,1,1-4.67,0A3.28,3.28,0,0,1,1428.28,599.71Z"/><path class="cls-4" d="M1407.53,620.52a3.3,3.3,0,1,1-4.67,0A3.3,3.3,0,0,1,1407.53,620.52Z"/><path class="cls-4" d="M1373.23,631.24a3.31,3.31,0,1,1,3.31,3.3A3.3,3.3,0,0,1,1373.23,631.24Z"/><path class="cls-4" d="M1353.07,520.86a3.3,3.3,0,1,0-1.28,4.5A3.31,3.31,0,0,0,1353.07,520.86Z"/><path class="cls-4" d="M1330.23,539a3.31,3.31,0,1,0,1,4.57A3.32,3.32,0,0,0,1330.23,539Z"/><path class="cls-4" d="M1318.91,567.11a3.31,3.31,0,1,0,3.31,3.3A3.3,3.3,0,0,0,1318.91,567.11Z"/><path class="cls-4" d="M1324.69,599.71a3.3,3.3,0,1,0,4.67,0A3.3,3.3,0,0,0,1324.69,599.71Z"/><path class="cls-4" d="M1345.44,620.52a3.3,3.3,0,1,0,4.67,0A3.3,3.3,0,0,0,1345.44,620.52Z"/><path class="cls-4" d="M1375.65,570.41a3.31,3.31,0,1,1,3.3,3.31A3.3,3.3,0,0,1,1375.65,570.41Z"/><rect class="cls-4" x="1378.5" y="529.13" width="0.9" height="41.28"/><rect class="cls-4" x="1375.57" y="560.41" width="27.83" height="2.71" transform="matrix(0.79, -0.62, 0.62, 0.79, -50.37, 977.78)"/><rect class="cls-5" x="488.78" y="428.03" width="678.79" height="148.79"/><rect class="cls-6" x="488.78" y="784.29" width="678.79" height="14.89"/><rect class="cls-1" x="1605.48" y="615.31" width="678.79" height="1088.49"/><rect class="cls-5" x="1600.13" y="428.03" width="678.79" height="148.79"/><rect class="cls-6" x="1605.48" y="779.97" width="678.79" height="14.89"/><rect class="cls-6" x="1605.48" y="981.47" width="678.79" height="14.89"/><rect class="cls-6" x="1600.13" y="1159.43" width="678.79" height="14.89"/><rect class="cls-6" x="1605.48" y="1353.07" width="678.79" height="14.89"/><rect class="cls-6" x="1605.48" y="1544.78" width="678.79" height="14.89"/><rect class="cls-7" x="924.95" y="727.51" width="70.7" height="56.78"/><rect class="cls-8" x="924.95" y="737.33" width="38.44" height="8.14"/><rect class="cls-7" x="1041.1" y="727.51" width="70.7" height="56.78"/><rect class="cls-8" x="1041.1" y="737.33" width="38.44" height="8.14"/><rect class="cls-9" x="512.32" y="738.72" width="83.04" height="45.6"/><rect class="cls-8" x="512.32" y="746.61" width="45.14" height="6.53"/><polygon class="cls-8" points="627.19 713.06 626.99 717.13 624.01 779.62 612.14 779.62 607.09 717.13 606.76 713.06 627.19 713.06"/><polygon class="cls-5" points="627.19 713.06 626.99 717.13 607.09 717.13 606.76 713.06 627.19 713.06"/><rect class="cls-9" x="611.69" y="774.04" width="12.53" height="10.28"/><rect class="cls-10" x="617.21" y="756.64" width="0.88" height="13.87"/><rect class="cls-7" x="649.86" y="738.72" width="83.04" height="45.6"/><rect class="cls-8" x="649.86" y="746.61" width="45.14" height="6.53"/><polygon class="cls-7" points="764.74 713.06 764.54 717.13 761.55 779.62 749.69 779.62 744.63 717.13 744.31 713.06 764.74 713.06"/><polygon class="cls-11" points="764.74 713.06 764.54 717.13 744.63 717.13 744.31 713.06 764.74 713.06"/><rect class="cls-8" x="749.24" y="774.04" width="12.53" height="10.28"/><rect class="cls-9" x="785.27" y="738.72" width="83.04" height="45.6"/><rect class="cls-8" x="785.27" y="746.61" width="45.14" height="6.53"/><polygon class="cls-8" points="900.14 713.06 899.94 717.13 896.96 779.62 885.1 779.62 880.04 717.13 879.71 713.06 900.14 713.06"/><polygon class="cls-5" points="900.14 713.06 899.94 717.13 880.04 717.13 879.71 713.06 900.14 713.06"/><rect class="cls-9" x="884.64" y="774.04" width="12.53" height="10.28"/><rect class="cls-10" x="890.16" y="756.64" width="0.88" height="13.87"/><rect class="cls-7" x="2125.09" y="935.87" width="83.04" height="45.6"/><rect class="cls-8" x="2125.09" y="943.76" width="45.14" height="6.53"/><polygon class="cls-8" points="2239.97 910.22 2239.77 914.28 2236.78 976.78 2224.92 976.78 2219.86 914.28 2219.54 910.22 2239.97 910.22"/><polygon class="cls-5" points="2239.97 910.22 2239.77 914.28 2219.86 914.28 2219.54 910.22 2239.97 910.22"/><rect class="cls-9" x="2224.47" y="971.19" width="12.53" height="10.28"/><rect class="cls-10" x="2229.98" y="953.79" width="0.88" height="13.87"/><rect class="cls-9" x="1978.26" y="935.87" width="83.04" height="45.6"/><rect class="cls-8" x="1978.26" y="943.76" width="45.14" height="6.53"/><polygon class="cls-8" points="2093.13 910.22 2092.93 914.28 2089.94 976.78 2078.08 976.78 2073.03 914.28 2072.7 910.22 2093.13 910.22"/><polygon class="cls-5" points="2093.13 910.22 2092.93 914.28 2073.03 914.28 2072.7 910.22 2093.13 910.22"/><rect class="cls-9" x="2077.63" y="971.19" width="12.53" height="10.28"/><rect class="cls-10" x="2083.14" y="953.79" width="0.88" height="13.87"/><rect class="cls-9" x="2125.09" y="1499.05" width="83.04" height="45.6"/><rect class="cls-8" x="2125.09" y="1506.94" width="45.14" height="6.53"/><polygon class="cls-8" points="2239.97 1473.39 2239.77 1477.46 2236.78 1539.95 2224.92 1539.95 2219.86 1477.46 2219.54 1473.39 2239.97 1473.39"/><polygon class="cls-5" points="2239.97 1473.39 2239.77 1477.46 2219.86 1477.46 2219.54 1473.39 2239.97 1473.39"/><rect class="cls-9" x="2224.47" y="1534.37" width="12.53" height="10.28"/><rect class="cls-10" x="2229.98" y="1516.97" width="0.88" height="13.87"/><rect class="cls-9" x="1978.26" y="1499.05" width="83.04" height="45.6"/><rect class="cls-8" x="1978.26" y="1506.94" width="45.14" height="6.53"/><polygon class="cls-8" points="2093.13 1473.39 2092.93 1477.46 2089.94 1539.95 2078.08 1539.95 2073.03 1477.46 2072.7 1473.39 2093.13 1473.39"/><polygon class="cls-5" points="2093.13 1473.39 2092.93 1477.46 2073.03 1477.46 2072.7 1473.39 2093.13 1473.39"/><rect class="cls-9" x="2077.63" y="1534.37" width="12.53" height="10.28"/><rect class="cls-10" x="2083.14" y="1516.97" width="0.88" height="13.87"/><rect class="cls-9" x="1832.97" y="935.87" width="83.04" height="45.6"/><rect class="cls-8" x="1832.97" y="943.76" width="45.14" height="6.53"/><polygon class="cls-8" points="1947.84 910.22 1947.64 914.28 1944.65 976.78 1932.79 976.78 1927.74 914.28 1927.41 910.22 1947.84 910.22"/><polygon class="cls-5" points="1947.84 910.22 1947.64 914.28 1927.74 914.28 1927.41 910.22 1947.84 910.22"/><rect class="cls-9" x="1932.34" y="971.19" width="12.53" height="10.28"/><rect class="cls-10" x="1937.86" y="953.79" width="0.88" height="13.87"/><rect class="cls-10" x="695.36" y="477.71" width="230.58" height="18.1"/><rect class="cls-10" x="672.48" y="508.81" width="276.34" height="18.1"/><rect class="cls-10" x="1824.23" y="477.71" width="230.58" height="18.1"/><rect class="cls-10" x="1801.35" y="508.81" width="276.34" height="18.1"/><rect class="cls-8" x="557.46" y="784.29" width="45.11" height="25.17"/><rect class="cls-8" x="695.01" y="784.29" width="45.11" height="25.17"/><path class="cls-12" d="M539,983.6H516.53a5.49,5.49,0,0,1-5.47-5.48l0-54.19a5.48,5.48,0,0,1,5.47-5.47H539a5.49,5.49,0,0,1,5.48,5.47l0,54.19A5.49,5.49,0,0,1,539,983.6Z"/><path class="cls-13" d="M542.06,968.24l-.39-2.85h0l-.38-2.85a2.68,2.68,0,0,0-3-2.29l-.24,0a2.58,2.58,0,0,0,.46-1.26,2.67,2.67,0,0,0,5.06-1.65l-.67-2.8h0l-.67-2.8a2.68,2.68,0,0,0-1.2-1.65,2.62,2.62,0,0,0-2-.32,2.68,2.68,0,0,0-2,3.22l1,4.21a2.83,2.83,0,0,0-.56-.59,1,1,0,1,1-1-1.7,14.69,14.69,0,0,0-1.07-4.48l-4.44-3.66a2.67,2.67,0,0,0-3.64,3.89,2.88,2.88,0,0,0-.71.09l-2.78.76h0l-2.78.76a2.72,2.72,0,0,0-1.89,2l-.29-.7h0l-1.11-2.65A2.67,2.67,0,1,0,512.8,953l1.11,2.66h0l.71,1.7a2.71,2.71,0,0,0-1.69,2.35l-.14,2.87h0l-.15,2.88a2.67,2.67,0,0,0,.69,1.92,2.63,2.63,0,0,0,1.85.88,2.48,2.48,0,0,0,.9-.11,2.93,2.93,0,0,1-1.35,3.09l-1.09,2.66h0l-1.1,2.67a2.62,2.62,0,0,0,0,2A2.66,2.66,0,0,0,514,980a2.7,2.7,0,0,0,3-.67,2.62,2.62,0,0,0,.83,1.08,2.69,2.69,0,0,0,3.75-.5l1.75-2.29h0l1.75-2.28a2.7,2.7,0,0,0,.47-1,2.67,2.67,0,0,0,1.78-.45l.46-.32-.63.83h0l-1.75,2.28a2.67,2.67,0,1,0,4.24,3.25l1.75-2.28h0l1.75-2.29.06-.09a2.7,2.7,0,0,0,.51.6l-.62.82a2.68,2.68,0,0,0,4.25,3.25l3.5-4.58a2.68,2.68,0,0,0-.5-3.74,2.55,2.55,0,0,0-.64-.36h.1A2.68,2.68,0,0,0,542.06,968.24ZM518,965.69l0-1a2.82,2.82,0,0,0,.67.76l.33.21-1.23.84A2.57,2.57,0,0,0,518,965.69Zm18-2.43.52,3.83a2.6,2.6,0,0,0-1-1.1,2.71,2.71,0,0,0-1.77-.37,2.63,2.63,0,0,0,.73-.65l1.5-2A2.29,2.29,0,0,0,536,963.26Zm-6.08-10.36.67.55-.69.48A2.74,2.74,0,0,0,529.91,952.9Zm.58,8.47a2.64,2.64,0,0,0-.47-1.13,2.59,2.59,0,0,0,.57-.3l2.11-1.45Zm1.75,5a2.69,2.69,0,0,0-2-.61l0-.72a2.56,2.56,0,0,0,.44.43,2.67,2.67,0,0,0,2,.52A3.48,3.48,0,0,0,532.24,966.37Zm-5.38-10.11a2.67,2.67,0,0,0,0,3l0,0a3.22,3.22,0,0,0-.55.29,2.59,2.59,0,0,0,.11-1.17,2.68,2.68,0,0,0-1-1.77h0Zm-2.66,6.42,1-1.34a1.87,1.87,0,0,0,0,.25l-.19,2.47a2.66,2.66,0,0,0-1.36-.65l.56-.73ZM519.37,974l.3-.73a2.62,2.62,0,0,0,.13-1.63l.18-.11,4.74-3.27.09-.07a2.61,2.61,0,0,0,.3.73l-.84.59a2.6,2.6,0,0,0-1.08,1.59,2.67,2.67,0,0,0-2.39,1Zm12.57-3.3.15.62a2.72,2.72,0,0,0-.74-.21Zm5.65.63-.21-.86h0l0-.17a2.66,2.66,0,0,0,1.1.8A2.82,2.82,0,0,0,537.59,971.31ZM521.4,957.54,520,959.43h0l-1.75,2.29,0,0,.09-1.81a.66.66,0,0,0,0-.14,1.25,1.25,0,0,0,.25-.09,2.67,2.67,0,0,0,1.63-2.67A2.73,2.73,0,0,0,521.4,957.54Z"/><path class="cls-14" d="M524.29,983.6h-7.76a5.49,5.49,0,0,1-5.47-5.48l0-54.19a5.48,5.48,0,0,1,5.47-5.47h6.88a6.7,6.7,0,0,1,.9,3.39l0,61.2C524.31,983.24,524.3,983.42,524.29,983.6Z"/><path class="cls-15" d="M544.09,921H511.44a1.07,1.07,0,0,1-1.07-1.07v-5.1a1.08,1.08,0,0,1,1.07-1.06h32.65a1.07,1.07,0,0,1,1.06,1.06V920A1.07,1.07,0,0,1,544.09,921Z"/><path class="cls-16" d="M523.26,921H511.44a1.07,1.07,0,0,1-1.07-1.07v-5.1a1.08,1.08,0,0,1,1.07-1.06h11.81a1.07,1.07,0,0,1,1.06,1.07V920A1.06,1.06,0,0,1,523.26,921Z"/><path class="cls-12" d="M596.37,983.6H574a5.49,5.49,0,0,1-5.47-5.48l0-54.19a5.48,5.48,0,0,1,5.47-5.47h22.42a5.49,5.49,0,0,1,5.48,5.47l0,54.19A5.49,5.49,0,0,1,596.37,983.6Z"/><path class="cls-13" d="M599.48,968.24l-.39-2.85h0l-.38-2.85a2.68,2.68,0,0,0-3-2.29l-.24,0a2.58,2.58,0,0,0,.46-1.26,2.67,2.67,0,0,0,5.06-1.65l-.67-2.8h0l-.67-2.8a2.68,2.68,0,0,0-1.2-1.65,2.61,2.61,0,0,0-2-.32,2.68,2.68,0,0,0-2,3.22l1,4.21a2.83,2.83,0,0,0-.56-.59,1,1,0,1,1-1-1.7,14.69,14.69,0,0,0-1.07-4.48l-4.44-3.66a2.67,2.67,0,0,0-3.64,3.89,2.88,2.88,0,0,0-.71.09l-2.78.76h0l-2.78.76a2.69,2.69,0,0,0-1.88,2l-.3-.7h0l-1.11-2.65a2.67,2.67,0,1,0-4.93,2.05l1.11,2.66h0l.71,1.7a2.68,2.68,0,0,0-1.68,2.35l-.15,2.87h0l-.15,2.88a2.67,2.67,0,0,0,.69,1.92,2.63,2.63,0,0,0,1.85.88,2.48,2.48,0,0,0,.9-.11,2.93,2.93,0,0,1-1.35,3.09l-1.09,2.66h0l-1.1,2.67a2.62,2.62,0,0,0,0,2,2.66,2.66,0,0,0,4.43.78,2.62,2.62,0,0,0,.83,1.08,2.69,2.69,0,0,0,3.75-.5l1.75-2.29h0l1.75-2.28a2.7,2.7,0,0,0,.47-1,2.67,2.67,0,0,0,1.78-.45l.46-.32-.63.83h0l-1.75,2.28a2.67,2.67,0,1,0,4.24,3.25l1.75-2.28h0l1.75-2.29.06-.09a2.7,2.7,0,0,0,.51.6l-.62.82a2.68,2.68,0,0,0,4.25,3.25l3.5-4.58a2.68,2.68,0,0,0-.5-3.74,2.55,2.55,0,0,0-.64-.36h.1A2.68,2.68,0,0,0,599.48,968.24Zm-24.08-2.55.05-1a2.82,2.82,0,0,0,.67.76l.33.21-1.23.84A2.57,2.57,0,0,0,575.4,965.69Zm18-2.43.52,3.83a2.6,2.6,0,0,0-1-1.1,2.71,2.71,0,0,0-1.77-.37,2.63,2.63,0,0,0,.73-.65l1.5-2A2.29,2.29,0,0,0,593.41,963.26Zm-6.08-10.36.67.55-.69.48A2.74,2.74,0,0,0,587.33,952.9Zm.58,8.47a2.64,2.64,0,0,0-.47-1.13,2.59,2.59,0,0,0,.57-.3l2.11-1.45Zm1.75,5a2.69,2.69,0,0,0-2-.61l.05-.72a2.56,2.56,0,0,0,.44.43,2.67,2.67,0,0,0,2,.52A3.48,3.48,0,0,0,589.66,966.37Zm-5.38-10.11a2.67,2.67,0,0,0,0,3l0,0a3.22,3.22,0,0,0-.55.29,2.59,2.59,0,0,0,.11-1.17,2.68,2.68,0,0,0-1-1.77h0Zm-2.66,6.42,1-1.34a1.87,1.87,0,0,0,0,.25l-.19,2.47a2.66,2.66,0,0,0-1.36-.65l.56-.73ZM576.79,974l.3-.73a2.56,2.56,0,0,0,.13-1.63l.18-.11,4.74-3.27.09-.07a2.61,2.61,0,0,0,.3.73l-.84.59a2.6,2.6,0,0,0-1.08,1.59,2.67,2.67,0,0,0-2.39,1Zm12.58-3.3.14.62a2.63,2.63,0,0,0-.74-.21Zm5.64.63-.21-.86h0l0-.17a2.66,2.66,0,0,0,1.1.8A2.82,2.82,0,0,0,595,971.31Zm-16.19-13.77-1.45,1.89h0l-1.75,2.29,0,0,.09-1.81v-.14a1.06,1.06,0,0,0,.25-.09,2.67,2.67,0,0,0,1.63-2.67A2.73,2.73,0,0,0,578.82,957.54Z"/><path class="cls-14" d="M581.71,983.6H574a5.49,5.49,0,0,1-5.47-5.48l0-54.19a5.48,5.48,0,0,1,5.47-5.47h6.88a6.7,6.7,0,0,1,.9,3.39l0,61.2C581.73,983.24,581.72,983.42,581.71,983.6Z"/><path class="cls-15" d="M601.51,921H568.86a1.07,1.07,0,0,1-1.07-1.07v-5.1a1.06,1.06,0,0,1,1.06-1.06h32.65a1.07,1.07,0,0,1,1.06,1.06V920A1.07,1.07,0,0,1,601.51,921Z"/><path class="cls-16" d="M580.68,921H568.86a1.07,1.07,0,0,1-1.07-1.07v-5.1a1.06,1.06,0,0,1,1.06-1.06h11.81a1.07,1.07,0,0,1,1.06,1.07V920A1.06,1.06,0,0,1,580.68,921Z"/><rect class="cls-6" x="488.78" y="983.8" width="678.79" height="14.89"/><rect class="cls-7" x="628.71" y="927.02" width="70.7" height="56.78"/><rect class="cls-8" x="628.71" y="936.84" width="38.44" height="8.14"/><rect class="cls-9" x="729.12" y="927.05" width="103.29" height="56.72"/><rect class="cls-8" x="729.12" y="936.86" width="56.15" height="8.13"/><rect class="cls-9" x="862.86" y="957.25" width="70.62" height="26.52"/><rect class="cls-8" x="862.86" y="961.83" width="38.39" height="3.8"/><rect class="cls-9" x="960.34" y="957.25" width="70.62" height="26.52"/><rect class="cls-8" x="960.34" y="961.83" width="38.39" height="3.8"/><rect class="cls-5" x="1075.62" y="929.26" width="32.41" height="54.54" rx="8.28"/><rect class="cls-7" x="1084.57" y="924.56" width="12.97" height="4.69"/><rect class="cls-8" x="1075.62" y="947.37" width="32.41" height="14.53"/><path class="cls-5" d="M1130.88,951h9.54a5,5,0,0,1,5,5v22.86a5,5,0,0,1-5,5h-9.54a5,5,0,0,1-5-5V955.95A5,5,0,0,1,1130.88,951Z"/><rect class="cls-7" x="1131.28" y="948.14" width="7.81" height="2.83"/><rect class="cls-8" x="1125.9" y="961.86" width="19.51" height="8.75"/><rect class="cls-8" x="529.68" y="984.13" width="45.11" height="25.17"/><rect class="cls-8" x="661.36" y="984.13" width="45.11" height="25.17"/><rect class="cls-8" x="758.2" y="984.13" width="45.11" height="25.17"/><rect class="cls-8" x="902.4" y="984.13" width="45.11" height="25.17"/><rect class="cls-8" x="1085.48" y="984.13" width="45.11" height="25.17"/><rect class="cls-6" x="488.78" y="1189.67" width="678.79" height="14.89"/><rect class="cls-9" x="525.33" y="1144.07" width="83.04" height="45.6"/><rect class="cls-8" x="525.33" y="1151.96" width="45.14" height="6.53"/><polygon class="cls-8" points="592.28 1134.81 592.28 1144.07 527.7 1144.07 530.66 1123.9 557.52 1128.65 592.28 1134.81"/><polygon class="cls-5" points="592.28 1134.81 592.28 1144.07 557.52 1144.07 557.52 1128.65 592.28 1134.81"/><polygon class="cls-17" points="534.65 1124.61 531.65 1144.07 527.7 1144.07 530.66 1123.9 534.65 1124.61"/><polygon class="cls-7" points="585.98 1133.7 594.7 1134.56 594.7 1144.07 585.98 1144.07 585.98 1133.7"/><rect class="cls-9" x="646.08" y="1144.07" width="83.04" height="45.6"/><rect class="cls-8" x="646.08" y="1151.96" width="45.14" height="6.53"/><polygon class="cls-8" points="718.68 1134.81 718.68 1144.07 654.1 1144.07 657.06 1123.9 683.92 1128.65 718.68 1134.81"/><polygon class="cls-5" points="718.68 1134.81 718.68 1144.07 683.92 1144.07 683.92 1128.65 718.68 1134.81"/><polygon class="cls-17" points="661.05 1124.61 658.05 1144.07 654.1 1144.07 657.06 1123.9 661.05 1124.61"/><polygon class="cls-7" points="712.38 1133.7 721.1 1134.56 721.1 1144.07 712.38 1144.07 712.38 1133.7"/><rect class="cls-8" x="698.54" y="1189.56" width="45.11" height="25.17"/><rect class="cls-8" x="828.17" y="784.29" width="45.11" height="25.17"/><rect class="cls-8" x="2138.15" y="779.97" width="45.11" height="25.17"/><rect class="cls-8" x="2138.15" y="981.47" width="45.11" height="25.17"/><rect class="cls-8" x="1983.49" y="981.47" width="45.11" height="25.17"/><rect class="cls-8" x="1975.82" y="779.97" width="45.11" height="25.17"/><rect class="cls-8" x="960.3" y="784.29" width="45.11" height="25.17"/><rect class="cls-8" x="1079.54" y="784.29" width="45.11" height="25.17"/><polygon class="cls-18" points="1071.97 1097.31 883.66 1097.31 857.82 954 1046.14 954 1071.97 1097.31"/><polygon class="cls-19" points="1068.96 1097.31 880.64 1097.31 854.81 954 1043.12 954 1068.96 1097.31"/><polygon class="cls-18" points="971.72 1133.33 928.39 1133.33 937.87 1038.74 981.19 1038.74 971.72 1133.33"/><rect class="cls-18" x="931.69" y="1130.61" width="61.15" height="2.72"/><path class="cls-9" d="M2216,1114.22v45.34H2170.3v-45.49a11.2,11.2,0,0,1,.07-1.3,13.94,13.94,0,0,1,8.44-11.54,9.22,9.22,0,0,0,5.78-8l.33-6.55h16.79l.1,6.53a8.92,8.92,0,0,0,5.6,8,14.09,14.09,0,0,1,8.53,11.53A13.94,13.94,0,0,1,2216,1114.22Z"/><polygon class="cls-20" points="2202.91 1089.59 2183.33 1089.59 2183.85 1084.47 2202.39 1084.47 2202.91 1089.59"/><path class="cls-8" d="M2216,1114.22v29.24H2170.3v-29.39a11.2,11.2,0,0,1,.07-1.3h45.57A13.94,13.94,0,0,1,2216,1114.22Z"/><path class="cls-9" d="M2247.33,734.63V780h-45.72V734.49a11.38,11.38,0,0,1,.07-1.31,13.91,13.91,0,0,1,8.44-11.53,9.23,9.23,0,0,0,5.78-8l.34-6.55H2233l.1,6.53a8.93,8.93,0,0,0,5.6,8,14.16,14.16,0,0,1,8.61,13Z"/><polygon class="cls-20" points="2234.22 710 2214.64 710 2215.16 704.89 2233.7 704.89 2234.22 710"/><path class="cls-8" d="M2247.33,734.63v29.24h-45.72V734.49a11.38,11.38,0,0,1,.07-1.31h45.57A13.94,13.94,0,0,1,2247.33,734.63Z"/><path class="cls-9" d="M2162.87,734.63V780h-45.71V734.49c0-.44,0-.88.06-1.31a13.93,13.93,0,0,1,8.44-11.53,9.23,9.23,0,0,0,5.78-8l.34-6.55h16.78l.11,6.53a8.93,8.93,0,0,0,5.6,8,14.08,14.08,0,0,1,8.53,11.52C2162.84,733.66,2162.87,734.14,2162.87,734.63Z"/><polygon class="cls-20" points="2149.76 710 2130.18 710 2130.7 704.89 2149.24 704.89 2149.76 710"/><path class="cls-8" d="M2162.87,734.63v29.24h-45.71V734.49c0-.44,0-.88.06-1.31h45.58C2162.84,733.66,2162.87,734.14,2162.87,734.63Z"/><path class="cls-9" d="M2080.38,734.63V780h-45.72V734.49a11.38,11.38,0,0,1,.07-1.31,13.93,13.93,0,0,1,8.44-11.53,9.23,9.23,0,0,0,5.78-8l.34-6.55h16.78l.11,6.53a8.92,8.92,0,0,0,5.6,8,14.16,14.16,0,0,1,8.6,13Z"/><polygon class="cls-20" points="2067.27 710 2047.69 710 2048.21 704.89 2066.75 704.89 2067.27 710"/><path class="cls-8" d="M2080.38,734.63v29.24h-45.72V734.49a11.38,11.38,0,0,1,.07-1.31h45.57A13.94,13.94,0,0,1,2080.38,734.63Z"/><path class="cls-9" d="M2004.22,734.63V780H1958.5V734.49a11.38,11.38,0,0,1,.07-1.31,13.91,13.91,0,0,1,8.44-11.53,9.23,9.23,0,0,0,5.78-8l.33-6.55h16.79l.1,6.53a8.93,8.93,0,0,0,5.6,8,14.16,14.16,0,0,1,8.61,13Z"/><polygon class="cls-20" points="1991.11 710 1971.53 710 1972.05 704.89 1990.59 704.89 1991.11 710"/><path class="cls-8" d="M2004.22,734.63v29.24H1958.5V734.49a11.38,11.38,0,0,1,.07-1.31h45.57A13.94,13.94,0,0,1,2004.22,734.63Z"/><path class="cls-9" d="M1932.34,745.68V780h-34.57v-34.4c0-.33,0-.66,0-1a10.57,10.57,0,0,1,6.39-8.73,7,7,0,0,0,4.37-6l.25-5h12.69l.08,4.94a6.75,6.75,0,0,0,4.24,6,10.67,10.67,0,0,1,6.45,8.72C1932.32,745,1932.34,745.31,1932.34,745.68Z"/><polygon class="cls-20" points="1922.43 727.06 1907.63 727.06 1908.02 723.19 1922.04 723.19 1922.43 727.06"/><path class="cls-8" d="M1932.34,745.68V767.8h-34.57V745.57c0-.33,0-.66,0-1h34.47C1932.32,745,1932.34,745.31,1932.34,745.68Z"/><path class="cls-9" d="M1857.67,745.68V780H1823.1v-34.4a7.94,7.94,0,0,1,.05-1,10.54,10.54,0,0,1,6.38-8.73,7,7,0,0,0,4.37-6l.26-5h12.69l.08,4.94a6.75,6.75,0,0,0,4.24,6,10.66,10.66,0,0,1,6.44,8.72A9.82,9.82,0,0,1,1857.67,745.68Z"/><polygon class="cls-20" points="1847.76 727.06 1832.95 727.06 1833.34 723.19 1847.36 723.19 1847.76 727.06"/><path class="cls-8" d="M1857.67,745.68V767.8H1823.1V745.57a7.94,7.94,0,0,1,.05-1h34.46A9.82,9.82,0,0,1,1857.67,745.68Z"/><path class="cls-9" d="M1772,745.68V780h-34.57v-34.4a7.94,7.94,0,0,1,0-1,10.54,10.54,0,0,1,6.38-8.73,7,7,0,0,0,4.37-6l.26-5h12.69l.08,4.94a6.74,6.74,0,0,0,4.23,6,10.65,10.65,0,0,1,6.45,8.72A9.82,9.82,0,0,1,1772,745.68Z"/><polygon class="cls-20" points="1762.07 727.06 1747.26 727.06 1747.65 723.19 1761.67 723.19 1762.07 727.06"/><path class="cls-8" d="M1772,745.68V767.8h-34.57V745.57a7.94,7.94,0,0,1,0-1h34.46A9.82,9.82,0,0,1,1772,745.68Z"/><path class="cls-9" d="M1680.23,745.68V780h-34.58v-34.4a7.93,7.93,0,0,1,.06-1,10.54,10.54,0,0,1,6.38-8.73,7,7,0,0,0,4.37-6l.25-5h12.7l.08,4.94a6.74,6.74,0,0,0,4.23,6,10.67,10.67,0,0,1,6.45,8.72C1680.2,745,1680.23,745.31,1680.23,745.68Z"/><polygon class="cls-20" points="1670.31 727.06 1655.51 727.06 1655.9 723.19 1669.92 723.19 1670.31 727.06"/><path class="cls-8" d="M1680.23,745.68V767.8h-34.58V745.57a7.93,7.93,0,0,1,.06-1h34.46C1680.2,745,1680.23,745.31,1680.23,745.68Z"/><rect class="cls-9" x="2105.53" y="1071.75" width="49.98" height="87.68"/><rect class="cls-8" x="2097.49" y="1128.14" width="46.66" height="15.92" transform="translate(3256.92 -984.73) rotate(90)"/><path class="cls-9" d="M2051.46,1114.22v45.34h-45.72v-45.49a11.2,11.2,0,0,1,.07-1.3,14,14,0,0,1,8.44-11.54,9.22,9.22,0,0,0,5.78-8l.34-6.55h16.78l.11,6.53a8.9,8.9,0,0,0,5.6,8,14.08,14.08,0,0,1,8.52,11.53A13.94,13.94,0,0,1,2051.46,1114.22Z"/><polygon class="cls-20" points="2038.35 1089.59 2018.77 1089.59 2019.29 1084.47 2037.83 1084.47 2038.35 1089.59"/><path class="cls-8" d="M2051.46,1114.22v29.24h-45.72v-29.39a11.2,11.2,0,0,1,.07-1.3h45.57A13.94,13.94,0,0,1,2051.46,1114.22Z"/><rect class="cls-9" x="1943.55" y="1071.75" width="49.98" height="87.68"/><rect class="cls-5" x="2177.81" y="1248.49" width="62.16" height="104.58" rx="15.88"/><rect class="cls-7" x="2194.95" y="1239.49" width="24.86" height="9"/><rect class="cls-8" x="2177.81" y="1283.21" width="62.16" height="27.86"/><rect class="cls-5" x="2099.44" y="1288.75" width="38.23" height="64.32" rx="9.77"/><rect class="cls-7" x="2109.99" y="1283.21" width="15.29" height="5.54"/><rect class="cls-8" x="2099.44" y="1310.1" width="38.23" height="17.14"/><rect class="cls-5" x="2038.39" y="1309.6" width="25.84" height="43.47" rx="6.6"/><rect class="cls-7" x="2045.52" y="1305.86" width="10.33" height="3.74"/><rect class="cls-8" x="2038.39" y="1324.03" width="25.84" height="11.58"/><rect class="cls-5" x="1969.55" y="1288.75" width="38.23" height="64.32" rx="9.77"/><rect class="cls-7" x="1980.09" y="1283.21" width="15.29" height="5.54"/><rect class="cls-8" x="1969.55" y="1310.1" width="38.23" height="17.14"/><rect class="cls-5" x="1908.5" y="1309.6" width="25.84" height="43.47" rx="6.6"/><rect class="cls-7" x="1915.63" y="1305.86" width="10.33" height="3.74"/><rect class="cls-8" x="1908.5" y="1324.03" width="25.84" height="11.58"/><rect class="cls-5" x="531.75" y="279.93" width="581.45" height="52.04"/><rect class="cls-5" x="614.49" y="141.28" width="5.41" height="138.65"/><rect class="cls-5" x="1025.7" y="141.28" width="5.41" height="138.65"/><rect class="cls-5" x="1652.94" y="279.93" width="581.45" height="52.04"/><rect class="cls-5" x="1735.68" y="141.28" width="5.41" height="138.65"/><rect class="cls-5" x="2146.89" y="141.28" width="5.41" height="138.65"/><rect class="cls-8" x="488.78" y="614.26" width="674.74" height="16.98"/><rect class="cls-8" x="471.51" y="614.26" width="17.27" height="1088.49"/><rect class="cls-8" x="1158.93" y="614.26" width="17.27" height="1088.49"/><rect class="cls-8" x="1615.73" y="614.26" width="674.74" height="16.98"/><rect class="cls-8" x="1598.46" y="614.26" width="17.27" height="1088.49"/><rect class="cls-8" x="2285.88" y="614.26" width="17.27" height="1088.49"/><path class="cls-21" d="M600.52,1509.79s-30.82-36-1.9-58.8c0,0,21.13-12.79,38.36-11.75,0,0-24.41,40.93-16.52,45s23.91-47.57,23.91-47.57,48.08-4.66,63.55,2.77c0,0-41.1,33.64-32.45,35.64s53-31,53-31,44.75,7.61,42.37,34.91-17.81,35.73-24.59,35-46.41-15.86-47.28-10.31,23,23.7,39.71,24.55c0,0-31.55,34.79-52.51,24.75s-22.76-26-35.83-31.92-24.23-6-18.83.13,29.05,12,36.52,25.23,14.18,22.13-7.51,18.87-57-19.14-58.5-37.31Z"/><path class="cls-21" d="M748.9,1479.72s-121.54-4.69-148.38,30.07c0,0-5.93,17.78-24.2,34l-2.85,7.76s21.06-22.21,28.6-23.55C602.07,1528,590.28,1484.91,748.9,1479.72Z"/><path class="cls-21" d="M576.32,1543.76s-26.09,19.29-27.9,53.76l4.74.43s8.33-35.65,23.39-49.59S576.32,1543.76,576.32,1543.76Z"/><path class="cls-21" d="M492.75,1464.57s49-27.46,26.15-64.73c0,0-18.31-22.88-37.92-28.77,0,0,10.46,55.58,0,56.88s-7.19-62.76-7.19-62.76-51.65-24.84-71.92-22.88c0,0,32,54.26,21.58,53S377,1339,377,1339s-53-9.81-61.46,21.57,5.23,47.08,13.08,49,58.18,1.3,56.88,7.84-35.31,17-54.27,11.12c0,0,20.92,51.65,48.38,49s36-19.61,53-20.92,29.42,3.27,20.92,7.85-37.27,1.5-51,13.17-24.85,18.86.65,24.09,71.26,2,80.41-17.65Z"/><path class="cls-21" d="M339.76,1370.42s137.3,44.46,153,94.15c0,0-.66,22.22,13.07,47.72v9.81s-14.38-33.34-22.23-37.92C483.59,1484.18,514.32,1441,339.76,1370.42Z"/><path class="cls-21" d="M505.82,1512.29s21.18,32.16,9.11,71.29l-5.45-1.46s5.29-43.11-5.79-64.79S505.82,1512.29,505.82,1512.29Z"/><path class="cls-22" d="M570.76,1426.7s-64.64-36.2-34.48-85.32c0,0,24.14-30.17,50-37.92,0,0-13.79,73.25,0,75s9.48-82.73,9.48-82.73,68.08-32.75,94.8-30.16c0,0-42.23,71.53-28.44,69.8s61.19-74.11,61.19-74.11,69.81-12.93,81,28.44-6.89,62-17.24,64.63-76.7,1.73-75,10.35,46.53,22.4,71.53,14.65c0,0-27.58,68.08-63.78,64.63s-47.4-25.85-69.81-27.58-38.78,4.31-27.57,10.35,49.12,2,67.22,17.36,32.75,24.87-.86,31.76-93.94,2.59-106-23.27Z"/><path class="cls-22" d="M772.42,1302.59s-181,58.61-201.66,124.11c0,0,.86,29.3-17.24,62.91v12.93s19-44,29.3-50C582.82,1452.55,542.32,1395.67,772.42,1302.59Z"/><path class="cls-22" d="M553.52,1489.61s-27.91,42.38-12,94l7.18-1.92s-7-56.83,7.64-85.41S553.52,1489.61,553.52,1489.61Z"/><path class="cls-22" d="M568.58,1695.46a126.6,126.6,0,0,0,126.61-126.61H442A126.6,126.6,0,0,0,568.58,1695.46Z"/><path class="cls-13" d="M599.73,1694.49A126.68,126.68,0,0,1,457.4,1568.85h31.45A126.63,126.63,0,0,0,599.73,1694.49Z"/><rect class="cls-22" x="437.8" y="1568.85" width="260.27" height="3.88"/><rect class="cls-22" x="525.44" y="1687.5" width="80.42" height="14.45"/><path class="cls-23" d="M1329.87,1650.93h51a122.77,122.77,0,0,0-4.07-18.31,51.71,51.71,0,0,0-2.89-7.34c-5-9.9-36.46-3.61-36.46-3.61s-2.92,2.51-5.21,12.09A102.09,102.09,0,0,0,1329.87,1650.93Z"/><path class="cls-24" d="M1423.49,872s40.63,7.13,49.82,31.12,61.08,411.4,61.08,411.4-25.7,20.37-80.86,13S1423.49,872,1423.49,872Z"/><path class="cls-23" d="M1484,1634.83c.14,6.94,1,13.51,3.53,16.1h100.86c-1.28-3.65-4.91-9.14-15.26-10.82-11.77-1.91-30.11-7.57-40.82-18.89a30.31,30.31,0,0,1-7.9-14.31c-4.75-21.13-39.24,6.47-39.24,6.47A171.55,171.55,0,0,0,1484,1634.83Z"/><path class="cls-23" d="M1527.41,1624.56c-11.28,3.59-32.82,14.57-46.51,9.41-8.84-3.33-58.28-146.34-61.48-208.89a160.6,160.6,0,0,0-2.53-18.63c-2.93-16.15-8.05-38.33-14-62.81-15.82-65.59-37.22-147.64-36.76-173.86.72-40.71,121.31-8.54,121.31-8.54s8.29,33.39,9.94,81.74c3.28,96,12.28,258,36.77,370.6C1535.24,1618.36,1532.08,1623.07,1527.41,1624.56Z"/><path class="cls-25" d="M1443.71,1169.92l-63.75,462s-28,6.75-49.76,1.35c0,0-18.67-245.72-17.11-305.13s-13.4-159,3.41-169.94S1443.71,1169.92,1443.71,1169.92Z"/><path class="cls-8" d="M1308.44,893.17s67-43.32,115-21.16c7.65,3.53,16.39,13.38,22.64,20.27,17.37,19.14,51.31,323.16,51.31,323.16s-96.34,32.63-189-11.07Z"/><path class="cls-24" d="M1427.3,870.91s67.82,27.79,77,49.15,55.59,213.73,55.59,229.11-40.37,49.95-48.74,25.14c-7-20.59-58.54-191.61-70.9-231.63Z"/><path class="cls-26" d="M1413.21,892.09c-14.8,2.9-36.55-.19-52.48-10.69,7.19-17.17,10.14-30.73,11.19-39.5.06-.47.11-.92.15-1.36a40.29,40.29,0,0,0,.19-9h38.27s10.47,4.79,10.47,8.1c0,1.76,0,3.46,0,5.07.08,4.4.26,8.25.49,11.55.72,10.74,2,15.8,2,15.8S1428.16,889.15,1413.21,892.09Z"/><path class="cls-27" d="M1421.53,856.21c-29,5.6-45.84-10.25-49.61-14.31-.54-.58-.81-.93-.81-.93.3-.15.63-.29,1-.43,10.8-4.37,35.29-.89,49,4.12C1421.12,849.06,1421.3,852.91,1421.53,856.21Z"/><path class="cls-26" d="M1362.45,825.2c5.18,27.89,41.17,27,56.72,25.22,4.37-.48,7.13-1,7.13-1,4.93-1.32,7.69-9.09,9-19.27,2.54-20.15-.66-49.73-4.07-57.3-5.12-11.38-14.77-23.69-51-14.81S1355.8,789.47,1362.45,825.2Z"/><path class="cls-23" d="M1432.54,757.26c-5-6.86-15.45-15.24-25-20.4-20.49-11.09-46.72.35-46.83.4-29.6,13-37.33,35.66-21.64,70.94,16.6,37.3,32.4,33.1,32.4,33.1s-3.35-2.08-3-13.71c0-.66,0-1.21.07-1.69a7.8,7.8,0,0,0-2.47-6.36c-3.67-3.28-5.46-13.21-2.39-16,3.72-3.33,8.94.72,10.6,3.83a4.55,4.55,0,0,0,6.5,1.43c9.21-5.82,3.23-17.47,12-24.6s26.67-1.14,39.88-6.82C1449.93,771,1436.27,762.42,1432.54,757.26Z"/><path class="cls-24" d="M1436.67,1343c-5.84,1.5-11.61,2.74-17.35,3.68-5.08.86-10.13,1.51-15.19,1.93-28.67,2.5-57.46-1.54-91.13-11.19q-11.36-3.26-23.54-7.37c-.86-.29,2.21-89.3,5.77-181.1.36-9.48.73-19,1.1-28.45.16-4,.31-8,.47-12,3.23-81.2,6.42-154.52,7.09-158.48,1.54-8.93,3-16.55,4.55-23.14,4.58-19.25,10.28-29.79,22.7-38.86,1.2-.92,11.14-5.93,19.89-10.29,7.26-3.6,13.7-6.75,13.7-6.75h0c2.88,1.41,6.35,8,10,17.32,6.68,17.11,13.87,43.32,18.87,62.9a.19.19,0,0,1,0,.1h0c3.22,12.64,5.54,22.48,6.19,25.31,1.12,4.77,2.59,14,4.34,26.51,2.36,17,5.17,40.15,8.15,66.4.3,2.69.61,5.42.92,8.17.35,3.15.71,6.34,1.07,9.55l.33,3.11C1415.76,1100.78,1437.08,1337.68,1436.67,1343Z"/><path class="cls-28" d="M1414.29,1087.29c-19.35-.85-112.67-5.1-114.38-7.84-1.92-3.06,37.89-96.65,37.89-96.65,0,.19-7.76,75.72,53.87,85.68,6.45,1-1,9.19,3.42,10.08C1395.43,1081.71,1413.93,1084.08,1414.29,1087.29Z"/><path class="cls-28" d="M1408.92,1104.58l-21.06,12.19c-9.4,6-38.79,17.94-79.42,28.91-4.27,1.15-8.67,2.25-13.21,3.26.36-9.48.73-19,1.1-28.44a118.63,118.63,0,0,1-15.27-2.11c.16-1.25.32-2.5.49-3.75,5.16-2.12,10.3-4.16,15.25-6.1,4-1.57,7.94-3.07,11.64-4.47,16.69-6.34,29.06-10.63,29.06-10.63l49.4,15.65Z"/><path class="cls-28" d="M1422.13,863.14c3.86,1.46,11.25,9,12.91,13.22l5.21,66.32S1429.14,894,1423.49,872A37.3,37.3,0,0,1,1422.13,863.14Z"/><path class="cls-8" d="M1411.84,833s3.79,4.89,8.88,4.27,8.88-2.23,9.5-4.55,1-4,1-4S1424.18,827.17,1411.84,833Z"/><path class="cls-26" d="M1399.48,1077.26l15.6-7.28c3.28-1.53,14.86-4.16,14.86-4.16l-.46,6.32L1418,1080l-17.65,9Z"/><rect class="cls-7" x="1425.39" y="1045.62" width="74.82" height="60.09" transform="translate(-206.87 362.18) rotate(-13.19)"/><rect class="cls-8" x="1422.33" y="1060.32" width="40.68" height="8.61" transform="translate(-204.88 357.31) rotate(-13.19)"/><path class="cls-26" d="M1407.68,1098s18.65.57,29.14-.45,22.62-11.41,23.28-14-.87-7.22-12.89-7.86c-10.21-.55-22.55,0-22.55,0l-24.88,5.72Z"/><path class="cls-24" d="M1408.92,1104.58s-12.33,5.66-22.44,7.7l-.1,0c-18.64,3.74-50,9-77.94,8.71-4.13,0-8.19-.2-12.11-.51a118.63,118.63,0,0,1-15.27-2.11c-10.23-2.16-18.8-5.81-24.4-11.52-41.62-42.4,22.71-194.56,36.24-209.36,15.79-17.29,44.61-23.35,60.53-25.43l1.92-.25c5.6-.67,9.19-.8,9.39-.81h0s-1.24,4-3.33,10.82c-.82,2.63-1.76,5.68-2.79,9.09-9.78,32-28.64,94.93-36.95,130.42-3.05,13-4.68,22.29-3.94,25.07,3.25,12.12,36.88,18.35,58.18,21.11a126.94,126.94,0,0,0,15.76,1C1404.66,1066.55,1408.92,1104.58,1408.92,1104.58Z"/><path class="cls-28" d="M1367.63,862.07s-13.21,2.29-19.07,10.71c0,0,45.25,79.27,45.06,78.56S1378.83,871.8,1367.63,862.07Z"/><rect class="cls-7" x="864.81" y="1163.8" width="1069.35" height="538.95"/><rect class="cls-8" x="830.43" y="1133.33" width="1138.12" height="44.07"/><path class="cls-8" d="M1115.81,1281h20.13c11.88,0,19.39,6.78,19.39,17.21,0,11.44-9.19,17.42-20.41,17.42h-10.14V1332h-9Zm19.4,26.54c6.78,0,11-3.79,11-9.26,0-6-4.31-9.11-11-9.11h-10.43v18.37Z"/><path class="cls-8" d="M1164.52,1281h9v21.22h24.35V1281h9v51h-9v-21.51h-24.35V1332h-9Z"/><path class="cls-8" d="M1238,1280.63h8.32l22.45,51.41h-9.47l-5.18-12.32H1230l-5.25,12.32h-9.18Zm12.84,31.14-8.83-20.42-8.74,20.42Z"/><path class="cls-8" d="M1277.53,1281h22.75c12,0,19,6.42,19,16.26,0,8.38-5,13.42-12.18,15.46l13.78,19.32h-10.57l-12.69-17.79H1286.5V1332h-9Zm22.1,25.3c6.41,0,10.5-3.35,10.5-8.68s-3.94-8.45-10.58-8.45h-13v17.13Z"/><path class="cls-8" d="M1330.25,1281h9.55l15.53,24.13,15.53-24.13h9.55v51h-9v-36.6l-16.11,24.06H1355l-16-23.92V1332h-8.82Z"/><path class="cls-8" d="M1411.62,1280.63h8.31l22.46,51.41h-9.48l-5.18-12.32H1403.6l-5.25,12.32h-9.19Zm12.83,31.14-8.82-20.42-8.75,20.42Z"/><path class="cls-8" d="M1445.74,1306.52c0-14.51,10.87-26.4,26.33-26.4,9.4,0,15.09,3.29,20,8l-5.76,6.64c-4.08-3.79-8.45-6.35-14.29-6.35-9.77,0-16.84,8-16.84,18.16s7.07,18.15,16.84,18.15c6.27,0,10.28-2.55,14.66-6.63l5.76,5.83c-5.32,5.54-11.16,9-20.71,9C1456.83,1332.91,1445.74,1321.32,1445.74,1306.52Z"/><path class="cls-8" d="M1516.11,1311.91,1495.84,1281h10.57l14.29,22.6,14.44-22.6h10.28l-20.27,30.7V1332h-9Z"/><rect class="cls-8" x="864.81" y="1520.3" width="1069.35" height="87.03"/><path class="cls-8" d="M984.81,1373.93a67.4,67.4,0,1,1,47.67-19.74A67,67,0,0,1,984.81,1373.93Zm0-128.62a61.22,61.22,0,1,0,43.28,17.93A60.81,60.81,0,0,0,984.81,1245.31Z"/><polygon class="cls-8" points="1028.35 1295.52 995.8 1295.52 995.8 1262.98 973.81 1262.98 973.81 1295.52 941.27 1295.52 941.27 1317.52 973.81 1317.52 973.81 1350.06 995.8 1350.06 995.8 1317.52 1028.35 1317.52 1028.35 1295.52"/><path class="cls-7" d="M2023.68,1387.7V1433H1978v-45.48a11.26,11.26,0,0,1,.07-1.31,13.94,13.94,0,0,1,8.44-11.54,9.23,9.23,0,0,0,5.78-8l.33-6.55h16.79l.1,6.53a8.92,8.92,0,0,0,5.6,8,14.11,14.11,0,0,1,8.53,11.53A13.94,13.94,0,0,1,2023.68,1387.7Z"/><polygon class="cls-20" points="2010.58 1363.07 1991 1363.07 1991.51 1357.96 2010.06 1357.96 2010.58 1363.07"/><rect class="cls-29" x="2039.96" y="1364.31" width="83.04" height="45.6" transform="translate(-315.79 2101.05) rotate(-50.26)"/><polygon class="cls-7" points="2139.74 1365.66 2138.42 1369.51 2118.15 1428.7 2106.75 1425.4 2119.3 1363.97 2120.12 1359.97 2139.74 1365.66"/><polygon class="cls-5" points="2139.74 1365.66 2138.42 1369.51 2119.3 1363.97 2120.12 1359.97 2139.74 1365.66"/><rect class="cls-9" x="2106.2" y="1421.45" width="12.53" height="10.28" transform="matrix(0.96, 0.28, -0.28, 0.96, 480.93, -531.92)"/><rect class="cls-10" x="2116.07" y="1404.58" width="0.88" height="13.87" transform="translate(475.61 -532.57) rotate(16.13)"/><path class="cls-26" d="M2025.27,1243.82s19,12.62,21.88,17.93,2,16.71,2,16.71-18.93,8.43-16.63-1.48c2.21-9.49-6.16-5.8-11.48-10.39s-11.5-18-11.5-18Z"/><path class="cls-23" d="M1835.37,832.18s46.79-56.22,71.56-20.24c0,0,18.47,7.66,25.16,39.12,6.82,32.09-14.52,56.48-25.56,50.45-7.07-3.87-12.43,8.52-12.43,8.52Z"/><path class="cls-26" d="M1777.34,1131.36c-37.19-13.71-73-77.36-73-77.36l11.73-8.21c9.77,14.29,53.73,41.73,53.73,41.73,1-12,2.46-23,4.26-32.86,12.2-67.28,40.12-87.2,47.61-91.43a16.9,16.9,0,0,1,1.89-1s0,.5-.08,1.43c-.11,2-.35,6.11-.74,11.7C1819.82,1017.05,1808.42,1142.82,1777.34,1131.36Z"/><path class="cls-23" d="M1901.81,806.24s6.3-25.17,43.25-17.3c0,0-17.69-2.23-22.54,4.58,0,0,14-6.42,22.8-1s10.23,23.45,8.91,29-11,21.88-17.42,21.88-14-5.63-14-5.63Z"/><path class="cls-26" d="M1957.12,1200.05c-18.38-41.21-27.17-52.87-27.48-65.83-.24-10.26,4.81-21.32,14.64-48.45a101.76,101.76,0,0,0,4.89-19.61c7.76-52.3-22.48-108.83-41.28-112.69-5.23-1.38-14.09-20.27-14-50.71l-2.36.47L1852,911.07s.9,12.45.93,24.19c0,9.77-.56,19-2.78,20.21-2.85.26-4.53.43-4.53.43s-33,45.83-35.77,88.46,26.42,61.14-.22,146.32C1782.39,1277.68,1967.27,1222.82,1957.12,1200.05Z"/><path class="cls-30" d="M1852,911.07s.9,12.45.93,24.19c22.15-.63,33.86-20.83,38.65-32Z"/><path class="cls-23" d="M1895.64,898.92s11.61-18.34,14.39-34c2-11.2-3.71-52.7-45.41-46.72a56.65,56.65,0,0,0-23.5,8.88c-9,6.12-22.12,19.32-7.51,55.53l3.8,12.24Z"/><path class="cls-26" d="M1844.58,922.18S1897,923,1897,890.4s6.82-54.51-26.64-56.45-40,10.52-42.63,21.41S1831,921.11,1844.58,922.18Z"/><path class="cls-23" d="M1846.52,833.15s14.34,38.3,36.36,44,31.57-.24,31.57-.24-16.89-13.41-20.39-36.83C1894.06,840,1857.34,814.93,1846.52,833.15Z"/><path class="cls-23" d="M1850.07,836.26s-10.71,8.55-13.32,16.87S1833,878.55,1828,878c0,0-10.81-26,1.34-40.76C1842.19,821.6,1850.07,836.26,1850.07,836.26Z"/><path class="cls-18" d="M1910.72,1595.49a518.48,518.48,0,0,1-33,92.66l-17.28-1.2s8.47-40.32,8-94.79c-.34-38.08-5.05-83.09-20.1-126.06-51.7-147.67-43.35-255.14-43.35-255.14l97.24,11.37,4.53.53c.4,44.66,1.56,105.29,2.57,152.7.89,42.64,1.67,74.58,1.67,74.58C1929.64,1490.4,1922.86,1547.23,1910.72,1595.49Z"/><path class="cls-26" d="M2025.27,1243.82l-15.73,4.72s-51.9-86.11-56.62-108.51c-1.54-7.3-5.31-21.89-9.71-38.25-9.12-33.86-20.88-75.3-20.88-75.3l-3.87-16.78-13.21-57.21s25.29,2.59,40.09,8.77c4.9,2,8.64,4.49,9.94,7.35,10.87,23.9,21.72,84.21,29.35,127.24,4.25,24,7.49,42.59,9.18,46.54C1998.53,1153.39,2013,1213.94,2025.27,1243.82Z"/><path class="cls-19" d="M1966.5,1587.12c-5.59,59.67-30.21,98.25-30.21,98.25l-8.25,6s-7.81-42-13.34-92c-5.27-47.54-12.49-97.84-20.66-113.19-32.43-60.89-42.19-290.76-42.19-290.76l98.59-4.89c9.91,16.67,14.23,44,15.26,75.09,2.59,78.45-15.85,180.75-18.6,195.54a.08.08,0,0,1,0,0,5.16,5.16,0,0,0,.64,3.31C1967.35,1503.28,1970.18,1547.71,1966.5,1587.12Z"/><path class="cls-23" d="M1848.08,837.56s10.23,40.1,38,52.94c0,0-27.78-24.64-30.14-51.11S1848.08,837.56,1848.08,837.56Z"/><path class="cls-26" d="M1716.05,1045.79c0-1.62,1.36-25-2.81-29.94s-12.67-11.91-15.35-11.7-13.14,14.12-10,24.78,16.42,25.07,16.42,25.07Z"/><path class="cls-26" d="M1966.5,1587.12c-5.59,59.67-30.21,98.25-30.21,98.25l-8.4,7.65s-7.66-43.69-13.19-93.7C1920.52,1599.74,1946.2,1600.68,1966.5,1587.12Z"/><path class="cls-26" d="M1910.72,1595.49a518.48,518.48,0,0,1-33,92.66l-17.28-1.2s8.47-40.32,8-94.79C1874.26,1595.12,1886.36,1598.11,1910.72,1595.49Z"/><path class="cls-23" d="M1887.64,1702.64h-11c-3.7-.59-6.43-1.66-10.22-2.15-5.75-.76-8.4,1.6-8.93,2.15l-.1.11h-46.87c-1.18-1.69,0-5.59,1.06-8.46a6.68,6.68,0,0,1,4.39-4c5-1.44,14.77-2.72,23.74-10.84,5-4.56,24.38-16.77,24.38-16.77l.1,0c.42,0,2.44.63,11.24,8.06,4.54,3.83,12.29-5.41,12.29-5.41a11.08,11.08,0,0,1,2.54,3.44,11.68,11.68,0,0,1,1,7.19c-.7,4.23,1.56,12.07,3.36,17.38,1.09,3.22,2,5.5,2,5.5S1897.13,1701.45,1887.64,1702.64Z"/><path class="cls-31" d="M1890.23,1668.73c-2.64,1.86-8.2,5.51-11.89,6-5,.65-14.28-12-14.28-12l.1,0c.42,0,2.44.63,11.24,8.06,4.54,3.83,12.29-5.41,12.29-5.41A11.08,11.08,0,0,1,1890.23,1668.73Z"/><path class="cls-31" d="M1887.64,1702.64h-11c-3.7-.59-6.43-1.66-10.22-2.15-5.75-.76-8.4,1.6-8.93,2.15l-.1.11h-46.87c-1.18-1.69,0-5.59,1.06-8.46,1.43-1.26,1.83,5.5,2.61,6.58s38.24.39,40.4-1.18,8.65-4.33,17.69-2.17c7.87,1.88,19.47-2.94,22.34-4.22,1.09,3.22,2,5.5,2,5.5S1897.13,1701.45,1887.64,1702.64Z"/><path class="cls-23" d="M1946.51,1702.64h-11c-3.7-.59-6.43-1.66-10.22-2.15-5.75-.76-8.4,1.6-8.93,2.15l-.1.11h-46.87c-1.17-1.69,0-5.59,1.07-8.46a6.64,6.64,0,0,1,4.38-4c5-1.44,14.77-2.72,23.74-10.84,5-4.56,24.38-16.77,24.38-16.77l.1,0c.42,0,2.45.63,11.24,8.06,4.54,3.83,12.29-5.41,12.29-5.41a11.08,11.08,0,0,1,2.54,3.44,11.61,11.61,0,0,1,1,7.19c-.7,4.23,1.56,12.07,3.36,17.38,1.09,3.22,2,5.5,2,5.5S1956,1701.45,1946.51,1702.64Z"/><path class="cls-31" d="M1949.1,1668.73c-2.64,1.86-8.2,5.51-11.88,6-5,.65-14.29-12-14.29-12l.1,0c.42,0,2.45.63,11.24,8.06,4.54,3.83,12.29-5.41,12.29-5.41A11.08,11.08,0,0,1,1949.1,1668.73Z"/><path class="cls-31" d="M1946.51,1702.64h-11c-3.7-.59-6.43-1.66-10.22-2.15-5.75-.76-8.4,1.6-8.93,2.15l-.1.11h-46.87c-1.17-1.69,0-5.59,1.07-8.46,1.42-1.26,1.82,5.5,2.61,6.58s38.23.39,40.39-1.18,8.65-4.33,17.69-2.17c7.87,1.88,19.47-2.94,22.34-4.22,1.09,3.22,2,5.5,2,5.5S1956,1701.45,1946.51,1702.64Z"/><path class="cls-32" d="M1993.53,1025c-19.56-34.39-20.49-48.19-39.69-60.1-21.45-9.78-37.48-10.9-37.48-10.9s-7.46,33.12-12.18,37.44-73.13,11.4-74.71,3.54c-1.5-7.51,17.79-36.72,19.23-39.29a28.4,28.4,0,0,0-3.11.24c-7.8,1-13.3,1.81-17.27,2.48-5.27.91-7.85,1.62-9.58,2.46-4.65.76-27.49,7.79-51.5,72.93,0,0,19.5,24.46,34.58,28.79l1.19.31c-2.61,43.74-18.71,116.52-12.91,158.63,5.57,40.49,90.74,30.13,107.62,26.38q17.35-3.86,26.92-36.56c2.11,15.22,6.86,33.06,17.5,34.16,17.42,1.8,24.62-1.2,26.72-7.8a23.51,23.51,0,0,0,.61-7.88c-.79-16-11.84-70.93-22.34-117-4.48-19.62-10.69-34.16-13-49.06C1955.08,1063.71,1983.49,1047.18,1993.53,1025Z"/><path class="cls-26" d="M1687.81,1020.38c.49-1.9,3-39,4-35.49s3.57,23,3.57,23Z"/><polygon class="cls-32" points="1698.63 966.79 1700.09 970.59 1722.55 1028.98 1711.69 1033.77 1681.88 978.61 1679.93 975.02 1698.63 966.79"/><polygon class="cls-33" points="1698.63 966.79 1700.09 970.59 1681.88 978.61 1679.93 975.02 1698.63 966.79"/><rect class="cls-8" x="1710.57" y="1025.88" width="12.53" height="10.28" transform="translate(-269.95 779.61) rotate(-23.77)"/><path class="cls-26" d="M1695.39,1006s10.1-15.54,12.57-14.68c3.52,1.24-9.16,21-9.16,21s9.4-14.74,10.87-13.63c3.34,2.52-2,11.78-7.26,18.88,0,0,9.45-8.65,9.75-7.09,1.08,5.46-10.37,18.68-10.37,18.68l-6.4-14.62Z"/><path class="cls-8" d="M1854.82,902.8s-.91,3.85-10.48,3.25c0,0-8-.49-7.79-4.72C1836.55,901.33,1844.34,898.32,1854.82,902.8Z"/><path class="cls-8" d="M2152.36,1345.69h-228a3.94,3.94,0,0,1-3.94-3.94h0a3.94,3.94,0,0,1,3.94-4h228a3.94,3.94,0,0,1,3.94,4h0A3.94,3.94,0,0,1,2152.36,1345.69Z"/><rect class="cls-8" x="1942.37" y="1388.88" width="192.85" height="6.62"/><rect class="cls-8" x="1951.4" y="1433.61" width="175.27" height="8.83"/><rect class="cls-8" x="1937.57" y="1338.53" width="6.86" height="104.82" transform="translate(-294.5 551.46) rotate(-15.04)"/><rect class="cls-8" x="2035.37" y="1345.69" width="6.86" height="92.29"/><rect class="cls-8" x="1983.61" y="1345.3" width="6.86" height="93.78" transform="matrix(0.99, -0.13, 0.13, 0.99, -161.94, 265.95)"/><rect class="cls-8" x="2084.52" y="1387.51" width="104.82" height="6.86" transform="matrix(0.26, -0.97, 0.97, 0.26, 239.09, 3093.69)"/><rect class="cls-8" x="2044" y="1388.76" width="93.78" height="6.86" transform="translate(442.09 3287.31) rotate(-82.63)"/><path class="cls-16" d="M1922.61,1342.5h0a2.6,2.6,0,0,1,.76-3.59l114.8-74.79a2.61,2.61,0,0,1,3.59.75h0a2.61,2.61,0,0,1-.76,3.6l-114.79,74.79A2.61,2.61,0,0,1,1922.61,1342.5Z"/><path class="cls-16" d="M2152.2,1342.5h0a2.6,2.6,0,0,0-.76-3.59l-114.79-74.79a2.6,2.6,0,0,0-3.59.75h0a2.62,2.62,0,0,0,.75,3.6l114.8,74.79A2.6,2.6,0,0,0,2152.2,1342.5Z"/><path class="cls-26" d="M2011.6,1252.7s3.16,14.86,7,19.21,9.19,11.6,11.36,9.67-2.41-18.13-2.41-18.13Z"/><path class="cls-34" d="M199.32,1701.95h2363.4a3.44,3.44,0,0,1,3.44,3.44v1.18a3.44,3.44,0,0,1-3.44,3.44H199.32a3.44,3.44,0,0,1-3.44-3.44v-1.18A3.45,3.45,0,0,1,199.32,1701.95Z"/></svg>