<svg xmlns="http://www.w3.org/2000/svg" xmlns:xlink="http://www.w3.org/1999/xlink" viewBox="0 0 316.61 202.93"><defs><style>.cls-1{fill:#e5e7f9;}.cls-2{fill:#aeb8ff;}.cls-3{fill:#919fe2;}.cls-4{fill:#ffb98a;}.cls-5{fill:#cf4339;}.cls-6{fill:url(#linear-gradient);}.cls-7{fill:#002767;}.cls-8{fill:url(#linear-gradient-2);}.cls-9{fill:#ea9c68;}.cls-10{fill:url(#linear-gradient-3);}.cls-11{fill:url(#linear-gradient-4);}.cls-12{fill:#a32430;}.cls-13{fill:url(#linear-gradient-5);}.cls-14{fill:url(#linear-gradient-6);}.cls-15{fill:url(#linear-gradient-7);}.cls-16{fill:#001e49;}.cls-17{fill:url(#linear-gradient-8);}.cls-18{fill:url(#linear-gradient-9);}.cls-19{fill:url(#linear-gradient-10);}.cls-20,.cls-23{fill:#fff;}.cls-21{fill:#272525;}.cls-22{fill:#93a0e2;}.cls-23{font-size:12.51px;font-family:Teko-Regular, Teko;}</style><linearGradient id="linear-gradient" x1="212.37" y1="110.06" x2="224.82" y2="110.06" gradientUnits="userSpaceOnUse"><stop offset="0" stop-color="#d5652c"/><stop offset="1" stop-color="#5a308d"/></linearGradient><linearGradient id="linear-gradient-2" x1="220.02" y1="109.36" x2="237.97" y2="109.36" gradientUnits="userSpaceOnUse"><stop offset="0" stop-color="#ffb115"/><stop offset="1" stop-color="#ff55d9"/></linearGradient><linearGradient id="linear-gradient-3" x1="208.4" y1="106.4" x2="239.01" y2="106.4" xlink:href="#linear-gradient"/><linearGradient id="linear-gradient-4" x1="53.86" y1="132.65" x2="71.1" y2="132.65" xlink:href="#linear-gradient-2"/><linearGradient id="linear-gradient-5" x1="47.26" y1="103.26" x2="58.12" y2="103.26" xlink:href="#linear-gradient-2"/><linearGradient id="linear-gradient-6" x1="37.25" y1="133.21" x2="56.03" y2="133.21" xlink:href="#linear-gradient"/><linearGradient id="linear-gradient-7" x1="38.37" y1="133.44" x2="65.07" y2="133.44" xlink:href="#linear-gradient-2"/><linearGradient id="linear-gradient-8" x1="253.99" y1="117.3" x2="279.26" y2="117.3" xlink:href="#linear-gradient-2"/><linearGradient id="linear-gradient-9" x1="130.96" y1="180.5" x2="138.5" y2="180.5" gradientUnits="userSpaceOnUse"><stop offset="0" stop-color="#2a2760"/><stop offset="0.42" stop-color="#2d2e6f"/><stop offset="1" stop-color="#333b8c"/></linearGradient><linearGradient id="linear-gradient-10" x1="75.96" y1="79.74" x2="197.37" y2="79.74" xlink:href="#linear-gradient-9"/></defs><g id="Layer_2" data-name="Layer 2"><g id="OBJECT"><path class="cls-1" d="M143,60.78S84.32,56.89,65.62,99.13,18.23,120.8,3.7,149.72s18.45,51.83,18.45,51.83H316.6s1.76-49-42.87-57.46-26-43.74-49-60S161.05,60.2,143,60.78Z"/><path class="cls-2" d="M93.44,187.93a32.35,32.35,0,0,0-5.49-7.3c-3.94-4.11-4.45-12.79,0-13.42s4.63,13.08,7.37,13.08-2.06-9.94,2.57-9.77,3.94,10.11,3.77,13,3.26-.83,3.6-6,3.6-4.51,5-2.78-1.2,11-1.72,14.52,6.17-5.24,7.72-2.16-6.75,14.07-11.72,14.41-14.33-3.7-15.87-5.8,1-2.78,5.82-1.07,3.26-1.88-1.54-3.08-7-3.28-7-5.84S93.44,187.93,93.44,187.93Z"/><path class="cls-2" d="M147.93,201.22h44.55s-1-4.84-4.11-6.38a9.12,9.12,0,0,0-5.14-1.2,12.31,12.31,0,0,0-7.37-6.17c-5.14-1.37-9.08,1-10.28,3.25a7.47,7.47,0,0,0-7.11-.85c-3.95,1.62-5.49,4.47-5.06,7.29C153.41,197.16,149.56,196.21,147.93,201.22Z"/><path class="cls-3" d="M176.54,191.9a6.14,6.14,0,0,1-.45-6.37,7,7,0,0,1,5.13-3.52S183.38,188.46,176.54,191.9Z"/><path class="cls-3" d="M180,192.51a4.16,4.16,0,0,1,1.56-4,4.71,4.71,0,0,1,4.15-.67A5.56,5.56,0,0,1,180,192.51Z"/><path class="cls-3" d="M161.47,193.53a4.14,4.14,0,0,1-4.05-1.48,4.7,4.7,0,0,1-.76-4.14A5.56,5.56,0,0,1,161.47,193.53Z"/><rect class="cls-2" x="197.77" y="161.73" width="62.4" height="39.48" rx="11.87"/><path class="cls-3" d="M104.9,201.52s-3.21-8.83-1.46-11.74,4.36,1.63,4.37,5.57,1.23-12.16,6.3-12.51.11,4.91,1.37,8,8-14.79,11.76-12.78-.35,9.06-2.62,11.75,6.47-.9,7,2.12-7.7,3-8.05,5.14,5.25,1.46,3.67,4.48Z"/><path class="cls-4" d="M233,167l.73,3,3.87,24.8H242s-.49-20.93-3.15-28.55Z"/><path class="cls-4" d="M223.8,167s-.85,23.11-2.3,27.71H217l.73-27.71Z"/><path class="cls-5" d="M216.72,191.07l5.68.65-.84,5.19s.35,3.92.27,4.83c0,0-9.19.82-11.06.29s.7-1.73,2.85-3a19,19,0,0,0,3.33-2.43S216.81,195.06,216.72,191.07Z"/><path class="cls-5" d="M236.71,191.28h5.54a37.73,37.73,0,0,1-.24,5.63,31.66,31.66,0,0,1,.78,4.71s-9.71.94-11.57.41.7-1.73,2.85-3a19.5,19.5,0,0,0,3.33-2.43S236.8,195.27,236.71,191.28Z"/><path class="cls-6" d="M223.71,94.27c-2.78.25-10,16-11.13,21.61a13,13,0,0,0,2.54,10l3.17-2.91-1.08-6.62,6.5-12S226.22,94,223.71,94.27Z"/><polygon class="cls-7" points="203.94 89.44 204.97 100.42 209.04 99.27 208.07 88.63 203.94 89.44"/><path class="cls-8" d="M231.36,91.65s1.09,0,4.72,2.45.91,22.23.91,22.23l1,10.8H220l1.54-11.34s-1.27-13.52,0-18.33S230.24,91.29,231.36,91.65Z"/><path class="cls-7" d="M232.18,78.71s0-2.45-1.91-3.06-7.23.09-8.23-.33-1.18,1.48.67,2.15c0,0-1.91.15-1.54.9a1.94,1.94,0,0,0,1.42.88s.07,1.41.67,1.66,7.41,6.89,7.41,6.89,3.47-5.34,3-7.31S232.18,78.71,232.18,78.71Z"/><path class="cls-9" d="M226.39,88.85a11.48,11.48,0,0,1-1,5.63c-.48,1.1,1.36,1.1,3.9.85s3.81-.68,3.33-1.52-2.55-8-2.55-8S226.49,88,226.39,88.85Z"/><path class="cls-4" d="M225.37,78.27s-1.9.28-2.27,3.54.55,7.63,2.27,7.63a5.75,5.75,0,0,0,5.08-5.58C230.45,80.27,228.18,77.46,225.37,78.27Z"/><path class="cls-4" d="M229.85,83.06s.42-1.33,1.51-1.33.42,3-.57,3.66-1.27.67-1.27.67Z"/><path class="cls-10" d="M234.81,93.74l-10.7,18.09-13-11.53-2.7,2.88s9.8,15.69,16.92,15.87,13.21-18.6,13.21-18.6S241,94.75,234.81,93.74Z"/><path class="cls-4" d="M210.77,101l-.72-.77s-.07-3.11-.61-3.86-.43-1.29-1-1.32.12,1.22,0,2.11c-.07.55-.19.67-.19.67s-4.5-1.46-4.74-.91.14,1,1,1.42a1.17,1.17,0,0,0,.34,1.59,1,1,0,0,0,.27,1.07.91.91,0,0,0,.54.76,11.07,11.07,0,0,0,2.44.4l.71,1Z"/><path class="cls-4" d="M217.75,122.26l2,5.81-1,3.2-3.63-5.41A3.66,3.66,0,0,1,217.75,122.26Z"/><path class="cls-7" d="M238,127.13l5.34,69.51-6.82-.45-7.94-56.9-.87-.14-5.1,57.49-6.52-.72s.76-59.81,4.13-70.06Z"/><path class="cls-2" d="M31.35,161.73H61.49a5.87,5.87,0,0,1,5.87,5.87v34.67a0,0,0,0,1,0,0H25.48a0,0,0,0,1,0,0V167.6A5.87,5.87,0,0,1,31.35,161.73Z"/><path class="cls-11" d="M55.06,121.22l6,17.11,8.73-5.12,1.34,3.6S60.15,147,58,143.26s-4.17-8-4.17-8Z"/><polygon class="cls-4" points="56.06 190.82 54.01 198.86 49.86 198.86 51.2 189.78 56.06 190.82"/><path class="cls-5" d="M54.58,196.4s5.32,4.95,5.32,6-8.47.26-10,0,.42-6.35.42-6.35Z"/><polygon class="cls-5" points="67.25 123.58 64.31 131.07 69.87 129.57 71.8 123.58 67.25 123.58"/><polygon class="cls-4" points="72.16 189.78 73.35 196.05 77.47 195.49 76.34 189.78 72.16 189.78"/><path class="cls-12" d="M73.07,194.57s.34,5.41.34,5.79,3.81.37,5.12.25,4.12.71,7,.07-4.19-4.15-8.51-7.53Z"/><path class="cls-9" d="M52.15,114.84s-.89,3.27,1.24,5.15-3.52,1.41-6,.45-3.78-2.06-2.87-2.46c2.53-1.11,4.93-8.35,4.93-8.35S52.3,113.92,52.15,114.84Z"/><path class="cls-4" d="M56.16,104.64s1.82.81,1.25,4.15S54.7,116.2,53,115.71a5.94,5.94,0,0,1-3.45-7C50.56,105.18,53.61,103,56.16,104.64Z"/><path class="cls-4" d="M50.42,107.26a1.29,1.29,0,0,0-1.32-1.09c-1.12.09-1.43,4,.51,3.75S50.42,107.26,50.42,107.26Z"/><path class="cls-7" d="M54.54,105.15a3.5,3.5,0,0,1-1.36,2.35,3.44,3.44,0,0,1-1.72.6s-.27,1.09-.68,1c0,0,.11-1.8-.35-2s-1.09-.19-1.28,1.46.84,1.64.84,1.64a3.06,3.06,0,0,1-.77,2.08,6.35,6.35,0,0,1-1.92-7.16A38.83,38.83,0,0,1,54.54,105.15Z"/><path class="cls-7" d="M51.24,105.59s6.93,3.42,9.46,3-2.9-3-2.9-3Z"/><path class="cls-13" d="M57.92,105.07s.82-3-.87-4-5-.37-5-.37-5-.82-4.81,4.4c0,0,5.92,1.73,10.57.58Z"/><path class="cls-14" d="M46,116.7s1.53,4.22,4,4.39,2.3-2.62,2.3-2.62a7.68,7.68,0,0,1,3.45,4.3c1.13,3.18-1.92,18.72-1.92,18.72v8.14l-15.58.09s-2-17.87-.47-24.71S44,116.9,46,116.7Z"/><path class="cls-15" d="M42.61,121.62l8,19.07,12.76-9.23,1.75,1.8s-9.35,12.55-15.78,13.17S39,131.71,38.42,125.72a6.45,6.45,0,0,1,.84-4.49A1.93,1.93,0,0,1,42.61,121.62Z"/><path class="cls-4" d="M63.22,131.46a31.2,31.2,0,0,1,1.47-3.05c.45-.65.83-1.68,1.43-1.68s-1,2.9-1,2.9,4.26-.33,5-.54.28.82-.47,1.06a.9.9,0,0,1-.51.93s-.33.94-.84,1.08a1.7,1.7,0,0,1-1.13.7c-.84.19-2.46.76-2.46.76l-1.75-1.81Z"/><path class="cls-16" d="M77.47,190.81s-2.8-31.68-6.62-35.47a8.46,8.46,0,0,0-5.13-2h0L54,152l-.09-2.76-15.58.51s-2.06,8,1.69,12.45C43.15,166,60.36,164,65.4,163.31c1.21,6.45,2.37,17.85,6.39,27.5Z"/><path class="cls-7" d="M53.86,149.21l-3.22,5.29a30.8,30.8,0,0,1,10.67,6c4.33,4.07-4.5,32.38-4.5,32.38l-6.45-1s.17-18.06,3.5-23.87c0,0-21.6,1.75-15.58-18.25Z"/><path class="cls-4" d="M75.28,131.63c.13-.88-.4-.89-.4-.89.09-.7-.14-1-.36-1a2.49,2.49,0,0,0,.23-1c0-.85-1.65-.78-1.84-.32s.72.57,1.16.41a10,10,0,0,1-2.42,2.11h0l-.1,0c.1-.71.23-2.06-.2-2.38-.59-.44-.4.84-.56,1.72a5.23,5.23,0,0,0-.28,2.1l-.58,1.28,1,2.76s3-1.78,3.29-2.12a10.61,10.61,0,0,0,.91-1.15A1.77,1.77,0,0,0,75.28,131.63Z"/><path class="cls-4" d="M251.86,176l10,19.22,3.84-2s-4.83-17-8.58-19.94S251.86,176,251.86,176Z"/><path class="cls-16" d="M261.9,194.91s-3.13,5.1-3.76,6.39,1.69,1,4.42-.76,5.85-2.88,5.87-3.94-3-4.29-3-4.29Z"/><path class="cls-4" d="M269.88,91.89s0-1.74,1.31-1.81a2.15,2.15,0,0,1,1.94,1,5.34,5.34,0,0,1-.29,1.82c-.27.29-1.25,1.27-1.25,1.27l-1,.3a3.1,3.1,0,0,1-1.39,0c-.42-.2-.81-.43-.81-.43Z"/><path class="cls-4" d="M267.13,175.4v21.66h4.33S275,179.73,273,175.4,267.13,175.4,267.13,175.4Z"/><path class="cls-7" d="M267.31,196.82a72.92,72.92,0,0,0-6.9,3.41c-1.15.86,1.67,2.19,4.89,1.9s6.53.14,7-.79-.81-4.6-.81-4.6Z"/><polygon class="cls-5" points="244.58 94.48 248.21 100.82 245.02 102.71 241.45 96.31 244.58 94.48"/><path class="cls-4" d="M245.37,102.71a62,62,0,0,1,7.81,11.48L258.84,103l2.16,6.83s-4.12,7.64-6.15,9.67c-1.43,1.42-3.7-.11-5.42-3.2C247.56,113,244,104.06,244,104.06Z"/><path class="cls-17" d="M271.92,100.34s6.59,2.78,6.59,6.9S274.76,119,274.76,119a49.87,49.87,0,0,1,4.5,13.85,48.31,48.31,0,0,1-14,1.75c-8.11-.12-11.29-2.84-11.29-2.84,1.63-8.93,6.92-17.25,6.92-17.25a26.09,26.09,0,0,1-2.74-9.11c-.38-4.74,6.13-5.34,6.13-5.34Z"/><path class="cls-9" d="M266.08,96.31s-.05,3.39-2.61,4.61,3,2.33,5.62,2.08,3.93-.71,3.43-1.57-3.68-7-3.68-7S266.19,95.39,266.08,96.31Z"/><path class="cls-4" d="M265,85.4s-2,.28-2.34,3.65.56,7.87,2.34,7.87a5.93,5.93,0,0,0,5.24-5.76C270.27,87.46,267.93,84.56,265,85.4Z"/><path class="cls-4" d="M244.18,104.47s-1.83-4.15-1.89-4.53a2.54,2.54,0,0,1,1-2c.74-.53,1.24-.93,1.33-.53s-1.34,1.5-1.34,1.5l.2.35s2.11-1.16,2.57-1-1.62,1.28-1.62,1.28,1.87-.88,2.06-.44-1.84,1.15-1.84,1.15,1.74,0,1.85.29-1.48.49-1.48.49a4.94,4.94,0,0,1,.61,2.21C245.47,104.15,244.18,104.47,244.18,104.47Z"/><path class="cls-7" d="M256.49,123.32c-11.66,21.9-4.43,37-11.66,46.05-4.37,5.45-2,9,4.64,7.6s9.56,3,14.51,3.16,6-2.8,10.19-2.45,8.75.17,10.85-2.8-7.19-14.58-5-24.15c3-13.39-3.32-27.41-3.32-27.41C263.69,126.53,256.49,123.32,256.49,123.32Z"/><path class="cls-4" d="M276.48,103l-10.8,13.3L254.22,104l-1.31,2.18s8,14.73,12.9,14.67c3.63,0,9.31-7.4,11.95-11.12a4.69,4.69,0,0,0-1.2-6.65Z"/><path class="cls-4" d="M254.35,104.39a18.73,18.73,0,0,0-1.73-3.83,3.13,3.13,0,0,0-2.21-.69c-.33.1.77.83,1.46.94,0,0-2,.25-2,.84s.4.46.4.46-.73.6-.18,1a.93.93,0,0,0,.25,1.32c.77.65.81.18.81.18s.94,1.83,2.08,2S254.35,104.39,254.35,104.39Z"/><path class="cls-7" d="M264.07,83.91s-2.42.86-2.56,3,3,1.32,3,1.32a2.9,2.9,0,0,0,1.91,1.11,3.59,3.59,0,0,0,2.49-.52s.2,2.42,1,2.69.2-1.18,1.65-1.12,1.05,2.89-.33,3.41a4.67,4.67,0,0,1-1.91.46l-.61.76a2.52,2.52,0,0,0,3,1.88c2.56-.41,2.5-1.85,3.68-1.46s3.15.27,3.28-.45,1.31.45,2.69-.86,1.12-2.16,0-2.49-1.47-1.84-2.14-2.43-3-.46-3-.46a1.53,1.53,0,0,0-1.11-1.71c-1.38-.52-1.37-2.29-3.25-2.56C271.92,84.5,268.14,81.35,264.07,83.91Z"/><rect class="cls-18" x="130.96" y="159.48" width="7.54" height="42.04"/><rect class="cls-19" x="75.96" width="121.41" height="159.48" rx="7.22"/><rect class="cls-2" x="82.3" y="6.4" width="108.3" height="146.68" rx="5.78"/><rect class="cls-20" x="97.32" y="31.73" width="78.02" height="81.88" rx="7.3"/><path class="cls-21" d="M101.13,37.26V56.15h19.42V37.26Zm17,16.87H103.45V39.27h14.63Z"/><rect class="cls-21" x="105.94" y="41.22" width="9.8" height="10.98"/><polygon class="cls-21" points="124.29 68.5 124.29 64.75 128.47 64.75 128.47 60.41 123.83 60.41 123.83 64.39 115.01 64.39 115.01 67.72 112.07 67.72 112.07 61.35 103.6 61.35 103.6 68.73 111.61 68.73 111.61 72.06 116.35 72.06 116.35 68.73 124.29 68.73 124.29 72.84 128.93 72.84 128.93 68.5 124.29 68.5"/><polygon class="cls-21" points="129.52 57.45 129.52 51.37 135.07 51.37 135.07 44.93 129.52 44.93 129.52 38.49 123.37 38.49 123.37 44.93 128.93 44.93 128.93 48.97 123.37 48.97 123.37 58.17 129.52 58.17 129.52 60.78 140.44 60.78 140.44 57.45 129.52 57.45"/><rect class="cls-21" x="114.04" y="78.43" width="17.96" height="3.33"/><rect class="cls-21" x="133.5" y="53.57" width="2.89" height="2.57"/><rect class="cls-21" x="131.1" y="40.43" width="2.89" height="2.57"/><path class="cls-21" d="M150.89,37.26V56.15h19.43V37.26Zm2.48,2H168V54.13H153.37Z"/><rect class="cls-21" x="155.71" y="41.22" width="9.8" height="10.98" transform="translate(321.21 93.41) rotate(180)"/><polygon class="cls-21" points="146.91 68.5 146.91 64.75 142.95 64.75 142.95 60.41 147.35 60.41 147.35 64.39 155.71 64.39 155.71 67.72 158.49 67.72 158.49 61.35 166.52 61.35 166.52 68.73 158.93 68.73 158.93 72.06 154.44 72.06 154.44 68.73 146.91 68.73 146.91 72.84 142.52 72.84 142.52 68.5 146.91 68.5"/><polygon class="cls-21" points="141.92 57.45 141.92 51.37 136.37 51.37 136.37 44.93 141.92 44.93 141.92 38.49 148.07 38.49 148.07 44.93 142.52 44.93 142.52 48.97 148.07 48.97 148.07 58.17 141.92 58.17 141.92 60.78 131 60.78 131 57.45 141.92 57.45"/><rect class="cls-21" x="135.05" y="53.57" width="2.89" height="2.57" transform="translate(272.99 109.72) rotate(180)"/><rect class="cls-21" x="137.46" y="40.43" width="2.89" height="2.57" transform="translate(277.81 83.42) rotate(180)"/><rect class="cls-21" x="115.8" y="73.79" width="2.89" height="2.57"/><rect class="cls-21" x="111.15" y="76.21" width="2.89" height="2.57"/><rect class="cls-21" x="111.33" y="81.53" width="2.89" height="2.57"/><rect class="cls-21" x="122.16" y="73.79" width="2.89" height="2.57" transform="translate(247.21 150.15) rotate(180)"/><path class="cls-21" d="M170.55,108.16V89.28H151.13v18.88Zm-17-16.87h14.63v14.86H153.6Z"/><rect class="cls-21" x="155.94" y="93.23" width="9.8" height="10.98" transform="translate(321.68 197.43) rotate(180)"/><path class="cls-21" d="M120.55,108.16V89.28H101.13v18.88Zm-17-16.87h14.63v14.86H103.6Z"/><rect class="cls-21" x="105.94" y="93.23" width="9.8" height="10.98" transform="translate(221.68 197.43) rotate(180)"/><polygon class="cls-21" points="146.91 77.18 146.91 80.92 142.95 80.92 142.95 85.27 147.35 85.27 147.35 81.29 155.71 81.29 155.71 77.96 158.49 77.96 158.49 84.33 166.52 84.33 166.52 76.94 158.93 76.94 158.93 73.62 154.44 73.62 154.44 76.94 146.91 76.94 146.91 72.84 142.52 72.84 142.52 77.18 146.91 77.18"/><polygon class="cls-21" points="142.16 87.97 142.16 94.05 136.6 94.05 136.6 100.49 142.16 100.49 142.16 106.93 148.31 106.93 148.31 100.49 142.75 100.49 142.75 96.45 148.31 96.45 148.31 87.25 142.16 87.25 142.16 84.64 131.24 84.64 131.24 87.97 142.16 87.97"/><rect class="cls-21" x="135.28" y="89.28" width="2.89" height="2.57" transform="translate(273.46 181.12) rotate(180)"/><rect class="cls-21" x="137.69" y="102.42" width="2.89" height="2.57" transform="translate(278.27 207.42) rotate(180)"/><rect class="cls-21" x="131.24" y="65.1" width="4.11" height="13.69"/><rect class="cls-21" x="138.18" y="77.63" width="3.21" height="4.77"/><rect class="cls-21" x="136.73" y="64.03" width="3.85" height="8.81"/><rect class="cls-21" x="139.46" y="64.03" width="3.85" height="3.9"/><polygon class="cls-21" points="128.76 98.07 128.76 91.04 132.11 91.04 132.11 87.33 129.06 87.33 129.06 84.39 125.78 84.39 125.78 87.64 128.45 87.64 128.45 90.67 125.3 90.67 125.3 86.97 121.64 86.97 121.64 90.67 125.1 90.67 125.1 97.01 122.3 97.01 122.3 100.78 125.1 100.78 125.1 107.18 131.32 107.18 131.32 100.42 125.96 100.42 125.96 98.07 128.76 98.07"/><rect class="cls-21" x="139.78" y="72.58" width="2.09" height="2.5"/><rect class="cls-21" x="103.97" y="70.97" width="3.93" height="14.91"/><rect class="cls-22" x="120.55" y="122.68" width="28.92" height="13.75" rx="2.98"/><text class="cls-23" transform="translate(126.35 132.25)">scan</text></g></g></svg>