<svg width="66" height="66" viewBox="0 0 66 66" fill="none" xmlns="http://www.w3.org/2000/svg">
<mask id="mask0" mask-type="alpha" maskUnits="userSpaceOnUse" x="0" y="0" width="66" height="66">
<rect width="66" height="66" fill="#C4C4C4"/>
</mask>
<g mask="url(#mask0)">
<path d="M18.4263 29.12V39.909H16.0528V31.5861L13.9258 32.4646V30.3685L16.9313 29.12H18.4263Z" fill="white"/>
<path d="M23.2908 35.9479C23.2908 35.3622 23.3935 34.8177 23.599 34.3142C23.8148 33.8107 24.1077 33.3791 24.4776 33.0195C24.8475 32.6496 25.2842 32.3619 25.7877 32.1564C26.3014 31.9406 26.8511 31.8327 27.4368 31.8327C28.0225 31.8327 28.5722 31.9406 29.086 32.1564C29.5998 32.3619 30.0416 32.6496 30.4115 33.0195C30.7814 33.3791 31.0691 33.8107 31.2746 34.3142C31.4904 34.8177 31.5983 35.3622 31.5983 35.9479C31.5983 36.5336 31.4904 37.0782 31.2746 37.5817C31.0588 38.0852 30.766 38.5219 30.3961 38.8918C30.0262 39.2514 29.5843 39.5391 29.0706 39.7549C28.5671 39.9604 28.0225 40.0632 27.4368 40.0632C26.8511 40.0632 26.3014 39.9604 25.7877 39.7549C25.2842 39.5391 24.8475 39.2463 24.4776 38.8764C24.1077 38.5065 23.8148 38.0698 23.599 37.5663C23.3935 37.0628 23.2908 36.5233 23.2908 35.9479ZM27.4368 37.9516C27.9403 37.9516 28.3513 37.7666 28.6699 37.3967C28.9987 37.0166 29.1631 36.5336 29.1631 35.9479C29.1631 35.3622 28.9987 34.8793 28.6699 34.4991C28.3513 34.1087 27.9403 33.9134 27.4368 33.9134C26.9333 33.9134 26.5223 34.1087 26.2038 34.4991C25.8853 34.8793 25.726 35.3622 25.726 35.9479C25.726 36.5336 25.8853 37.0166 26.2038 37.3967C26.5223 37.7666 26.9333 37.9516 27.4368 37.9516Z" fill="white"/>
<path d="M32.4844 31.956H34.1336V30.9079C34.1336 29.9626 34.4059 29.2382 34.9505 28.7347C35.5053 28.2312 36.2914 27.9795 37.3086 27.9795C37.5244 27.9795 37.7556 27.9949 38.0022 28.0257C38.2591 28.0566 38.4697 28.0925 38.6341 28.1336V30.1835C38.4081 30.1424 38.2231 30.1167 38.0793 30.1065C37.9457 30.0962 37.8121 30.0911 37.6785 30.0911C37.3292 30.0911 37.0672 30.163 36.8925 30.3068C36.7178 30.4507 36.6305 30.6665 36.6305 30.9542V31.956H38.6341V33.8826H36.6305V39.909H34.1336V33.8826H32.4844V31.956Z" fill="white"/>
<path d="M51.4238 36.8573C51.4238 37.3197 51.3159 37.7512 51.1001 38.152C50.8843 38.5424 50.5864 38.8815 50.2062 39.1692C49.826 39.4466 49.3687 39.6676 48.8344 39.832C48.3104 39.9861 47.735 40.0632 47.1082 40.0632C46.2451 40.0632 45.4385 39.909 44.6884 39.6008C43.9383 39.2925 43.3269 38.8661 42.8542 38.3215L44.4572 36.8419C44.8579 37.2734 45.2484 37.5714 45.6286 37.7358C46.0087 37.9002 46.4917 37.9824 47.0774 37.9824C47.6631 37.9824 48.1306 37.8643 48.4799 37.6279C48.8396 37.3813 49.0194 37.0577 49.0194 36.6569C49.0194 36.3178 48.8909 36.0507 48.6341 35.8555C48.3772 35.65 48.033 35.5472 47.6014 35.5472H46.2142V33.5898H47.3548C47.7966 33.5898 48.1409 33.487 48.3875 33.2815C48.6341 33.0657 48.7574 32.7677 48.7574 32.3876C48.7574 32.0074 48.593 31.694 48.2642 31.4474C47.9456 31.1905 47.5449 31.0621 47.062 31.0621C46.5379 31.0621 46.0909 31.1545 45.721 31.3395C45.3614 31.5142 44.9709 31.8327 44.5497 32.2951L42.9313 30.8309C43.4348 30.2452 44.0616 29.7879 44.8117 29.4591C45.572 29.12 46.353 28.9505 47.1544 28.9505C47.7401 28.9505 48.2796 29.0276 48.7728 29.1817C49.266 29.3358 49.6873 29.5516 50.0366 29.829C50.386 30.0962 50.6583 30.425 50.8535 30.8155C51.0487 31.1956 51.1464 31.6118 51.1464 32.0639C51.1464 32.6496 50.9563 33.1633 50.5761 33.6052C50.2062 34.047 49.7181 34.3553 49.1119 34.53C49.8106 34.6635 50.3706 34.941 50.7919 35.3622C51.2131 35.7733 51.4238 36.2716 51.4238 36.8573Z" fill="white"/>
<circle cx="32.9621" cy="32.9924" r="30.4621" stroke="white" stroke-width="3"/>
<path d="M61.2893 32.091C61.0587 25.1519 58.2981 18.2917 53.0033 12.9969C47.7085 7.70213 40.8483 4.94156 33.9092 4.71098L34.0294 1.09463C41.8496 1.35449 49.5926 4.46907 55.5619 10.4384C61.5312 16.4077 64.6458 24.1506 64.9056 31.9708L61.2893 32.091Z" fill="#4CC8EC"/>
</g>
</svg>
