<svg width="66" height="66" viewBox="0 0 66 66" fill="none" xmlns="http://www.w3.org/2000/svg">
<mask id="mask0" mask-type="alpha" maskUnits="userSpaceOnUse" x="0" y="0" width="66" height="66">
<rect width="66" height="66" fill="#C4C4C4"/>
</mask>
<g mask="url(#mask0)">
<path d="M12.5351 39.7129V38.0249L17.0774 33.5287C17.3229 33.2831 17.5019 33.0478 17.6145 32.8228C17.7372 32.5875 17.7986 32.3471 17.7986 32.1015C17.7986 31.7537 17.6452 31.4672 17.3383 31.2422C17.0416 31.0069 16.6682 30.8892 16.218 30.8892C15.7372 30.8892 15.2871 30.9915 14.8676 31.1961C14.4482 31.4007 13.9929 31.7383 13.5019 32.2089L12.1821 30.5977C12.796 30.0145 13.4507 29.5746 14.1464 29.2779C14.842 28.9813 15.5582 28.8329 16.2947 28.8329C17.4303 28.8329 18.3459 29.1194 19.0416 29.6923C19.7475 30.2652 20.1005 31.0171 20.1005 31.9481C20.1005 32.4494 19.9879 32.92 19.7629 33.3599C19.5378 33.7998 19.1848 34.255 18.704 34.7256L15.6042 37.718L20.2539 37.7027V39.7129H12.5351Z" fill="white"/>
<path d="M24.8196 35.7691C24.8196 35.186 24.9219 34.6438 25.1265 34.1425C25.3413 33.6412 25.6329 33.2115 26.0012 32.8535C26.3695 32.4852 26.8043 32.1987 27.3056 31.9941C27.8171 31.7793 28.3644 31.6718 28.9476 31.6718C29.5307 31.6718 30.078 31.7793 30.5895 31.9941C31.1011 32.1987 31.541 32.4852 31.9093 32.8535C32.2775 33.2115 32.564 33.6412 32.7686 34.1425C32.9834 34.6438 33.0909 35.186 33.0909 35.7691C33.0909 36.3523 32.9834 36.8945 32.7686 37.3958C32.5538 37.897 32.2622 38.3318 31.8939 38.7001C31.5256 39.0582 31.0857 39.3446 30.5742 39.5595C30.0729 39.7641 29.5307 39.8664 28.9476 39.8664C28.3644 39.8664 27.8171 39.7641 27.3056 39.5595C26.8043 39.3446 26.3695 39.0531 26.0012 38.6848C25.6329 38.3165 25.3413 37.8817 25.1265 37.3804C24.9219 36.8791 24.8196 36.342 24.8196 35.7691ZM28.9476 37.7641C29.4488 37.7641 29.8581 37.5799 30.1752 37.2116C30.5026 36.8331 30.6663 36.3523 30.6663 35.7691C30.6663 35.186 30.5026 34.7052 30.1752 34.3266C29.8581 33.9379 29.4488 33.7435 28.9476 33.7435C28.4463 33.7435 28.0371 33.9379 27.7199 34.3266C27.4028 34.7052 27.2442 35.186 27.2442 35.7691C27.2442 36.3523 27.4028 36.8331 27.7199 37.2116C28.0371 37.5799 28.4463 37.7641 28.9476 37.7641Z" fill="white"/>
<path d="M33.9731 31.7946H35.6151V30.7511C35.6151 29.8099 35.8862 29.0887 36.4284 28.5874C36.9809 28.0861 37.7635 27.8354 38.7763 27.8354C38.9911 27.8354 39.2213 27.8508 39.4668 27.8815C39.7226 27.9122 39.9323 27.948 40.096 27.9889V30.0299C39.8709 29.9889 39.6868 29.9634 39.5436 29.9531C39.4106 29.9429 39.2776 29.9378 39.1446 29.9378C38.7968 29.9378 38.5359 30.0094 38.362 30.1526C38.188 30.2959 38.1011 30.5107 38.1011 30.7972V31.7946H40.096V33.7128H38.1011V39.7129H35.6151V33.7128H33.9731V31.7946Z" fill="white"/>
<path d="M52.8299 36.6745C52.8299 37.1349 52.7224 37.5646 52.5076 37.9635C52.2928 38.3523 51.9961 38.6899 51.6176 38.9764C51.239 39.2526 50.7838 39.4725 50.2518 39.6362C49.7301 39.7897 49.1572 39.8664 48.5331 39.8664C47.6737 39.8664 46.8707 39.7129 46.1238 39.406C45.377 39.0991 44.7683 38.6746 44.2977 38.1323L45.8937 36.6592C46.2926 37.0888 46.6814 37.3855 47.0599 37.5492C47.4384 37.7129 47.9193 37.7947 48.5024 37.7947C49.0855 37.7947 49.551 37.6771 49.8989 37.4418C50.2569 37.1963 50.4359 36.874 50.4359 36.475C50.4359 36.1374 50.3081 35.8714 50.0523 35.6771C49.7966 35.4724 49.4538 35.3701 49.0242 35.3701H47.6431V33.4212H48.7786C49.2185 33.4212 49.5612 33.3189 49.8068 33.1143C50.0523 32.8995 50.1751 32.6028 50.1751 32.2243C50.1751 31.8458 50.0114 31.5337 49.684 31.2882C49.3669 31.0324 48.9679 30.9046 48.4871 30.9046C47.9653 30.9046 47.5203 30.9966 47.152 31.1808C46.7939 31.3547 46.4052 31.6718 45.9857 32.1322L44.3744 30.6744C44.8757 30.0913 45.4998 29.636 46.2466 29.3086C47.0037 28.971 47.7812 28.8022 48.5791 28.8022C49.1623 28.8022 49.6994 28.879 50.1904 29.0324C50.6815 29.1859 51.1009 29.4007 51.4488 29.6769C51.7966 29.9429 52.0677 30.2703 52.2621 30.659C52.4565 31.0376 52.5536 31.4519 52.5536 31.902C52.5536 32.4852 52.3644 32.9967 51.9859 33.4366C51.6176 33.8765 51.1316 34.1834 50.528 34.3573C51.2237 34.4903 51.7812 34.7665 52.2007 35.186C52.6201 35.5952 52.8299 36.0914 52.8299 36.6745Z" fill="white"/>
<circle cx="32.8226" cy="32.827" r="30.3226" stroke="white" stroke-width="3"/>
<path d="M61.0264 31.9288C60.7969 25.02 58.0483 18.1897 52.7766 12.918C47.505 7.64629 40.6747 4.89778 33.7659 4.6682L33.8855 1.06762C41.6716 1.32635 49.3808 4.42734 55.324 10.3706C61.2673 16.3138 64.3683 24.023 64.627 31.8091L61.0264 31.9288Z" fill="#4CC8EC"/>
<path d="M34.0712 61.6807C40.98 61.4512 47.8103 58.7026 53.082 53.4309C58.3537 48.1592 61.1022 41.329 61.3318 34.4202L64.9324 34.5398C64.6736 42.3259 61.5727 50.0351 55.6294 55.9783C49.6862 61.9216 41.977 65.0226 34.1909 65.2813L34.0712 61.6807Z" fill="#4CC8EC"/>
</g>
</svg>
