<svg width="132" height="132" viewBox="0 0 132 132" fill="none" xmlns="http://www.w3.org/2000/svg">
<mask id="mask0" mask-type="alpha" maskUnits="userSpaceOnUse" x="0" y="0" width="132" height="132">
<rect width="132" height="132" fill="#C4C4C4"/>
</mask>
<g mask="url(#mask0)">
<circle cx="66" cy="66" r="61.5" stroke="#1D1652" stroke-width="3"/>
<path d="M92.375 45.5L59.5 78.375L47.5 66.25C46.875 65.75 45.875 65.75 45.375 66.25L41.75 69.875C41.25 70.375 41.25 71.375 41.75 72L58.5 88.625C59.125 89.25 60 89.25 60.625 88.625L98.125 51.125C98.625 50.625 98.625 49.625 98.125 49L94.5 45.5C94 44.875 93 44.875 92.375 45.5Z" fill="#4CC8EC"/>
<path d="M123.759 67.7712C123.267 52.9462 117.369 38.2897 106.057 26.9777C94.745 15.6656 80.0885 9.76786 65.2635 9.27523L65.5202 1.54909C82.2277 2.10427 98.7701 8.75839 111.523 21.5115C124.276 34.2645 130.93 50.807 131.486 67.5144L123.759 67.7712Z" fill="#4CC8EC"/>
</g>
</svg>
