<svg width="51" height="51" viewBox="0 0 51 51" fill="none" xmlns="http://www.w3.org/2000/svg">
<path fill-rule="evenodd" clip-rule="evenodd" d="M38 16.5714V21.7143C38 22.1877 37.6162 22.5714 37.1429 22.5714H14.8571C14.3838 22.5714 14 22.1877 14 21.7143V16.5714C14 15.1513 15.1513 14 16.5714 14H27.7143C28.1877 14 28.5714 14.3838 28.5714 14.8571C28.5714 15.3305 28.1877 15.7143 27.7143 15.7143H16.5714C16.098 15.7143 15.7143 16.098 15.7143 16.5714V20.8571H36.2857V16.5714C36.2857 16.098 35.902 15.7143 35.4286 15.7143H31.1429C30.6695 15.7143 30.2857 15.3305 30.2857 14.8571C30.2857 14.3838 30.6695 14 31.1429 14H35.4286C36.8487 14 38 15.1513 38 16.5714ZM14.8571 24.2857H21.7143C22.1877 24.2857 22.5714 24.6695 22.5714 25.1429V37.1429C22.5714 37.6162 22.1877 38 21.7143 38H16.5714C15.1513 38 14 36.8487 14 35.4286V25.1429C14 24.6695 14.3838 24.2857 14.8571 24.2857ZM16.5714 36.2857H20.8571V26H15.7143V35.4286C15.7143 35.902 16.098 36.2857 16.5714 36.2857ZM38 28.5714V25.1429C38 24.6695 37.6162 24.2857 37.1429 24.2857H25.1429C24.6695 24.2857 24.2857 24.6695 24.2857 25.1429V37.1429C24.2857 37.6162 24.6695 38 25.1429 38H35.4286C36.8487 38 38 36.8487 38 35.4286V32C38 31.5266 37.6162 31.1429 37.1429 31.1429C36.6695 31.1429 36.2857 31.5266 36.2857 32V35.4286C36.2857 35.902 35.902 36.2857 35.4286 36.2857H26V26H36.2857V28.5714C36.2857 29.0448 36.6695 29.4286 37.1429 29.4286C37.6162 29.4286 38 29.0448 38 28.5714Z" fill="white"/>
</svg>
