<svg width="51" height="51" viewBox="0 0 51 51" fill="none" xmlns="http://www.w3.org/2000/svg">
<path fill-rule="evenodd" clip-rule="evenodd" d="M34.2186 36H16.7814C15.2302 36 14 34.6992 14 33.1274V18.8184C14 17.2466 15.2302 16 16.7814 16H23.7674C24.0884 16 24.3023 16.2168 24.3023 16.542C24.3023 16.8672 24.0884 17.084 23.7674 17.084L16.7814 17.1382C15.8186 17.1382 15.0698 17.897 15.0698 18.8726V33.1816C15.0698 34.1572 15.8186 34.916 16.7814 34.916H34.2186C35.1814 34.916 35.9302 34.1572 35.9302 33.1816V27.3821C35.9302 27.0569 36.1442 26.8401 36.4651 26.8401C36.786 26.8401 37 27.0569 37 27.3821V33.1816C37 34.7534 35.7698 36 34.2186 36ZM33.5085 16.224L36.7712 19.5844C37.0387 19.9096 37.0387 20.3974 36.7712 20.6684L33.5085 24.0289C33.4015 24.1373 33.2945 24.1915 33.134 24.1915C32.9736 24.1915 32.8666 24.1373 32.7596 24.0289C32.5457 23.812 32.5457 23.4868 32.7596 23.27L35.2736 20.6684H26.5015C23.934 20.6684 21.9015 22.7822 21.9015 25.3297V27.2809C21.9015 27.6061 21.6875 27.8229 21.3666 27.8229C21.0457 27.8229 20.8317 27.6061 20.8317 27.2809V25.3297C20.8317 22.1318 23.3992 19.5844 26.5015 19.5844H35.2736L32.7596 16.9828C32.5457 16.766 32.5457 16.4408 32.7596 16.224C32.9736 16.0072 33.2945 16.0072 33.5085 16.224Z" fill="#C1BEBE"/>
<path d="M23.7674 17.084V16.784L23.7651 16.784L23.7674 17.084ZM16.7814 17.1382V17.4382L16.7837 17.4382L16.7814 17.1382ZM36.7712 19.5844L37.003 19.3939L36.9951 19.3843L36.9865 19.3754L36.7712 19.5844ZM33.5085 16.224L33.7237 16.015L33.722 16.0132L33.5085 16.224ZM36.7712 20.6684L36.5577 20.4577L36.556 20.4594L36.7712 20.6684ZM33.5085 24.0289L33.722 24.2396L33.7237 24.2378L33.5085 24.0289ZM32.7596 24.0289L32.5461 24.2396V24.2396L32.7596 24.0289ZM32.7596 23.27L32.9732 23.4808L32.9754 23.4785L32.7596 23.27ZM35.2736 20.6684L35.4893 20.8769L35.9806 20.3684H35.2736V20.6684ZM35.2736 19.5844V19.8844H35.9806L35.4893 19.3759L35.2736 19.5844ZM32.7596 16.9828L32.9754 16.7743L32.9731 16.7721L32.7596 16.9828ZM32.7596 16.224L32.5461 16.0132V16.0132L32.7596 16.224ZM16.7814 36.3H34.2186V35.7H16.7814V36.3ZM13.7 33.1274C13.7 34.8536 15.0535 36.3 16.7814 36.3V35.7C15.407 35.7 14.3 34.5448 14.3 33.1274H13.7ZM13.7 18.8184V33.1274H14.3V18.8184H13.7ZM16.7814 15.7C15.0608 15.7 13.7 17.0847 13.7 18.8184H14.3C14.3 17.4085 15.3996 16.3 16.7814 16.3V15.7ZM23.7674 15.7H16.7814V16.3H23.7674V15.7ZM24.6023 16.542C24.6023 16.3124 24.5256 16.0972 24.3688 15.9383C24.2116 15.7791 23.9973 15.7 23.7674 15.7V16.3C23.8585 16.3 23.9117 16.3293 23.9417 16.3598C23.9721 16.3906 24.0023 16.4464 24.0023 16.542H24.6023ZM23.7674 17.384C23.9973 17.384 24.2116 17.305 24.3688 17.1457C24.5256 16.9868 24.6023 16.7716 24.6023 16.542H24.0023C24.0023 16.6376 23.9721 16.6935 23.9417 16.7242C23.9117 16.7547 23.8585 16.784 23.7674 16.784V17.384ZM16.7837 17.4382L23.7698 17.384L23.7651 16.784L16.7791 16.8382L16.7837 17.4382ZM15.3698 18.8726C15.3698 18.059 15.988 17.4382 16.7814 17.4382V16.8382C15.6492 16.8382 14.7698 17.7351 14.7698 18.8726H15.3698ZM15.3698 33.1816V18.8726H14.7698V33.1816H15.3698ZM16.7814 34.616C15.988 34.616 15.3698 33.9952 15.3698 33.1816H14.7698C14.7698 34.3191 15.6492 35.216 16.7814 35.216V34.616ZM34.2186 34.616H16.7814V35.216H34.2186V34.616ZM35.6302 33.1816C35.6302 33.9952 35.012 34.616 34.2186 34.616V35.216C35.3508 35.216 36.2302 34.3191 36.2302 33.1816H35.6302ZM35.6302 27.3821V33.1816H36.2302V27.3821H35.6302ZM36.4651 26.5401C36.2353 26.5401 36.021 26.6192 35.8638 26.7784C35.707 26.9374 35.6302 27.1525 35.6302 27.3821H36.2302C36.2302 27.2865 36.2605 27.2307 36.2909 27.1999C36.3209 27.1695 36.374 27.1401 36.4651 27.1401V26.5401ZM37.3 27.3821C37.3 27.1525 37.2233 26.9374 37.0664 26.7784C36.9093 26.6192 36.695 26.5401 36.4651 26.5401V27.1401C36.5562 27.1401 36.6094 27.1695 36.6394 27.1999C36.6698 27.2307 36.7 27.2865 36.7 27.3821H37.3ZM37.3 33.1816V27.3821H36.7V33.1816H37.3ZM34.2186 36.3C35.9392 36.3 37.3 34.9153 37.3 33.1816H36.7C36.7 34.5915 35.6004 35.7 34.2186 35.7V36.3ZM36.9865 19.3754L33.7237 16.015L33.2932 16.433L36.556 19.7934L36.9865 19.3754ZM36.9848 20.8791C37.3768 20.4819 37.3521 19.8184 37.003 19.3939L36.5395 19.775C36.7252 20.0008 36.7005 20.313 36.5577 20.4577L36.9848 20.8791ZM33.7237 24.2378L36.9865 20.8774L36.556 20.4594L33.2932 23.8199L33.7237 24.2378ZM33.134 24.4915C33.2498 24.4915 33.3597 24.4715 33.4645 24.4243C33.5679 24.3778 33.651 24.3115 33.722 24.2396L33.2949 23.8181C33.259 23.8546 33.2351 23.8696 33.2181 23.8773C33.2025 23.8843 33.1787 23.8915 33.134 23.8915V24.4915ZM32.5461 24.2396C32.6171 24.3115 32.7002 24.3778 32.8036 24.4243C32.9084 24.4715 33.0183 24.4915 33.134 24.4915V23.8915C33.0893 23.8915 33.0655 23.8843 33.05 23.8773C33.033 23.8696 33.0091 23.8546 32.9731 23.8181L32.5461 24.2396ZM32.5461 23.0593C32.2168 23.3929 32.2168 23.9059 32.5461 24.2396L32.9731 23.8181C32.8745 23.7182 32.8745 23.5807 32.9731 23.4808L32.5461 23.0593ZM35.0578 20.46L32.5439 23.0616L32.9754 23.4785L35.4893 20.8769L35.0578 20.46ZM26.5015 20.9684H35.2736V20.3684H26.5015V20.9684ZM22.2015 25.3297C22.2015 22.9419 24.1057 20.9684 26.5015 20.9684V20.3684C23.7624 20.3684 21.6015 22.6226 21.6015 25.3297H22.2015ZM22.2015 27.2809V25.3297H21.6015V27.2809H22.2015ZM21.3666 28.1229C21.5964 28.1229 21.8107 28.0438 21.9679 27.8846C22.1247 27.7256 22.2015 27.5105 22.2015 27.2809H21.6015C21.6015 27.3765 21.5712 27.4323 21.5409 27.4631C21.5108 27.4935 21.4577 27.5229 21.3666 27.5229V28.1229ZM20.5317 27.2809C20.5317 27.5105 20.6084 27.7256 20.7653 27.8846C20.9225 28.0438 21.1368 28.1229 21.3666 28.1229V27.5229C21.2755 27.5229 21.2224 27.4935 21.1923 27.4631C21.162 27.4323 21.1317 27.3765 21.1317 27.2809H20.5317ZM20.5317 25.3297V27.2809H21.1317V25.3297H20.5317ZM26.5015 19.2844C23.2316 19.2844 20.5317 21.968 20.5317 25.3297H21.1317C21.1317 22.2956 23.5667 19.8844 26.5015 19.8844V19.2844ZM35.2736 19.2844H26.5015V19.8844H35.2736V19.2844ZM32.5439 17.1912L35.0578 19.7929L35.4893 19.3759L32.9754 16.7743L32.5439 17.1912ZM32.5461 16.0132C32.2168 16.3469 32.2168 16.8599 32.5461 17.1935L32.9731 16.7721C32.8745 16.6721 32.8745 16.5347 32.9731 16.4347L32.5461 16.0132ZM33.722 16.0132C33.3906 15.6774 32.8775 15.6774 32.5461 16.0132L32.9731 16.4347C33.0696 16.3369 33.1984 16.3369 33.2949 16.4347L33.722 16.0132Z" fill="#C1BEBE"/>
</svg>
