<svg width="51" height="51" viewBox="0 0 51 51" fill="none" xmlns="http://www.w3.org/2000/svg">
<path fill-rule="evenodd" clip-rule="evenodd" d="M22.9719 24.057C22.9639 23.9048 22.8351 23.7783 22.683 23.78C20.0614 23.8108 17.3201 24.3847 14.7663 26.9385L14.3634 27.3414C14.1406 27.5636 14.1406 27.925 14.3634 28.1478L15.1693 28.9537C15.3915 29.1759 15.7523 29.1759 15.9751 28.9537L16.378 28.5502C18.4103 26.5179 20.5031 26.0608 22.7873 26.0528C22.9497 26.0522 23.0802 25.9189 23.0711 25.7559C23.0608 25.5752 23.0506 25.3917 23.038 25.2019C23.0146 24.8292 22.9913 24.4474 22.9719 24.057ZM36.8333 21.9364L36.0274 21.1306C35.8052 20.9083 35.4444 20.9083 35.2216 21.1306L34.8186 21.5335C32.7863 23.5664 30.6931 24.0229 28.4089 24.0314C28.2459 24.0314 28.1154 24.1648 28.1245 24.3278C28.1347 24.5084 28.1456 24.6919 28.1575 24.8811C28.1809 25.2544 28.2048 25.6368 28.2236 26.0278C28.2316 26.18 28.3604 26.3065 28.5126 26.3042C31.1353 26.274 33.8766 25.7001 36.4303 23.1452L36.8333 22.7428C37.0561 22.5206 37.0561 22.1593 36.8333 21.9364Z" fill="#C1BEBE"/>
<path fill-rule="evenodd" clip-rule="evenodd" d="M29.1015 16.8255C29.2548 16.6522 29.4166 16.4801 29.5899 16.3063L29.9928 15.9033C30.2156 15.6805 30.2156 15.3198 29.9928 15.0975L29.187 14.2916C28.9647 14.0688 28.6039 14.0688 28.3811 14.2916L27.9782 14.6946C24.4624 18.2103 24.4596 21.8395 24.4573 25.0407C24.4561 26.6285 24.4544 28.1074 24.092 29.547L22.1987 27.6543C21.92 27.3762 21.4692 27.3762 21.1911 27.6543C20.913 27.9324 20.913 28.3838 21.1911 28.6619L23.5659 31.0362C23.3328 31.5417 23.0342 32.0455 22.6615 32.5504L21.1336 31.0213C20.8549 30.7432 20.4041 30.7432 20.126 31.0213C19.8479 31.2995 19.8479 31.7503 20.126 32.0289L21.7348 33.6378C21.6898 33.6845 21.6505 33.7307 21.6037 33.7774L21.2008 34.1803C20.978 34.4032 20.978 34.7639 21.2008 34.9862L22.0067 35.7921C22.2289 36.0149 22.5897 36.0149 22.8125 35.7921L23.2154 35.3891C26.7312 31.8734 26.7341 28.2442 26.7369 25.043C26.7381 23.6763 26.7398 22.3918 26.9712 21.142L28.6883 22.8602C28.8279 22.9993 29.0103 23.0688 29.1921 23.0688C29.3745 23.0688 29.5568 22.9993 29.6959 22.8602C29.974 22.5821 29.974 22.1313 29.6959 21.8526L27.4088 19.5662C27.6134 19.0304 27.8796 18.4987 28.2278 17.9664L29.9313 19.6699C30.0703 19.8089 30.2527 19.8785 30.4351 19.8785C30.6169 19.8785 30.7992 19.8089 30.9389 19.6699C31.217 19.3918 31.217 18.941 30.9389 18.6628L29.1015 16.8255ZM19.1127 29.0009C18.834 28.7228 18.3832 28.7228 18.1051 29.0009C17.827 29.2796 17.827 29.7304 18.1051 30.0085L18.5547 30.4576C18.6938 30.5967 18.8762 30.6662 19.0585 30.6662C19.2403 30.6662 19.4233 30.5967 19.5623 30.4576C19.8404 30.1795 19.8404 29.7287 19.5623 29.45L19.1127 29.0009ZM33.1216 20.8456L32.403 20.1264C32.1249 19.8483 31.6735 19.8483 31.3948 20.1258C31.1167 20.4045 31.1167 20.8553 31.3948 21.134L32.1135 21.8526C32.2525 21.9917 32.4355 22.0618 32.6178 22.0618C32.7996 22.0618 32.9826 21.9917 33.1216 21.8532C33.3997 21.5745 33.3997 21.1237 33.1216 20.8456Z" fill="#C1BEBE"/>
</svg>
