<svg width="51" height="51" viewBox="0 0 51 51" fill="none" xmlns="http://www.w3.org/2000/svg">
<path fill-rule="evenodd" clip-rule="evenodd" d="M30.7942 20.4732C30.0479 19.5237 29.0559 19 28.0003 19C26.9441 19 25.9521 19.5237 25.2058 20.4732C24.9314 20.8223 24.9314 21.389 25.2058 21.7381C25.4803 22.0873 25.9257 22.0873 26.2001 21.7381C26.6809 21.1264 27.3198 20.7887 28.0003 20.7887C28.6802 20.7887 29.3191 21.1264 29.7999 21.7381C29.9377 21.9127 30.1171 22 30.297 22C30.477 22 30.6569 21.9127 30.7942 21.7381C31.0686 21.389 31.0686 20.8223 30.7942 20.4732Z" fill="#C1BEBE"/>
<path fill-rule="evenodd" clip-rule="evenodd" d="M31.3147 26.4273C30.4106 27.3314 29.2079 27.8293 27.9286 27.8293C26.6499 27.8293 25.4472 27.3314 24.5431 26.4273C23.639 25.5231 23.1404 24.3205 23.1404 23.0412C23.1404 21.7625 23.639 20.5598 24.5431 19.6557C25.4472 18.751 26.6499 18.253 27.9286 18.253C29.2079 18.253 30.4106 18.751 31.3147 19.6557C32.2188 20.5598 32.7168 21.7625 32.7168 23.0412C32.7168 24.3205 32.2188 25.5231 31.3147 26.4273ZM32.9078 18.0623C31.5333 16.6878 29.7307 16 27.9286 16C26.1272 16 24.3245 16.6878 22.9495 18.0623C20.5413 20.4716 20.2428 24.1906 22.0544 26.9249L20.7593 28.22L20.5599 28.0206C20.4501 27.9107 20.2715 27.9107 20.1617 28.0206L15.5808 32.6014C15.3611 32.8217 15.3611 33.1777 15.5808 33.398L17.1738 34.991C17.3941 35.2113 17.7507 35.2113 17.9709 34.991L22.5512 30.4101C22.6616 30.3003 22.6616 30.1223 22.5512 30.0119L22.3524 29.813L23.5866 28.5788C24.8586 29.5787 26.3925 30.0829 27.9286 30.0829C29.7307 30.0829 31.5333 29.3956 32.9078 28.0206C35.6579 25.2705 35.6579 20.8124 32.9078 18.0623Z" fill="#C1BEBE"/>
</svg>
