<svg width="51" height="51" viewBox="0 0 51 51" fill="none" xmlns="http://www.w3.org/2000/svg">
<path fill-rule="evenodd" clip-rule="evenodd" d="M31.1837 35.2218C31.3195 35.8234 30.791 36.1988 30.2661 35.8875L24.6486 32.5563C24.5828 32.5173 24.4169 32.5178 24.3519 32.5563L18.7343 35.8875C18.2033 36.2024 17.6826 35.8164 17.8168 35.2218L19.2532 28.8568C19.27 28.7823 19.2184 28.6249 19.1615 28.575L14.2533 24.2689C13.7893 23.8618 13.996 23.2479 14.6037 23.1916L21.109 22.5891C21.1852 22.582 21.3192 22.4843 21.3491 22.4149L23.9332 16.4224C24.1774 15.8559 24.8259 15.8625 25.0673 16.4224L27.6514 22.4149C27.6817 22.4851 27.8161 22.5821 27.8914 22.5891L34.3967 23.1916C35.0117 23.2486 35.2058 23.8666 34.7472 24.2689L29.839 28.575C29.7815 28.6254 29.7306 28.7831 29.7473 28.8568L31.1837 35.2218ZM18.7841 34.8646L23.9102 31.8135C24.2468 31.6139 24.7515 31.6126 25.0903 31.8135L30.2143 34.8521L28.9034 29.0468C28.8173 28.6654 28.972 28.1857 29.268 27.926L33.738 24.0044L27.8116 23.4493C27.4218 23.4132 27.0127 23.118 26.8569 22.7566L24.4953 17.2801L22.1436 22.7566C21.9888 23.1156 21.5813 23.413 21.1889 23.4493L15.2605 23.9984L19.7324 27.926C20.0265 28.184 20.1837 28.6629 20.0971 29.0468L18.7841 34.8646Z" fill="#C1BEBE"/>
<path d="M30.2661 35.8875L30.0876 36.1886L30.2661 35.8875ZM31.1837 35.2218L31.5251 35.1447L31.1837 35.2218ZM24.6486 32.5563L24.4701 32.8574H24.4701L24.6486 32.5563ZM24.3519 32.5563L24.5304 32.8574L24.5304 32.8574L24.3519 32.5563ZM18.7343 35.8875L18.5558 35.5865H18.5558L18.7343 35.8875ZM17.8168 35.2218L18.1582 35.2988L17.8168 35.2218ZM19.2532 28.8568L19.5946 28.9339L19.5946 28.9339L19.2532 28.8568ZM19.1615 28.575L18.9307 28.8381L18.9307 28.8381L19.1615 28.575ZM14.2533 24.2689L14.0224 24.532H14.0224L14.2533 24.2689ZM14.6037 23.1916L14.636 23.5401H14.636L14.6037 23.1916ZM21.109 22.5891L21.0768 22.2406H21.0768L21.109 22.5891ZM21.3491 22.4149L21.0277 22.2763V22.2763L21.3491 22.4149ZM23.9332 16.4224L23.6118 16.2838V16.2838L23.9332 16.4224ZM25.0673 16.4224L25.3887 16.2838V16.2838L25.0673 16.4224ZM27.6514 22.4149L27.9728 22.2763L27.9728 22.2763L27.6514 22.4149ZM27.8914 22.5891L27.9237 22.2406H27.9237L27.8914 22.5891ZM34.3967 23.1916L34.429 22.8431L34.3967 23.1916ZM34.7472 24.2689L34.9781 24.532L34.7472 24.2689ZM29.839 28.575L29.6082 28.3119L29.6081 28.3119L29.839 28.575ZM29.7473 28.8568L30.0887 28.7798L30.0887 28.7798L29.7473 28.8568ZM23.9102 31.8135L23.7317 31.5125L23.7312 31.5127L23.9102 31.8135ZM18.7841 34.8646L18.4427 34.7875L18.2635 35.5818L18.9632 35.1653L18.7841 34.8646ZM25.0903 31.8135L24.9117 32.1146L25.0903 31.8135ZM30.2143 34.8521L30.0358 35.1531L30.7347 35.5676L30.5557 34.775L30.2143 34.8521ZM28.9034 29.0468L28.562 29.1238L28.562 29.1239L28.9034 29.0468ZM29.268 27.926L29.4989 28.1891L29.268 27.926ZM33.738 24.0044L33.9688 24.2675L34.5795 23.7317L33.7706 23.6559L33.738 24.0044ZM27.8116 23.4493L27.8442 23.1008L27.8438 23.1008L27.8116 23.4493ZM26.8569 22.7566L26.5355 22.8952L26.8569 22.7566ZM24.4953 17.2801L24.8167 17.1415L24.4946 16.3946L24.1737 17.142L24.4953 17.2801ZM22.1436 22.7566L22.465 22.8952L22.4652 22.8947L22.1436 22.7566ZM21.1889 23.4493L21.2212 23.7978H21.2212L21.1889 23.4493ZM15.2605 23.9984L15.2282 23.6499L14.4186 23.7249L15.0295 24.2614L15.2605 23.9984ZM19.7324 27.926L19.5015 28.1889L19.5016 28.1891L19.7324 27.926ZM20.0971 29.0468L19.7557 28.9697L20.0971 29.0468ZM30.0876 36.1886C30.4512 36.4042 30.8669 36.4044 31.1772 36.181C31.4886 35.9568 31.6191 35.5611 31.5251 35.1447L30.8423 35.2988C30.8841 35.484 30.8182 35.5769 30.7682 35.6129C30.7169 35.6499 30.6059 35.6821 30.4447 35.5865L30.0876 36.1886ZM24.4701 32.8574L30.0876 36.1886L30.4447 35.5865L24.8271 32.2553L24.4701 32.8574ZM24.5304 32.8574C24.5118 32.8685 24.4973 32.8737 24.4912 32.8757C24.4877 32.8769 24.4851 32.8776 24.4836 32.878C24.4828 32.8782 24.4823 32.8783 24.4819 32.8784C24.4816 32.8785 24.4814 32.8785 24.4814 32.8785C24.4813 32.8785 24.4815 32.8785 24.4818 32.8784C24.4821 32.8784 24.4825 32.8783 24.483 32.8783C24.4841 32.8781 24.4856 32.8779 24.4874 32.8778C24.4911 32.8775 24.4955 32.8772 24.5003 32.8772C24.5051 32.8772 24.5095 32.8774 24.5132 32.8778C24.515 32.8779 24.5164 32.8781 24.5175 32.8782C24.5186 32.8784 24.5191 32.8785 24.5191 32.8785C24.5191 32.8785 24.5189 32.8784 24.5185 32.8783C24.5182 32.8783 24.5176 32.8781 24.5168 32.8779C24.5153 32.8776 24.5127 32.8768 24.5091 32.8757C24.503 32.8736 24.4886 32.8684 24.4701 32.8574L24.8271 32.2553C24.7112 32.1865 24.575 32.1772 24.4996 32.1772C24.4244 32.1773 24.2887 32.1869 24.1734 32.2553L24.5304 32.8574ZM18.9129 36.1886L24.5304 32.8574L24.1734 32.2553L18.5558 35.5865L18.9129 36.1886ZM17.4754 35.1447C17.3823 35.5571 17.5108 35.9525 17.8195 36.1782C18.1291 36.4047 18.5457 36.4063 18.9129 36.1886L18.5558 35.5865C18.3919 35.6837 18.2827 35.6497 18.2327 35.6132C18.1818 35.576 18.1171 35.481 18.1582 35.2988L17.4754 35.1447ZM18.9118 28.7798L17.4754 35.1447L18.1582 35.2988L19.5946 28.9339L18.9118 28.7798ZM18.9307 28.8381C18.9144 28.8238 18.9049 28.8117 18.901 28.8065C18.8988 28.8035 18.8973 28.8012 18.8965 28.7999C18.8961 28.7992 18.8958 28.7987 18.8956 28.7984C18.8954 28.7981 18.8953 28.7979 18.8953 28.7979C18.8953 28.7979 18.8955 28.7983 18.896 28.7993C18.8965 28.8003 18.8971 28.8016 18.8978 28.8032C18.8992 28.8066 18.9008 28.8107 18.9023 28.8153C18.9037 28.8198 18.9049 28.824 18.9057 28.8276C18.9061 28.8293 18.9064 28.8307 18.9066 28.8318C18.9068 28.8328 18.9069 28.8333 18.9069 28.8333C18.9069 28.8333 18.9068 28.8324 18.9066 28.8308C18.9065 28.8293 18.9064 28.8265 18.9064 28.8228C18.9065 28.8162 18.907 28.8009 18.9118 28.7798L19.5946 28.9339C19.6243 28.8022 19.5911 28.6697 19.5677 28.5981C19.5443 28.5265 19.4932 28.4004 19.3923 28.3119L18.9307 28.8381ZM14.0224 24.532L18.9307 28.8381L19.3923 28.3119L14.4841 24.0058L14.0224 24.532ZM14.5715 22.8431C14.1506 22.8821 13.8138 23.126 13.6942 23.4892C13.5741 23.8538 13.7016 24.2505 14.0224 24.532L14.4841 24.0058C14.341 23.8802 14.3398 23.7664 14.359 23.7082C14.3786 23.6487 14.4491 23.5575 14.636 23.5401L14.5715 22.8431ZM21.0768 22.2406L14.5715 22.8431L14.636 23.5401L21.1413 22.9376L21.0768 22.2406ZM21.0277 22.2763C21.0363 22.2563 21.0449 22.2436 21.0487 22.2383C21.0509 22.2353 21.0526 22.2332 21.0536 22.232C21.0541 22.2314 21.0545 22.2309 21.0547 22.2306C21.0549 22.2304 21.0551 22.2302 21.0551 22.2302C21.0551 22.2302 21.0547 22.2306 21.0539 22.2314C21.0531 22.2321 21.0521 22.2331 21.0507 22.2343C21.0479 22.2367 21.0445 22.2395 21.0406 22.2423C21.0367 22.2451 21.033 22.2475 21.0299 22.2494C21.0283 22.2503 21.0271 22.2511 21.0261 22.2516C21.0252 22.2521 21.0247 22.2523 21.0247 22.2523C21.0247 22.2523 21.0249 22.2522 21.0253 22.2521C21.0256 22.2519 21.0261 22.2517 21.0269 22.2514C21.0283 22.2508 21.0309 22.2498 21.0344 22.2487C21.0406 22.2468 21.0553 22.2426 21.0768 22.2406L21.1413 22.9376C21.2755 22.9252 21.3912 22.8528 21.4522 22.8085C21.5131 22.7642 21.6173 22.6767 21.6705 22.5535L21.0277 22.2763ZM23.6118 16.2838L21.0277 22.2763L21.6705 22.5535L24.2545 16.561L23.6118 16.2838ZM25.3887 16.2838C25.2213 15.8956 24.8849 15.6514 24.5026 15.65C24.119 15.6486 23.7808 15.8918 23.6118 16.2838L24.2545 16.561C24.3298 16.3865 24.4379 16.3498 24.5 16.35C24.5634 16.3502 24.6719 16.3893 24.7459 16.561L25.3887 16.2838ZM27.9728 22.2763L25.3887 16.2838L24.7459 16.561L27.33 22.5535L27.9728 22.2763ZM27.9237 22.2406C27.9453 22.2426 27.9601 22.2468 27.9662 22.2487C27.9698 22.2499 27.9723 22.2508 27.9737 22.2514C27.9744 22.2517 27.975 22.2519 27.9753 22.252C27.9756 22.2522 27.9758 22.2523 27.9758 22.2523C27.9758 22.2523 27.9757 22.2522 27.9754 22.2521C27.9752 22.252 27.9748 22.2518 27.9743 22.2515C27.9734 22.251 27.9721 22.2503 27.9706 22.2494C27.9674 22.2474 27.9637 22.245 27.9598 22.2422C27.9559 22.2394 27.9525 22.2367 27.9497 22.2343C27.9483 22.2331 27.9473 22.2321 27.9465 22.2314C27.9457 22.2306 27.9454 22.2302 27.9454 22.2303C27.9454 22.2303 27.9459 22.2309 27.947 22.2321C27.948 22.2333 27.9497 22.2354 27.9519 22.2385C27.9557 22.2438 27.9642 22.2565 27.9728 22.2763L27.33 22.5535C27.3834 22.6774 27.4882 22.765 27.5492 22.8092C27.6102 22.8533 27.7257 22.9252 27.8592 22.9376L27.9237 22.2406ZM34.429 22.8431L27.9237 22.2406L27.8592 22.9376L34.3645 23.5401L34.429 22.8431ZM34.9781 24.532C35.2958 24.2532 35.4248 23.8579 35.3078 23.4937C35.1904 23.1283 34.854 22.8825 34.429 22.8431L34.3645 23.5401C34.5544 23.5577 34.6225 23.6493 34.6413 23.7078C34.6605 23.7674 34.6572 23.8823 34.5164 24.0058L34.9781 24.532ZM30.0698 28.8381L34.9781 24.532L34.5164 24.0058L29.6082 28.3119L30.0698 28.8381ZM30.0887 28.7798C30.0935 28.801 30.094 28.8164 30.0941 28.8229C30.0941 28.8267 30.094 28.8294 30.0939 28.8309C30.0938 28.8317 30.0938 28.8323 30.0937 28.8327C30.0937 28.8331 30.0937 28.8333 30.0937 28.8333C30.0937 28.8333 30.0937 28.8328 30.0939 28.8317C30.0941 28.8307 30.0944 28.8293 30.0948 28.8275C30.0956 28.8239 30.0968 28.8197 30.0983 28.8152C30.0997 28.8106 30.1013 28.8065 30.1027 28.8032C30.1034 28.8015 30.104 28.8002 30.1045 28.7993C30.1049 28.7983 30.1052 28.7978 30.1052 28.7979C30.1051 28.7979 30.1048 28.7986 30.1039 28.7999C30.1031 28.8013 30.1016 28.8035 30.0993 28.8066C30.0955 28.8118 30.086 28.8239 30.0698 28.8381L29.6081 28.3119C29.5067 28.4009 29.4557 28.5275 29.4324 28.5992C29.4092 28.6708 29.3763 28.8029 29.4059 28.9339L30.0887 28.7798ZM31.5251 35.1447L30.0887 28.7798L29.4059 28.9339L30.8423 35.2988L31.5251 35.1447ZM23.7312 31.5127L18.6051 34.5638L18.9632 35.1653L24.0892 32.1143L23.7312 31.5127ZM25.2688 31.5125C24.8196 31.2461 24.178 31.2478 23.7317 31.5125L24.0887 32.1146C24.3156 31.98 24.6834 31.9791 24.9117 32.1146L25.2688 31.5125ZM30.3929 34.551L25.2688 31.5125L24.9117 32.1146L30.0358 35.1531L30.3929 34.551ZM28.562 29.1239L29.8729 34.9292L30.5557 34.775L29.2448 28.9697L28.562 29.1239ZM29.0372 27.6629C28.6446 28.0073 28.4477 28.6177 28.562 29.1238L29.2448 28.9697C29.1869 28.7132 29.2995 28.364 29.4989 28.1891L29.0372 27.6629ZM33.5071 23.7413L29.0372 27.6629L29.4989 28.1891L33.9688 24.2675L33.5071 23.7413ZM27.7789 23.7978L33.7053 24.3529L33.7706 23.6559L27.8442 23.1008L27.7789 23.7978ZM26.5355 22.8952C26.7423 23.3747 27.2626 23.75 27.7793 23.7978L27.8438 23.1008C27.581 23.0765 27.2832 22.8613 27.1783 22.618L26.5355 22.8952ZM24.1739 17.4187L26.5355 22.8952L27.1783 22.618L24.8167 17.1415L24.1739 17.4187ZM22.4652 22.8947L24.8169 17.4182L24.1737 17.142L21.822 22.6185L22.4652 22.8947ZM21.2212 23.7978C21.7413 23.7496 22.2596 23.3716 22.465 22.8952L21.8222 22.618C21.718 22.8597 21.4212 23.0763 21.1566 23.1008L21.2212 23.7978ZM15.2927 24.3469L21.2212 23.7978L21.1566 23.1008L15.2282 23.6499L15.2927 24.3469ZM19.9634 27.663L15.4914 23.7355L15.0295 24.2614L19.5015 28.1889L19.9634 27.663ZM20.4385 29.1238C20.5535 28.6144 20.3533 28.0051 19.9633 27.6629L19.5016 28.1891C19.6997 28.3629 19.814 28.7115 19.7557 28.9697L20.4385 29.1238ZM19.1256 34.9416L20.4385 29.1238L19.7557 28.9697L18.4427 34.7875L19.1256 34.9416Z" fill="#C1BEBE"/>
</svg>
