<svg width="51" height="51" viewBox="0 0 51 51" fill="none" xmlns="http://www.w3.org/2000/svg">
<path fill-rule="evenodd" clip-rule="evenodd" d="M21.3623 16.0005C21.1281 16.0262 20.9524 16.2265 20.9575 16.462V17.7896H18.5428C17.1495 17.7896 16.0003 18.9357 16.0003 20.3313V23.0007V23.0575C15.9999 23.0693 15.9999 23.0812 16.0003 23.093V33.4585C16.0003 34.854 17.1489 36.0001 18.5428 36.0001H33.464C34.858 36.0001 35.9994 34.854 35.9994 33.4585V23.1214C35.9997 23.1119 35.9997 23.1025 35.9994 23.093C36.0003 23.0765 36.0003 23.0599 35.9994 23.0433V20.3313C35.9994 18.9357 34.8574 17.7896 33.464 17.7896H30.9712V16.462C30.9732 16.339 30.9252 16.2205 30.8382 16.1335C30.7512 16.0466 30.6326 15.9986 30.5096 16.0005C30.3891 16.0024 30.2742 16.052 30.1903 16.1386C30.1064 16.2251 30.0603 16.3415 30.0622 16.462V17.7896H21.8665V16.462C21.8685 16.339 21.8205 16.2205 21.7335 16.1335C21.6465 16.0466 21.5279 15.9986 21.4049 16.0005C21.3907 15.9998 21.3765 15.9998 21.3623 16.0005ZM18.5428 18.6984H20.9575V20.026C20.9571 20.1886 21.0437 20.3389 21.1845 20.4203C21.3253 20.5017 21.4988 20.5017 21.6396 20.4203C21.7804 20.3389 21.8669 20.1886 21.8665 20.026V18.6984H30.0622V20.026C30.0618 20.1886 30.1484 20.3389 30.2892 20.4203C30.4299 20.5017 30.6035 20.5017 30.7443 20.4203C30.885 20.3389 30.9716 20.1886 30.9712 20.026V18.6984H33.464C34.3607 18.6984 35.0904 19.4304 35.0904 20.3313V22.6386H16.9094V20.3313C16.9094 19.4304 17.6461 18.6984 18.5428 18.6984ZM16.9094 23.5474H35.0904V33.4585C35.0904 34.3594 34.3601 35.0914 33.464 35.0914H18.5428C17.6467 35.0914 16.9094 34.3594 16.9094 33.4585V23.5474Z" fill="#C1BEBE"/>
<path d="M20.9575 16.462H21.2576L21.2574 16.4555L20.9575 16.462ZM20.9575 17.7896V18.0896H21.2575V17.7896H20.9575ZM16.0003 23.0575L16.3003 23.0693V23.0575H16.0003ZM16.0003 23.093H16.3006L16.3001 23.0813L16.0003 23.093ZM35.9994 23.1214L35.6994 23.112V23.1214H35.9994ZM35.9994 23.093L35.6999 23.0766L35.6992 23.0895L35.6996 23.1024L35.9994 23.093ZM35.9994 23.0433H35.6994V23.0515L35.6999 23.0597L35.9994 23.0433ZM30.9712 17.7896H30.6712V18.0896H30.9712V17.7896ZM30.9712 16.462L30.6712 16.4572V16.462H30.9712ZM30.5096 16.0005L30.5143 16.3005L30.5143 16.3005L30.5096 16.0005ZM30.0622 16.462H30.3622L30.3621 16.4573L30.0622 16.462ZM30.0622 17.7896V18.0896H30.3622V17.7896H30.0622ZM21.8665 17.7896H21.5665V18.0896H21.8665V17.7896ZM21.8665 16.462L21.5665 16.4572V16.462H21.8665ZM21.4049 16.0005L21.3909 16.3002L21.4002 16.3006L21.4096 16.3005L21.4049 16.0005ZM20.9575 18.6984H21.2575V18.3984H20.9575V18.6984ZM20.9575 20.026L21.2575 20.0266V20.026H20.9575ZM21.8665 20.026H21.5665L21.5665 20.0266L21.8665 20.026ZM21.8665 18.6984V18.3984H21.5665V18.6984H21.8665ZM30.0622 18.6984H30.3622V18.3984H30.0622V18.6984ZM30.0622 20.026L30.3622 20.0266V20.026H30.0622ZM30.9712 20.026H30.6712L30.6712 20.0266L30.9712 20.026ZM30.9712 18.6984V18.3984H30.6712V18.6984H30.9712ZM35.0904 22.6386V22.9386H35.3904V22.6386H35.0904ZM16.9094 22.6386H16.6094V22.9386H16.9094V22.6386ZM16.9094 23.5474V23.2474H16.6094V23.5474H16.9094ZM35.0904 23.5474H35.3904V23.2474H35.0904V23.5474ZM21.3296 15.7023C20.9409 15.745 20.6491 16.0775 20.6576 16.4685L21.2574 16.4555C21.2557 16.3756 21.3154 16.3075 21.395 16.2987L21.3296 15.7023ZM20.6575 16.462V17.7896H21.2575V16.462H20.6575ZM20.9575 17.4896H18.5428V18.0896H20.9575V17.4896ZM18.5428 17.4896C16.9841 17.4896 15.7003 18.7697 15.7003 20.3313H16.3003C16.3003 19.1017 17.3149 18.0896 18.5428 18.0896V17.4896ZM15.7003 20.3313V23.0007H16.3003V20.3313H15.7003ZM15.7003 23.0007V23.0575H16.3003V23.0007H15.7003ZM15.7006 23.0458C15.6998 23.0654 15.6998 23.0851 15.7006 23.1047L16.3001 23.0813C16.3 23.0773 16.3 23.0733 16.3001 23.0692L15.7006 23.0458ZM15.7003 23.093V33.4585H16.3003V23.093H15.7003ZM15.7003 33.4585C15.7003 35.0199 16.9834 36.3001 18.5428 36.3001V35.7001C17.3143 35.7001 16.3003 34.6881 16.3003 33.4585H15.7003ZM18.5428 36.3001H33.464V35.7001H18.5428V36.3001ZM33.464 36.3001C35.0245 36.3001 36.2994 35.0189 36.2994 33.4585H35.6994C35.6994 34.6892 34.6915 35.7001 33.464 35.7001V36.3001ZM36.2994 33.4585V23.1214H35.6994V33.4585H36.2994ZM36.2993 23.1308C36.2998 23.1151 36.2998 23.0993 36.2993 23.0836L35.6996 23.1024C35.6997 23.1056 35.6997 23.1088 35.6996 23.112L36.2993 23.1308ZM36.299 23.1094C36.3005 23.0819 36.3005 23.0544 36.299 23.0269L35.6999 23.0597C35.7002 23.0654 35.7002 23.071 35.6999 23.0766L36.299 23.1094ZM36.2994 23.0433V20.3313H35.6994V23.0433H36.2994ZM36.2994 20.3313C36.2994 18.7708 35.0239 17.4896 33.464 17.4896V18.0896C34.6909 18.0896 35.6994 19.1006 35.6994 20.3313H36.2994ZM33.464 17.4896H30.9712V18.0896H33.464V17.4896ZM31.2712 17.7896V16.462H30.6712V17.7896H31.2712ZM31.2712 16.4667C31.2744 16.2625 31.1947 16.0657 31.0503 15.9214L30.6261 16.3457C30.6556 16.3752 30.6719 16.4155 30.6713 16.4572L31.2712 16.4667ZM31.0503 15.9214C30.9058 15.777 30.7091 15.6973 30.5049 15.7005L30.5143 16.3005C30.5562 16.2998 30.5965 16.3161 30.6261 16.3457L31.0503 15.9214ZM30.505 15.7005C30.3049 15.7036 30.1142 15.7861 29.9749 15.9298L30.4057 16.3474C30.4342 16.318 30.4732 16.3011 30.5143 16.3005L30.505 15.7005ZM29.9749 15.9298C29.8356 16.0734 29.7591 16.2666 29.7622 16.4667L30.3621 16.4573C30.3615 16.4163 30.3771 16.3768 30.4057 16.3474L29.9749 15.9298ZM29.7622 16.462V17.7896H30.3622V16.462H29.7622ZM30.0622 17.4896H21.8665V18.0896H30.0622V17.4896ZM22.1665 17.7896V16.462H21.5665V17.7896H22.1665ZM22.1665 16.4667C22.1697 16.2625 22.09 16.0657 21.9456 15.9214L21.5214 16.3457C21.5509 16.3752 21.5672 16.4155 21.5666 16.4572L22.1665 16.4667ZM21.9456 15.9214C21.8012 15.777 21.6044 15.6973 21.4002 15.7005L21.4096 16.3005C21.4515 16.2998 21.4918 16.3161 21.5214 16.3457L21.9456 15.9214ZM21.419 15.7008C21.3954 15.6997 21.3718 15.6997 21.3483 15.7008L21.3764 16.3002C21.3812 16.2999 21.386 16.2999 21.3909 16.3002L21.419 15.7008ZM18.5428 18.9984H20.9575V18.3984H18.5428V18.9984ZM20.6575 18.6984V20.026H21.2575V18.6984H20.6575ZM20.6575 20.0253C20.6569 20.2953 20.8006 20.5449 21.0343 20.68L21.3346 20.1606C21.2868 20.1329 21.2574 20.0818 21.2575 20.0266L20.6575 20.0253ZM21.0343 20.68C21.268 20.8151 21.5561 20.8151 21.7897 20.68L21.4894 20.1606C21.4415 20.1883 21.3825 20.1883 21.3346 20.1606L21.0343 20.68ZM21.7897 20.68C22.0234 20.5449 22.1671 20.2953 22.1665 20.0253L21.5665 20.0266C21.5667 20.0818 21.5373 20.1329 21.4894 20.1606L21.7897 20.68ZM22.1665 20.026V18.6984H21.5665V20.026H22.1665ZM21.8665 18.9984H30.0622V18.3984H21.8665V18.9984ZM29.7622 18.6984V20.026H30.3622V18.6984H29.7622ZM29.7622 20.0253C29.7616 20.2953 29.9053 20.5449 30.139 20.68L30.4393 20.1606C30.3914 20.1329 30.3621 20.0818 30.3622 20.0266L29.7622 20.0253ZM30.139 20.68C30.3727 20.8151 30.6607 20.8151 30.8944 20.68L30.5941 20.1606C30.5462 20.1883 30.4872 20.1883 30.4393 20.1606L30.139 20.68ZM30.8944 20.68C31.1281 20.5449 31.2718 20.2953 31.2712 20.0253L30.6712 20.0266C30.6714 20.0818 30.642 20.1329 30.5941 20.1606L30.8944 20.68ZM31.2712 20.026V18.6984H30.6712V20.026H31.2712ZM30.9712 18.9984H33.464V18.3984H30.9712V18.9984ZM33.464 18.9984C34.194 18.9984 34.7904 19.595 34.7904 20.3313H35.3904C35.3904 19.2657 34.5275 18.3984 33.464 18.3984V18.9984ZM34.7904 20.3313V22.6386H35.3904V20.3313H34.7904ZM35.0904 22.3386H16.9094V22.9386H35.0904V22.3386ZM17.2094 22.6386V20.3313H16.6094V22.6386H17.2094ZM17.2094 20.3313C17.2094 19.5967 17.8112 18.9984 18.5428 18.9984V18.3984C17.4811 18.3984 16.6094 19.264 16.6094 20.3313H17.2094ZM16.9094 23.8474H35.0904V23.2474H16.9094V23.8474ZM34.7904 23.5474V33.4585H35.3904V23.5474H34.7904ZM34.7904 33.4585C34.7904 34.1947 34.1934 34.7914 33.464 34.7914V35.3914C34.5268 35.3914 35.3904 34.5241 35.3904 33.4585H34.7904ZM33.464 34.7914H18.5428V35.3914H33.464V34.7914ZM18.5428 34.7914C17.8117 34.7914 17.2094 34.193 17.2094 33.4585H16.6094C16.6094 34.5258 17.4818 35.3914 18.5428 35.3914V34.7914ZM17.2094 33.4585V23.5474H16.6094V33.4585H17.2094Z" fill="#C1BEBE"/>
</svg>
