<svg width="70" height="71" viewBox="0 0 70 71" fill="none" xmlns="http://www.w3.org/2000/svg">
<path d="M15.0576 17.0078C15.0576 17.3359 15.2217 17.5 15.5498 17.5H25.0654C25.3115 17.5 25.5576 17.3359 25.5576 17.0078V15.3672C25.5576 15.1211 25.3115 14.875 25.0654 14.875H15.5498C15.2217 14.875 15.0576 15.1211 15.0576 15.3672V17.0078ZM43.2764 35.875C43.2764 30.4609 38.8467 26.0312 33.4326 26.0312C27.9365 26.0312 23.5889 30.4609 23.5889 35.875C23.5889 41.3711 27.9365 45.7188 33.4326 45.7188C38.8467 45.7188 43.2764 41.3711 43.2764 35.875ZM40.6514 35.875C40.6514 39.8945 37.3701 43.0938 33.4326 43.0938C29.4131 43.0938 26.2139 39.8945 26.2139 35.875C26.2139 31.9375 29.4131 28.6562 33.4326 28.6562C37.3701 28.6562 40.6514 31.9375 40.6514 35.875ZM30.8076 35.875C30.8076 34.4805 31.9561 33.25 33.4326 33.25C34.0889 33.25 34.7451 32.6758 34.7451 31.9375C34.7451 31.2812 34.0889 30.625 33.4326 30.625C30.4795 30.625 28.1826 33.0039 28.1826 35.875C28.1826 36.6133 28.7568 37.1875 29.4951 37.1875C30.1514 37.1875 30.8076 36.6133 30.8076 35.875ZM54.4326 18.8125C54.4326 16.6797 52.6279 14.875 50.4951 14.875H33.4326C32.1201 14.875 30.9717 15.5312 30.2334 16.5156L27.5264 20.125H16.3701C14.1553 20.125 12.4326 21.9297 12.4326 24.0625V47.6875C12.4326 49.9023 14.1553 51.625 16.3701 51.625H50.4951C52.6279 51.625 54.4326 49.9023 54.4326 47.6875V18.8125ZM30.8076 20.125L32.3662 18.0742C32.6123 17.7461 33.0225 17.5 33.4326 17.5H50.4951C51.1514 17.5 51.8076 18.1562 51.8076 18.8125V20.3711C51.3975 20.207 50.9053 20.125 50.4951 20.125H30.8076ZM51.8076 24.0625V47.6875C51.8076 48.4258 51.1514 49 50.4951 49H16.3701C15.6318 49 15.0576 48.4258 15.0576 47.6875V24.0625C15.0576 23.4062 15.6318 22.75 16.3701 22.75H50.4951C51.1514 22.75 51.8076 23.4062 51.8076 24.0625Z" fill="black"/>
<path d="M35 0.811523C15.7344 0.811523 0.125 16.5615 0.125 35.6865C0.125 54.9521 15.7344 70.5615 35 70.5615C54.125 70.5615 69.875 54.9521 69.875 35.6865C69.875 16.5615 54.125 0.811523 35 0.811523ZM13.4844 57.2021C2.09375 45.9521 1.67188 27.8115 11.9375 15.8584L54.8281 58.749C42.875 69.0146 24.7344 68.5928 13.4844 57.2021ZM57.9219 55.6553L15.0312 12.7646C26.9844 2.49902 45.125 2.9209 56.375 14.3115C67.7656 25.5615 68.1875 43.7021 57.9219 55.6553Z" fill="#FF9A84"/>
</svg>
