<svg width="65" height="55" viewBox="0 0 65 55" fill="none" xmlns="http://www.w3.org/2000/svg">
<path fill-rule="evenodd" clip-rule="evenodd" d="M26.9713 24.3997C26.9542 24.0731 26.6777 23.8015 26.3512 23.8052C20.7248 23.8713 14.8415 25.103 9.36064 30.5838L8.49589 31.4486C8.01765 31.9256 8.01765 32.7011 8.49589 33.1793L10.2254 34.9088C10.7024 35.3858 11.4767 35.3858 11.9549 34.9088L12.8197 34.0428C17.1814 29.6811 21.6727 28.7002 26.575 28.6831C26.9236 28.6818 27.2037 28.3956 27.1841 28.0458C27.1621 27.6581 27.1401 27.2642 27.1132 26.8569C27.063 26.057 27.0129 25.2375 26.9713 24.3997ZM56.719 19.85L54.9895 18.1205C54.5125 17.6434 53.7382 17.6434 53.26 18.1205L52.3952 18.9852C48.0335 23.3481 43.541 24.3279 38.6387 24.3462C38.2888 24.3462 38.0087 24.6324 38.0283 24.9822C38.0503 25.37 38.0736 25.7638 38.0993 26.1699C38.1494 26.971 38.2008 27.7918 38.2411 28.6308C38.2583 28.9574 38.5347 29.2289 38.8613 29.2241C44.4901 29.1592 50.3734 27.9275 55.8542 22.4442L56.719 21.5807C57.1972 21.1037 57.1972 20.3282 56.719 19.85Z" fill="white"/>
<path fill-rule="evenodd" clip-rule="evenodd" d="M40.1288 8.88511C40.4578 8.51327 40.8052 8.14389 41.177 7.77083L42.0418 6.90608C42.52 6.42783 42.52 5.65359 42.0418 5.17657L40.3123 3.44706C39.8353 2.96882 39.061 2.96882 38.5828 3.44706L37.718 4.31182C30.1725 11.8573 30.1664 19.6462 30.1615 26.5166C30.1591 29.9242 30.1554 33.0982 29.3775 36.1879L25.3142 32.1258C24.7161 31.5289 23.7486 31.5289 23.1517 32.1258C22.5549 32.7227 22.5549 33.6914 23.1517 34.2883L28.2485 39.3839C27.7483 40.4688 27.1074 41.5501 26.3074 42.6338L23.0282 39.3521C22.4301 38.7552 21.4626 38.7552 20.8657 39.3521C20.2688 39.949 20.2688 40.9165 20.8657 41.5146L24.3186 44.9675C24.222 45.0678 24.1376 45.1669 24.0373 45.2672L23.1725 46.1319C22.6943 46.6102 22.6943 47.3844 23.1725 47.8614L24.9021 49.5909C25.3791 50.0692 26.1533 50.0692 26.6316 49.5909L27.4963 48.7262C35.0418 41.1807 35.0479 33.3918 35.054 26.5214C35.0565 23.5884 35.0602 20.8314 35.5568 18.1491L39.2421 21.8368C39.5417 22.1353 39.9331 22.2845 40.3233 22.2845C40.7147 22.2845 41.1061 22.1353 41.4045 21.8368C42.0014 21.24 42.0014 20.2725 41.4045 19.6744L36.4961 14.7671C36.9352 13.6174 37.5064 12.4762 38.2538 11.3338L41.9097 14.9898C42.2081 15.2882 42.5995 15.4374 42.9909 15.4374C43.3811 15.4374 43.7725 15.2882 44.0722 14.9898C44.6691 14.3929 44.6691 13.4254 44.0722 12.8285L40.1288 8.88511ZM18.6893 35.0147C18.0912 34.4178 17.1237 34.4178 16.5268 35.0147C15.9299 35.6128 15.9299 36.5803 16.5268 37.1772L17.4918 38.141C17.7903 38.4395 18.1817 38.5887 18.5731 38.5887C18.9632 38.5887 19.3559 38.4395 19.6543 38.141C20.2512 37.5441 20.2512 36.5766 19.6543 35.9785L18.6893 35.0147ZM48.7534 17.5139L47.211 15.9703C46.6141 15.3734 45.6454 15.3734 45.0473 15.9691C44.4504 16.5672 44.4504 17.5347 45.0473 18.1328L46.5896 19.6751C46.8881 19.9736 47.2807 20.124 47.6721 20.124C48.0623 20.124 48.4549 19.9736 48.7534 19.6764C49.3503 19.0783 49.3503 18.1108 48.7534 17.5139Z" fill="white"/>
</svg>
