<svg width="126" height="210" viewBox="0 0 126 210" fill="none" xmlns="http://www.w3.org/2000/svg">
<g opacity="0.2" clip-path="url(#clip0)">
<path d="M27.6264 15.4128V28.0734H14.9658V15.4128H27.6264ZM193.865 15.4128V28.0734H181.204V15.4128H193.865ZM27.6264 181.651V194.312H14.9658V181.651H27.6264ZM144.324 0C141.571 0 139.369 1.10092 137.168 2.75229L119.553 20.367L99.186 40.734L82.6722 57.2477C80.4704 59.4495 78.2686 60 75.5163 60C72.764 60 70.5622 58.8991 68.3603 57.2477C64.5071 53.3945 64.5071 46.789 68.3603 42.9358L95.3328 15.9633C98.6355 12.1101 98.0851 6.60551 94.7823 2.75229C93.131 1.10092 90.3787 0 87.6264 0C84.8741 0 82.6722 1.10092 80.4704 2.75229L62.8557 20.367C44.6906 39.0826 50.7456 45.6881 47.9933 48.4404C45.7915 50.6422 35.8833 48.4404 20.4704 63.3028L2.85573 80.9174C-0.997483 84.7707 -0.997483 91.3762 2.85573 95.2294C4.50711 96.8807 7.2594 97.9817 10.0117 97.9817C12.2135 97.9817 14.9658 96.8807 16.6172 95.2294L27.0759 84.7707L43.0392 68.8074C45.2411 66.6055 47.4429 66.0551 50.1952 66.0551C52.9475 66.0551 55.1493 67.156 57.3511 68.8074C61.2044 72.6606 61.2044 79.2661 57.3511 83.1193L40.8374 99.633L34.2319 106.239L19.92 120.55L2.85573 137.615C-0.997483 141.468 -0.997483 148.073 2.85573 151.927C5.60802 153.028 7.80986 154.128 10.5622 154.128C13.3144 154.128 15.5163 153.028 17.7181 151.376L35.3328 133.761L49.6447 119.45C49.6447 119.45 56.2502 112.844 63.9567 105.138C82.1218 86.9725 78.2686 81.4679 81.0209 78.7156C83.7732 75.9633 90.3787 78.7156 103.59 65.5046C114.048 55.0459 134.966 34.1284 134.966 34.1284L152.03 17.0642C155.883 13.211 155.883 6.60551 152.03 2.75229C149.828 1.10092 147.076 0 144.324 0ZM40.2869 2.75229H1.75481V41.2844H40.2869V2.75229ZM207.076 2.75229H168.544V41.2844H207.076V2.75229ZM152.03 47.8899C149.278 47.8899 147.076 48.9908 144.874 50.6422C144.324 51.1927 127.259 68.2569 107.443 88.0734C103.59 91.9266 103.59 97.9817 107.993 101.835C110.195 103.486 112.397 104.587 115.149 104.587C117.902 104.587 120.103 103.486 122.305 101.835C142.122 82.0184 159.186 64.9541 159.736 64.4037C163.59 60.5505 163.59 54.4954 159.736 50.6422C156.984 48.9908 154.232 47.8899 152.03 47.8899ZM199.37 55.0459C196.617 55.0459 194.415 56.1468 192.214 57.7982L175.149 74.8624C175.149 74.8624 154.232 95.7798 143.773 106.239C130.562 119.45 132.764 126.606 130.562 128.807C128.36 131.009 122.856 127.156 104.14 145.872C96.4337 153.578 89.8282 160.184 89.8282 160.184L75.5163 174.495L57.9016 192.11C54.0484 195.963 54.0484 202.569 57.9016 206.422C60.1034 208.073 62.3053 209.174 65.0576 209.174C67.8099 209.174 70.0117 208.073 72.2135 206.422L89.2778 189.358L103.59 175.046L110.195 168.44L126.709 151.927C128.911 149.725 131.113 149.174 133.865 149.174C136.617 149.174 138.819 150.275 141.021 151.927C144.874 155.78 144.874 161.835 141.021 166.239L125.058 182.202L114.048 192.661C110.195 196.514 110.195 202.569 114.048 206.422C116.25 208.073 118.452 209.174 121.204 209.174C123.957 209.174 126.158 208.073 128.36 206.422L145.975 188.807C161.388 173.395 158.636 163.486 160.837 161.284C163.59 158.532 170.195 164.587 188.911 145.872L206.525 128.257C210.379 124.404 210.379 117.798 206.525 113.945C204.874 112.294 202.122 111.193 199.37 111.193C197.168 111.193 194.966 111.743 193.314 113.395L166.342 140.367C164.691 142.018 161.938 143.119 159.736 143.119C156.984 143.119 154.782 142.018 152.581 140.367C148.727 136.514 148.727 129.908 152.581 126.055L169.094 109.541L189.461 89.1743L207.076 71.5596C210.929 67.7064 210.929 61.1009 207.076 57.2477C204.324 56.1468 202.122 55.0459 199.37 55.0459ZM94.2319 105.688C92.03 105.688 89.2778 106.789 87.6264 108.44C67.2594 128.807 49.6447 146.422 48.5438 147.523C44.6906 151.376 44.6906 157.431 48.5438 161.284C50.1952 162.936 52.9475 164.037 55.6998 164.037C58.4521 164.037 60.6539 162.936 62.8557 161.284C63.9566 160.184 81.5713 142.569 101.938 122.202C105.241 118.349 105.241 112.294 101.938 108.44C99.186 106.789 96.9842 105.688 94.2319 105.688ZM198.269 158.532C195.516 158.532 193.314 159.633 191.113 161.284C189.461 162.936 164.14 188.257 163.039 189.358C159.186 193.211 159.186 199.266 163.039 203.119C164.691 204.771 167.443 205.872 170.195 205.872C172.947 205.872 175.149 204.771 177.351 203.119C180.103 200.367 204.874 176.147 205.425 175.046C209.278 171.193 209.278 165.138 205.425 161.284C203.223 159.633 200.47 158.532 198.269 158.532ZM40.2869 168.991H1.75481V207.523H40.2869V168.991Z" fill="url(#paint0_linear)"/>
</g>
<defs>
<linearGradient id="paint0_linear" x1="1.96883" y1="2.56121" x2="190.163" y2="190.758" gradientUnits="userSpaceOnUse">
<stop offset="0.078256" stop-color="#49BA80"/>
<stop offset="0.376" stop-color="#009ABB"/>
<stop offset="0.6865" stop-color="#344DA1"/>
<stop offset="0.9468" stop-color="#B03C96"/>
</linearGradient>
<clipPath id="clip0">
<rect width="210" height="210" fill="white"/>
</clipPath>
</defs>
</svg>
