<?xml version="1.0" encoding="utf-8"?>
<!-- Generator: Adobe Illustrator 24.3.0, SVG Export Plug-In . SVG Version: 6.00 Build 0)  -->
<svg version="1.1" id="Layer_1" xmlns="http://www.w3.org/2000/svg" xmlns:xlink="http://www.w3.org/1999/xlink" x="0px" y="0px"
	 viewBox="0 0 126 126" style="enable-background:new 0 0 126 126;" xml:space="preserve">
<style type="text/css">
	.st0{fill:none;stroke:#4CC8EC;stroke-width:3;stroke-dasharray:3,3;}
	.st1{fill:#FFFFFF;}
	.st2{fill:#4CC8EC;}
</style>
<circle class="st0" cx="63" cy="63" r="61.5"/>
<g>
	<rect x="29.1" y="36.7" class="st1" width="32.6" height="59.7"/>
	<path class="st2" d="M43.1,39.5h4.7c0.2,0,0.4-0.2,0.4-0.4c0-0.2-0.2-0.4-0.4-0.4h-4.7c-0.2,0-0.4,0.2-0.4,0.4
		C42.7,39.3,42.9,39.5,43.1,39.5z"/>
	<path class="st2" d="M63,39.3c0-2.4-1.9-4.3-4.3-4.3H32.3c-2.4,0-4.3,1.9-4.3,4.3v54.4c0,2.4,1.9,4.3,4.3,4.3h26.4
		c2.1,0,4.2-1,4.2-3.8c0-1.5,0-5.4,0-5.4L63,39.3z M61.3,39.3v54.4c0,1.4-1.2,2.6-2.6,2.6H32.3c-1.4,0-2.6-1.2-2.6-2.6V39.3
		c0-1.4,1.2-2.6,2.6-2.6h26.4C60.1,36.7,61.3,37.9,61.3,39.3z"/>
	<path class="st2" d="M31.3,42.4v47.7c0,0.2,0.2,0.4,0.4,0.4h27.5c0.2,0,0.4-0.2,0.4-0.4V42.4c0-0.2-0.2-0.4-0.4-0.4H31.7
		C31.5,42,31.3,42.2,31.3,42.4z M33.7,42.8h23.5c0.9,0,1.6,0.7,1.6,1.6v43.7c0,0.9-0.7,1.6-1.6,1.6H33.7c-0.9,0-1.6-0.7-1.6-1.6
		V44.4C32.2,43.5,32.9,42.8,33.7,42.8z"/>
	<path class="st2" d="M47.9,91.5h-4.8c-1,0-1.8,0.8-1.8,1.8v0.3c0,1,0.8,1.8,1.8,1.8h4.8c1,0,1.8-0.8,1.8-1.8v-0.3
		C49.7,92.3,48.9,91.5,47.9,91.5z M48.8,93.6c0,0.5-0.4,1-1,1h-4.8c-0.5,0-1-0.4-1-1v-0.3c0-0.5,0.4-1,1-1h4.8c0.5,0,1,0.4,1,1V93.6
		L48.8,93.6z"/>
</g>
<path class="st2" d="M68,19.7c-2.6-0.2-5.2,0.2-7.6,1c-4.7,1.6-8.5,4.8-10.9,9.2c0,0,0,0.1-0.1,0.1c0,0.1,0.3,0.3,0.7,0.5
	c0.4,0.2,0.8,0.3,0.8,0.3l0.1-0.1c2.2-3.9,5.7-6.9,10-8.4c2.3-0.8,4.6-1.1,7-0.9c7.9,0.5,14.4,6.2,16.2,13.7
	c0.1,0.6-0.3,1.1-0.9,1.1l-1.6,0.1c-0.6,0-0.7,0.4-0.3,0.8l3.3,3c0.4,0.4,1.2,0.4,1.6-0.1l3-3.3c0.4-0.4,0.3-0.8-0.4-0.8l-1.7,0.1
	c-0.6,0-1.2-0.5-1.3-1.1C84,26.6,76.8,20.3,68,19.7z"/>
</svg>
