<svg width="66" height="66" viewBox="0 0 66 66" fill="none" xmlns="http://www.w3.org/2000/svg">
<mask id="mask0" mask-type="alpha" maskUnits="userSpaceOnUse" x="0" y="0" width="66" height="66">
<rect width="66" height="66" fill="#C4C4C4"/>
</mask>
<g mask="url(#mask0)">
<path d="M20.7283 36.4589C20.7283 36.9169 20.6215 37.3444 20.4077 37.7413C20.194 38.1281 19.8988 38.4639 19.5223 38.7489C19.1457 39.0237 18.6928 39.2425 18.1636 39.4053C17.6445 39.558 17.0746 39.6343 16.4537 39.6343C15.5988 39.6343 14.7999 39.4817 14.0569 39.1763C13.314 38.871 12.7084 38.4487 12.2402 37.9092L13.8279 36.4437C14.2249 36.8711 14.6116 37.1663 14.9882 37.3291C15.3647 37.492 15.8431 37.5734 16.4232 37.5734C17.0033 37.5734 17.4664 37.4563 17.8124 37.2223C18.1687 36.978 18.3468 36.6574 18.3468 36.2605C18.3468 35.9246 18.2196 35.66 17.9651 35.4666C17.7107 35.2631 17.3697 35.1613 16.9423 35.1613H15.5683V33.2225H16.698C17.1356 33.2225 17.4766 33.1207 17.7209 32.9171C17.9651 32.7034 18.0872 32.4083 18.0872 32.0317C18.0872 31.6551 17.9244 31.3447 17.5987 31.1005C17.2832 30.846 16.8863 30.7188 16.4079 30.7188C15.8889 30.7188 15.4462 30.8104 15.0798 30.9936C14.7236 31.1666 14.3368 31.4821 13.9195 31.9401L12.3166 30.4898C12.8153 29.9097 13.4361 29.4568 14.1791 29.1311C14.9322 28.7952 15.7057 28.6273 16.4995 28.6273C17.0797 28.6273 17.614 28.7036 18.1025 28.8563C18.591 29.009 19.0083 29.2227 19.3544 29.4975C19.7004 29.7621 19.9701 30.0878 20.1635 30.4745C20.3568 30.8511 20.4535 31.2633 20.4535 31.7111C20.4535 32.2912 20.2652 32.8001 19.8887 33.2377C19.5223 33.6754 19.0388 33.9807 18.4384 34.1537C19.1304 34.286 19.6851 34.5608 20.1024 34.9781C20.5197 35.3852 20.7283 35.8788 20.7283 36.4589Z" fill="white"/>
<path d="M25.3335 35.5582C25.3335 34.9781 25.4353 34.4387 25.6388 33.94C25.8526 33.4413 26.1426 33.0138 26.509 32.6576C26.8754 32.2912 27.308 32.0063 27.8067 31.8027C28.3155 31.589 28.86 31.4821 29.4402 31.4821C30.0203 31.4821 30.5648 31.589 31.0737 31.8027C31.5825 32.0063 32.0202 32.2912 32.3866 32.6576C32.753 33.0138 33.0379 33.4413 33.2415 33.94C33.4552 34.4387 33.5621 34.9781 33.5621 35.5582C33.5621 36.1383 33.4552 36.6778 33.2415 37.1765C33.0277 37.6752 32.7377 38.1077 32.3713 38.4741C32.0049 38.8303 31.5673 39.1153 31.0584 39.329C30.5597 39.5326 30.0203 39.6343 29.4402 39.6343C28.86 39.6343 28.3155 39.5326 27.8067 39.329C27.308 39.1153 26.8754 38.8252 26.509 38.4588C26.1426 38.0924 25.8526 37.6599 25.6388 37.1612C25.4353 36.6625 25.3335 36.1282 25.3335 35.5582ZM29.4402 37.5428C29.9389 37.5428 30.346 37.3597 30.6615 36.9933C30.9871 36.6167 31.15 36.1383 31.15 35.5582C31.15 34.9781 30.9871 34.4998 30.6615 34.1232C30.346 33.7364 29.9389 33.5431 29.4402 33.5431C28.9415 33.5431 28.5344 33.7364 28.2188 34.1232C27.9033 34.4998 27.7456 34.9781 27.7456 35.5582C27.7456 36.1383 27.9033 36.6167 28.2188 36.9933C28.5344 37.3597 28.9415 37.5428 29.4402 37.5428Z" fill="white"/>
<path d="M34.4398 31.6042H36.0733V30.5661C36.0733 29.6298 36.343 28.9123 36.8824 28.4136C37.432 27.9149 38.2105 27.6655 39.2181 27.6655C39.4319 27.6655 39.6609 27.6808 39.9051 27.7113C40.1596 27.7419 40.3682 27.7775 40.531 27.8182V29.8486C40.3071 29.8079 40.1239 29.7825 39.9814 29.7723C39.8491 29.7621 39.7168 29.757 39.5845 29.757C39.2385 29.757 38.979 29.8283 38.8059 29.9707C38.6329 30.1132 38.5464 30.327 38.5464 30.6119V31.6042H40.531V33.5125H38.5464V39.4817H36.0733V33.5125H34.4398V31.6042Z" fill="white"/>
<path d="M53.1991 36.4589C53.1991 36.9169 53.0923 37.3444 52.8785 37.7413C52.6648 38.1281 52.3696 38.4639 51.9931 38.7489C51.6165 39.0237 51.1636 39.2425 50.6344 39.4053C50.1153 39.558 49.5454 39.6343 48.9245 39.6343C48.0696 39.6343 47.2707 39.4817 46.5277 39.1763C45.7848 38.871 45.1792 38.4487 44.711 37.9092L46.2987 36.4437C46.6957 36.8711 47.0824 37.1663 47.459 37.3291C47.8355 37.492 48.3139 37.5734 48.894 37.5734C49.4741 37.5734 49.9372 37.4563 50.2832 37.2223C50.6395 36.978 50.8176 36.6574 50.8176 36.2605C50.8176 35.9246 50.6903 35.66 50.4359 35.4666C50.1815 35.2631 49.8405 35.1613 49.4131 35.1613H48.0391V33.2225H49.1688C49.6064 33.2225 49.9474 33.1207 50.1916 32.9171C50.4359 32.7034 50.558 32.4083 50.558 32.0317C50.558 31.6551 50.3952 31.3447 50.0695 31.1005C49.754 30.846 49.3571 30.7188 48.8787 30.7188C48.3597 30.7188 47.917 30.8104 47.5506 30.9936C47.1944 31.1666 46.8076 31.4821 46.3903 31.9401L44.7874 30.4898C45.2861 29.9097 45.9069 29.4568 46.6499 29.1311C47.403 28.7952 48.1765 28.6273 48.9703 28.6273C49.5505 28.6273 50.0848 28.7036 50.5733 28.8563C51.0618 29.009 51.4791 29.2227 51.8251 29.4975C52.1712 29.7621 52.4409 30.0878 52.6343 30.4745C52.8276 30.8511 52.9243 31.2633 52.9243 31.7111C52.9243 32.2912 52.736 32.8001 52.3595 33.2377C51.9931 33.6754 51.5096 33.9807 50.9092 34.1537C51.6012 34.286 52.1559 34.5608 52.5732 34.9781C52.9905 35.3852 53.1991 35.8788 53.1991 36.4589Z" fill="white"/>
<circle cx="33.0196" cy="32.6319" r="30.1583" stroke="white" stroke-width="3"/>
<path d="M61.0773 31.738C60.8489 24.8648 58.1146 18.0698 52.8702 12.8254C47.6257 7.58091 40.8307 4.84658 33.9575 4.61819L34.0766 1.03622C41.8224 1.29361 49.4918 4.37858 55.4044 10.2911C61.3169 16.2037 64.4019 23.8731 64.6593 31.6189L61.0773 31.738Z" fill="#4CC8EC"/>
<path d="M34.2615 61.3361C41.1347 61.1077 47.9297 58.3734 53.1741 53.1289C58.4186 47.8845 61.1529 41.0895 61.3813 34.2163L64.9633 34.3354C64.7059 42.0812 61.6209 49.7506 55.7084 55.6632C49.7958 61.5757 42.1264 64.6607 34.3806 64.9181L34.2615 61.3361Z" fill="#4CC8EC"/>
<path d="M4.61847 34.2166C4.84686 41.0897 7.58118 47.8848 12.8256 53.1292C18.0701 58.3737 24.8651 61.108 31.7383 61.3364L31.6192 64.9184C23.8734 64.661 16.204 61.576 10.2914 55.6635C4.37885 49.7509 1.29388 42.0815 1.03649 34.3357L4.61847 34.2166Z" fill="#4CC8EC"/>
</g>
</svg>
