<svg width="887" height="654" viewBox="0 0 887 654" fill="none" xmlns="http://www.w3.org/2000/svg">
<g clip-path="url(#clip0)">
<path d="M853 558.122H35V558.449H853V558.122Z" fill="#D1E3FF"/>
<path d="M764.002 568.746H725.883V569.073H764.002V568.746Z" fill="#D1E3FF"/>
<path d="M625.596 577.573H444.981V577.899H625.596V577.573Z" fill="#D1E3FF"/>
<path d="M367.599 577.736H349.93V578.063H367.599V577.736Z" fill="#D1E3FF"/>
<path d="M224.122 572.833H162.608V573.159H224.122V572.833Z" fill="#D1E3FF"/>
<path d="M710.178 568.746H674.186V569.073H710.178V568.746Z" fill="#D1E3FF"/>
<path d="M149.193 572.833H119.417V573.159H149.193V572.833Z" fill="#D1E3FF"/>
<path d="M422.732 485.225H106.82C101.749 485.225 97.4951 480.976 97.4951 475.909V32.3164C97.4951 27.2496 101.749 23 106.82 23H422.732C427.804 23 432.057 27.2496 432.057 32.3164V475.909C432.057 481.139 427.967 485.225 422.732 485.225ZM106.82 23.3269C101.912 23.3269 97.8223 27.2496 97.8223 32.3164V475.909C97.8223 480.812 101.749 484.899 106.82 484.899H422.732C427.64 484.899 431.73 480.976 431.73 475.909V32.3164C431.73 27.413 427.804 23.3269 422.732 23.3269H106.82V23.3269Z" fill="#D1E3FF"/>
<path d="M776.599 485.225H460.687C455.615 485.225 451.362 480.976 451.362 475.909V32.3164C451.362 27.2496 455.615 23 460.687 23H776.599C781.67 23 785.924 27.2496 785.924 32.3164V475.909C785.924 481.139 781.834 485.225 776.599 485.225ZM460.687 23.3269C455.779 23.3269 451.689 27.2496 451.689 32.3164V475.909C451.689 480.812 455.615 484.899 460.687 484.899H776.599C781.507 484.899 785.597 480.976 785.597 475.909V32.3164C785.597 27.413 781.67 23.3269 776.599 23.3269H460.687V23.3269Z" fill="#D1E3FF"/>
<path d="M564.251 268.433H687.933V53.3378L564.251 53.3378V268.433Z" fill="#D1E3FF"/>
<path d="M557.598 268.433H681.279V53.3378L557.598 53.3378V268.433Z" fill="#F3F8FF"/>
<path d="M669.357 258.383V63.5552L569.724 63.5552V258.383H669.357Z" fill="white"/>
<path d="M574.774 258.242V63.4144H569.702V258.242H574.774Z" fill="#D1E3FF"/>
<path d="M562.669 211.385H676.371V197.818H562.669V211.385Z" fill="#F3F8FF"/>
<path d="M354.272 268.433H477.954V53.3378L354.272 53.3378V268.433Z" fill="#D1E3FF"/>
<path d="M347.456 268.433H471.137V53.3378L347.456 53.3378V268.433Z" fill="#F3F8FF"/>
<path d="M459.255 258.259L459.255 63.4315L359.622 63.4315L359.622 258.259H459.255Z" fill="white"/>
<path d="M364.671 258.282L364.671 63.4541H359.6L359.6 258.282H364.671Z" fill="#D1E3FF"/>
<path d="M352.527 211.385H466.229V197.818H352.527V211.385Z" fill="#F3F8FF"/>
<path d="M264.04 401.541C241.79 404.647 227.884 356.267 277.128 315.242C274.51 362.641 302.977 396.147 264.04 401.541Z" fill="url(#paint0_linear)"/>
<path d="M247.68 464.958C215.287 442.403 237.537 363.295 337.496 369.015C294.306 427.039 304.122 504.349 247.68 464.958Z" fill="#63AD55"/>
<path d="M259.132 464.304C280.563 441.259 249.97 383.072 172.751 404.32C216.432 442.566 221.667 504.676 259.132 464.304Z" fill="url(#paint1_linear)"/>
<path d="M231.483 430.634C224.121 421.645 215.287 411.348 217.414 400.724C219.541 389.936 224.939 381.928 220.686 370.486C215.614 356.757 216.596 340.412 225.103 341.72C233.61 343.027 243.263 353.161 243.099 366.4C242.935 379.312 251.443 383.399 259.295 390.263C267.148 397.128 270.257 407.098 271.729 417.068C274.183 432.596 294.469 429.654 299.868 443.22C305.431 456.295 294.306 473.621 276.637 477.707C258.968 481.793 246.371 484.245 234.265 470.352C221.995 455.805 242.608 443.547 231.483 430.634Z" fill="url(#paint2_linear)"/>
<path d="M292.343 558.122H225.921L221.013 467.737H297.414L292.343 558.122Z" fill="#E3EEFF"/>
<path d="M302.322 465.939H215.941V475.745H302.322V465.939Z" fill="#E3EEFF"/>
<path d="M684.162 545.869H728.824V352.185H684.162V545.869Z" fill="#E3EEFF"/>
<path d="M333.684 558.261H720.107V546.002H333.684V558.261Z" fill="#E3EEFF"/>
<path d="M684.001 352.344H325.226V546.027H684.001V352.344Z" fill="#F3F8FF"/>
<path d="M666.495 376.043H342.895V439.624H666.495V376.043Z" fill="#E3EEFF"/>
<path d="M666.495 458.584H342.895V522.164H666.495V458.584Z" fill="#E3EEFF"/>
<path d="M403.918 412.165H605.309C607.763 412.165 609.726 410.204 609.726 407.752C609.726 405.3 607.763 403.339 605.309 403.339H403.918C401.464 403.339 399.5 405.3 399.5 407.752C399.664 410.204 401.627 412.165 403.918 412.165Z" fill="#F3F8FF"/>
<path d="M403.918 494.705H605.309C607.763 494.705 609.726 492.744 609.726 490.292C609.726 487.841 607.763 485.879 605.309 485.879H403.918C401.464 485.879 399.5 487.841 399.5 490.292C399.664 492.744 401.627 494.705 403.918 494.705Z" fill="#F3F8FF"/>
<path d="M680.904 304.127H658V352.18H680.904V304.127Z" fill="url(#paint3_linear)"/>
<path d="M585.023 324.068C585.023 324.068 636.23 372.611 666.659 323.904C666.659 323.904 658.643 308.213 649.972 306.906C641.465 305.598 641.138 320.472 633.612 315.895C626.086 311.319 617.416 295.628 612.671 303.964C607.927 312.3 601.383 300.368 594.185 299.714C586.986 299.06 585.023 324.068 585.023 324.068Z" fill="#05BA69"/>
<path d="M669.931 320.635C669.931 320.635 668.786 352.18 625.596 352.18C582.405 352.18 581.26 320.635 581.26 320.635H669.931Z" fill="url(#paint4_linear)"/>
<path d="M451.525 304.127H476.392V352.18H403.427C403.427 325.702 425.022 304.127 451.525 304.127Z" fill="#F3F8FF"/>
<path d="M444 632C619.196 632 761.22 623.731 761.22 613.531C761.22 603.33 619.196 595.061 444 595.061C268.804 595.061 126.78 603.33 126.78 613.531C126.78 623.731 268.804 632 444 632Z" fill="#F0F6FF"/>
<path d="M391.648 256.401C391.158 257.055 390.994 257.545 390.503 257.872C390.176 258.362 389.849 258.853 389.522 259.18C388.867 259.997 388.213 260.814 387.395 261.631C385.922 263.266 384.45 264.9 382.978 266.371C379.869 269.313 376.597 272.092 373.162 274.543C369.726 276.995 366.127 279.283 362.2 281.245C360.237 282.225 358.438 283.206 356.474 283.86L353.53 285.004L352.712 285.331C352.221 285.494 351.894 285.658 351.403 285.821C350.421 285.985 349.44 286.148 348.458 286.148C346.331 286.148 344.368 285.494 342.896 284.677C341.423 283.86 340.114 282.879 339.133 281.899C337.17 279.937 335.697 277.976 334.552 276.014C332.262 272.092 330.626 268.169 329.317 264.246C326.699 256.401 324.9 248.556 323.754 240.547L330.626 239.076C331.934 242.671 333.08 246.431 334.552 249.863C335.861 253.459 337.333 257.055 338.969 260.324C340.605 263.593 342.241 267.025 344.204 269.64C345.186 270.948 346.168 272.092 347.149 272.909C347.64 273.236 347.967 273.399 348.131 273.563C348.294 273.563 348.294 273.563 348.294 273.563H348.131L348.622 273.236L351.076 272.092C352.712 271.275 354.184 270.294 355.82 269.477C358.928 267.679 361.873 265.554 364.818 263.429C367.599 261.141 370.38 258.853 372.834 256.238C374.143 254.93 375.288 253.622 376.434 252.315C376.924 251.661 377.579 251.007 378.07 250.353L378.888 249.373L379.542 248.556L391.648 256.401Z" fill="#CE7A63"/>
<path d="M371.853 255.747L380.196 275.524L374.143 279.283L364.818 261.304L371.853 255.747Z" fill="#14365B"/>
<path d="M395.248 238.912C381.669 238.749 367.927 255.911 367.6 256.237L378.234 281.408C378.234 281.408 401.956 262.121 403.264 254.603C404.573 246.758 403.919 239.076 395.248 238.912Z" fill="#0053CC"/>
<path d="M329.48 236.787L320.155 229.596L318.192 243.979C318.192 243.979 327.353 247.575 332.098 244.469L331.934 241.854C331.934 239.729 331.116 237.932 329.48 236.787Z" fill="#CE7A63"/>
<path d="M307.722 228.779L308.212 239.729L318.356 243.816L320.155 229.596L307.722 228.779Z" fill="#CE7A63"/>
<path d="M512.713 235.643L527.109 232.047L516.966 221.75C516.966 221.75 507.641 225.51 509.931 233.682L512.713 235.643Z" fill="#CE7A63"/>
<path d="M534.307 229.432L533.162 218.155L516.966 221.75L527.109 232.047L534.307 229.432Z" fill="#CE7A63"/>
<path d="M465.596 599.147L452.017 600.455L440.892 568.746L454.307 567.439L465.596 599.147Z" fill="#CE7A63"/>
<path d="M609.727 532.461L599.748 542.105L574.226 522.164L584.206 512.521L609.727 532.461Z" fill="#CE7A63"/>
<path d="M596.966 540.143L604.656 526.577C604.983 526.087 605.474 525.923 605.964 526.087L617.58 530.5C618.725 530.99 619.216 532.461 618.562 533.605C615.78 538.345 614.308 540.307 610.872 546.354C608.746 549.95 604.819 558.449 601.874 563.516C599.093 568.419 593.858 565.968 594.676 563.68C597.948 553.056 597.457 547.171 596.476 542.595C596.312 541.778 596.476 540.961 596.966 540.143Z" fill="#14365B"/>
<path d="M449.399 596.369H465.759C466.413 596.369 466.904 596.859 467.068 597.349L470.667 610.262C470.994 611.569 470.013 612.877 468.704 612.877C462.978 612.713 460.197 612.386 452.998 612.386C448.581 612.386 434.184 612.877 427.967 612.877C421.914 612.877 420.769 606.829 423.223 606.339C434.348 603.887 443.673 600.455 447.109 597.186C447.763 596.696 448.581 596.369 449.399 596.369Z" fill="#14365B"/>
<path d="M440.892 568.746L446.618 585.091H460.524L454.307 567.439L440.892 568.746Z" fill="#BC6753"/>
<path d="M584.206 512.521L574.226 522.164L587.478 532.461L597.294 522.818L584.206 512.521Z" fill="#BC6753"/>
<path d="M382.16 243.325C382.16 243.325 376.597 247.575 414.062 320.635C435.33 313.771 457.252 306.742 467.559 303.474C459.706 282.062 455.289 268.659 451.199 220.77C451.199 220.77 439.256 221.914 427.477 225.019C411.608 229.269 404.082 232.374 403.264 232.865C393.121 237.114 382.16 243.325 382.16 243.325Z" fill="#0053CC"/>
<path d="M416.352 198.541C417.334 206.877 420.442 221.587 427.641 225.019C427.641 225.019 428.132 233.682 413.571 238.258C397.702 243.325 403.428 232.865 403.428 232.865C411.444 227.961 409.154 221.587 405.718 216.03L416.352 198.541Z" fill="#CE7A63"/>
<path d="M389.522 239.403C393.448 237.278 398.52 234.826 403.264 232.865C410.953 229.596 418.479 227.471 427.477 225.019C432.221 223.712 436.802 222.731 440.892 222.077C441.219 223.221 440.074 226 437.293 230.086C428.622 237.278 409.808 246.758 396.066 246.431C390.34 244.142 388.704 241.854 389.522 239.403Z" fill="#CE7A63"/>
<path d="M437.457 230.086C433.694 235.48 426.823 242.998 416.352 251.007C406.863 249.536 400.483 248.065 396.229 246.431C409.972 246.758 428.622 237.278 437.457 230.086Z" fill="#14365B"/>
<path d="M411.935 205.569L405.554 215.866C406.372 217.174 407.19 218.481 407.681 219.952C410.789 218.481 414.879 213.742 414.061 210.146C413.734 208.511 412.425 206.386 411.935 205.569Z" fill="#BC6753"/>
<path d="M419.624 183.177C420.442 196.907 421.096 202.627 415.043 210.473C406.045 222.241 389.031 220.279 384.123 207.04C379.706 195.272 379.051 174.841 391.812 167.813C404.246 160.785 418.806 169.448 419.624 183.177Z" fill="#CE7A63"/>
<path d="M446.475 158.624C449.559 145.069 441.061 131.582 427.493 128.5C413.925 125.418 400.425 133.908 397.34 147.463C394.256 161.019 402.754 174.506 416.322 177.588C429.89 180.67 443.39 172.179 446.475 158.624Z" fill="#0F264C"/>
<path d="M415.698 163.89C420.933 167.323 423.55 172.553 421.424 175.659C419.46 178.764 413.571 178.437 408.336 175.005C403.1 171.572 400.483 166.342 402.61 163.237C404.573 160.295 410.462 160.622 415.698 163.89Z" fill="#9FC6FF"/>
<path d="M412.917 192.494C414.225 189.388 409.481 180.072 410.626 176.476C407.845 174.024 380.36 182.85 382.651 176.312C384.777 170.101 391.485 161.766 406.863 165.198C423.223 168.957 424.696 183.014 422.896 187.59C421.097 192.167 418.479 196.743 418.479 196.743L412.917 192.494Z" fill="#0F264C"/>
<path d="M423.223 195.109C423.223 197.887 422.078 200.502 420.442 202.137C417.988 204.589 415.043 202.791 414.225 199.685C413.571 196.743 414.062 192.003 417.17 190.696C420.278 189.388 423.06 191.84 423.223 195.109Z" fill="#CE7A63"/>
<path d="M414.062 320.635C414.062 320.635 389.358 441.258 403.1 481.139C417.497 522.491 440.892 580.351 440.892 580.351L462.651 579.043C462.651 579.043 444.655 505.983 440.238 472.967C434.184 427.529 460.197 305.762 460.197 305.762L414.062 320.635Z" fill="#9FC6FF"/>
<path d="M464.45 579.534L439.092 581.005L435.002 571.198L462.978 568.256L464.45 579.534Z" fill="#0053CC"/>
<path d="M440.238 329.952C436.475 344.008 439.583 364.929 446.782 379.803C448.581 368.361 450.381 357.247 452.181 347.277C448.581 340.249 444.491 333.874 440.238 329.952Z" fill="#77B3FC"/>
<path d="M428.131 316.059C428.131 316.059 464.941 403.829 489.318 452.046C508.95 491.109 581.752 531.807 581.752 531.807L594.84 517.915C594.84 517.915 540.361 469.535 526.782 443.22C483.265 358.555 492.263 321.616 467.395 303.31L428.131 316.059Z" fill="#9FC6FF"/>
<path d="M597.294 516.117L579.298 535.24L568.009 529.192L588.623 508.108L597.294 516.117Z" fill="#0053CC"/>
<path d="M467.232 300.041L471.158 303.964C471.485 304.291 471.158 304.781 470.504 304.944L414.552 323.087C414.062 323.25 413.571 323.087 413.407 322.923L411.444 318.347C411.28 318.02 411.608 317.693 412.098 317.366L466.25 299.878C466.741 299.714 467.068 299.878 467.232 300.041Z" fill="#14365B"/>
<path d="M461.996 308.377L463.469 307.887C463.796 307.723 463.96 307.56 463.796 307.396L461.178 301.349C461.178 301.185 460.851 301.185 460.524 301.185L459.052 301.676C458.724 301.839 458.561 302.002 458.724 302.166L461.342 308.213C461.342 308.377 461.669 308.54 461.996 308.377Z" fill="#9FC6FF"/>
<path d="M418.806 322.27L420.279 321.779C420.606 321.616 420.77 321.452 420.606 321.289L417.988 315.241C417.988 315.078 417.661 315.078 417.334 315.078L415.862 315.568C415.534 315.732 415.371 315.895 415.534 316.059L418.152 322.106C418.152 322.27 418.479 322.433 418.806 322.27Z" fill="#9FC6FF"/>
<path d="M440.401 315.405L441.874 314.915C442.201 314.751 442.364 314.588 442.201 314.424L439.583 308.377C439.583 308.213 439.256 308.213 438.929 308.213L437.456 308.704C437.129 308.867 436.966 309.031 437.129 309.194L439.747 315.242C439.747 315.405 440.074 315.405 440.401 315.405Z" fill="#9FC6FF"/>
<path d="M399.502 189.388C399.665 190.532 399.174 191.513 398.356 191.513C397.702 191.676 396.884 190.696 396.72 189.715C396.557 188.571 397.048 187.59 397.866 187.59C398.52 187.427 399.338 188.244 399.502 189.388Z" fill="#0F264C"/>
<path d="M386.904 191.022C387.067 192.167 386.577 193.147 385.759 193.147C384.941 193.147 384.286 192.33 384.123 191.349C383.959 190.205 384.45 189.225 385.268 189.225C386.086 189.061 386.74 189.878 386.904 191.022Z" fill="#0F264C"/>
<path d="M385.759 189.061L382.978 188.571C382.978 188.734 384.614 190.532 385.759 189.061Z" fill="#0F264C"/>
<path d="M390.503 192.494C390.503 192.494 389.195 197.56 387.395 200.012C389.031 201.156 391.485 200.339 391.485 200.339L390.503 192.494Z" fill="#BA4D3C"/>
<path d="M395.738 204.098C395.575 204.098 395.411 203.935 395.411 203.771C395.411 203.608 395.575 203.444 395.738 203.444C400.646 202.791 402.446 199.195 402.446 199.195C402.446 199.031 402.773 199.031 402.937 199.031C403.1 199.031 403.1 199.358 403.1 199.522C402.937 199.685 400.974 203.444 395.738 204.098Z" fill="#0F264C"/>
<path d="M400.974 185.465C400.81 185.465 400.646 185.465 400.483 185.302C398.356 183.341 396.066 183.994 395.902 183.994C395.575 184.158 395.248 183.831 395.084 183.504C394.92 183.177 395.248 182.85 395.575 182.687C395.738 182.687 398.683 181.87 401.301 184.158C401.628 184.321 401.628 184.812 401.301 185.138C401.301 185.465 401.137 185.465 400.974 185.465Z" fill="#0F264C"/>
<path d="M380.524 185.956C380.36 185.956 380.36 185.956 380.197 185.956C379.869 185.792 379.706 185.465 379.869 185.139C381.505 181.87 384.45 181.543 384.614 181.543C384.941 181.543 385.268 181.706 385.268 182.197C385.268 182.523 385.105 182.85 384.614 182.85C384.45 182.85 382.16 183.177 380.851 185.792C380.851 185.792 380.687 185.956 380.524 185.956Z" fill="#0F264C"/>
<path d="M461.996 233.355L462.651 234.172L463.469 235.153C463.96 235.807 464.614 236.46 465.105 237.114C466.25 238.422 467.395 239.566 468.704 240.71C471.158 243.162 473.776 245.45 476.557 247.575C479.338 249.7 482.119 251.661 485.228 253.459C486.7 254.276 488.172 255.257 489.808 256.074L492.099 257.218L493.244 257.872C493.571 258.035 493.735 258.199 494.062 258.199C495.207 258.689 496.025 258.689 496.68 258.689C497.334 258.689 498.152 258.526 498.97 257.872C500.77 256.728 502.569 254.113 504.042 251.171C505.514 248.229 506.659 244.96 507.641 241.527C508.622 238.095 509.44 234.499 510.095 231.067L517.13 231.557C517.13 239.566 516.312 247.248 513.694 255.257C513.04 257.218 512.058 259.179 510.913 261.304C509.768 263.266 508.295 265.39 506.332 267.188C504.369 268.986 501.588 270.457 498.479 270.948C495.534 271.438 492.426 271.111 489.972 270.294C489.318 270.13 488.663 269.967 488.172 269.64L486.7 268.986L483.919 267.842C482.119 267.025 480.32 266.208 478.52 265.227C474.921 263.266 471.485 261.141 468.213 258.853C464.941 256.401 461.833 253.949 458.888 251.171C457.416 249.7 455.943 248.229 454.634 246.758C453.98 245.94 453.326 245.123 452.671 244.306L451.69 242.998C451.362 242.508 451.035 242.181 450.544 241.527L461.996 233.355Z" fill="#CE7A63"/>
<path d="M473.612 242.018L463.305 259.18L458.397 254.44L467.886 237.278L473.612 242.018Z" fill="#14365B"/>
<path d="M451.199 220.606C457.089 220.443 471.322 237.441 471.322 237.441L458.888 259.016C458.888 259.016 443.019 245.123 443.019 237.441C443.183 229.432 444.491 220.77 451.199 220.606Z" fill="#0053CC"/>
<path d="M594.185 547.498C593.694 547.498 593.367 547.335 592.877 547.008C592.386 546.681 592.386 546.191 592.386 546.027C592.549 544.229 596.966 541.941 597.457 541.614C597.621 541.614 597.784 541.614 597.784 541.614C597.948 541.778 597.948 541.778 597.948 541.941C597.457 543.739 596.312 546.681 594.676 547.335C594.513 547.498 594.349 547.498 594.185 547.498ZM597.13 542.595C595.33 543.576 593.204 545.047 593.04 546.027C593.04 546.191 593.04 546.354 593.204 546.518C593.531 546.845 594.022 546.845 594.349 546.845C595.494 546.518 596.476 545.047 597.13 542.595Z" fill="#407BFF"/>
<path d="M593.531 543.249C592.713 543.249 591.895 543.085 591.568 542.758C591.404 542.595 591.077 542.105 591.241 541.287C591.404 540.797 591.732 540.47 592.222 540.307C594.186 539.653 597.621 541.614 597.785 541.614C597.948 541.614 597.948 541.778 597.948 541.941C597.948 542.105 597.948 542.105 597.785 542.268C597.13 542.758 595.167 543.249 593.531 543.249ZM593.204 540.797C592.877 540.797 592.713 540.797 592.55 540.961C592.222 541.124 592.059 541.287 591.895 541.614C591.732 541.941 591.895 542.105 591.895 542.268C592.55 542.922 595.331 542.595 596.967 541.941C595.985 541.451 594.513 540.797 593.204 540.797Z" fill="#407BFF"/>
<path d="M442.201 598.984C440.892 598.984 439.747 598.82 438.929 598.167C438.438 597.84 438.111 597.186 438.111 596.532C438.111 596.042 438.274 595.715 438.602 595.715C440.074 594.734 445.636 597.186 446.782 597.84C446.945 597.84 446.945 598.003 446.945 598.167C446.945 598.33 446.782 598.494 446.618 598.494C445.473 598.82 443.673 598.984 442.201 598.984ZM439.583 596.205C439.256 596.205 439.092 596.205 438.929 596.369C438.929 596.369 438.765 596.532 438.765 596.696C438.765 597.186 438.929 597.513 439.42 597.84C440.728 598.82 443.837 598.494 445.636 598.167C443.51 597.186 440.892 596.205 439.583 596.205Z" fill="#407BFF"/>
<path d="M446.618 598.493C446.455 598.493 446.455 598.493 446.618 598.493C444.655 597.676 440.892 594.734 441.056 593.1C441.056 592.773 441.383 592.283 442.201 592.283C445.473 591.792 446.782 597.84 446.945 598.003C446.945 598.167 446.945 598.167 446.782 598.33C446.618 598.493 446.618 598.493 446.618 598.493ZM442.528 592.936H442.365C442.038 592.936 441.874 593.1 441.874 593.263C441.71 594.08 444.328 596.532 446.291 597.513C445.637 596.205 444.492 592.936 442.528 592.936Z" fill="#407BFF"/>
<path d="M398.192 187.59L395.411 187.1C395.411 187.1 397.047 189.061 398.192 187.59Z" fill="#0F264C"/>
<path d="M295.779 73.3414C292.834 76.9372 276.965 81.1868 264.204 80.0427C259.787 108.646 275.165 141.662 275.165 141.662C275.165 141.662 308.212 137.739 309.194 124.01C310.012 110.444 295.779 73.3414 295.779 73.3414Z" fill="url(#paint5_linear)"/>
<path d="M546.578 51.6031C549.522 55.6893 564.574 59.9389 576.189 57.8141C582.406 91.6474 570.954 132.019 570.954 132.019C570.954 132.019 540.034 129.24 538.234 113.059C536.434 96.7143 546.578 51.6031 546.578 51.6031Z" fill="url(#paint6_linear)"/>
<path d="M329.48 345.152C328.499 345.316 327.517 344.662 327.353 343.681L288.58 68.2746C288.417 67.2939 289.071 66.3132 290.053 66.1498C291.034 65.9863 292.016 66.6401 292.179 67.6208L331.116 343.191C331.116 344.171 330.462 344.989 329.48 345.152Z" fill="#0053CC"/>
<path d="M514.676 324.721C515.657 324.885 516.639 324.231 516.802 323.25L555.739 47.8438C555.903 46.8631 555.248 45.8824 554.267 45.719C553.285 45.5556 552.304 46.2093 552.14 47.19L513.203 322.597C512.876 323.577 513.694 324.558 514.676 324.721Z" fill="#0053CC"/>
<path d="M287.108 74.1586L294.47 128.259C294.633 129.73 296.106 130.711 297.578 130.221C314.102 125.481 405.554 102.108 546.087 116.982C547.395 117.145 548.541 116.328 548.704 115.02C551.322 101.291 555.903 62.3905 557.048 52.2569C557.211 50.9493 556.23 49.8052 554.921 49.6417C536.107 47.19 407.19 32.9702 288.744 71.5435C287.599 71.8704 286.944 73.0145 287.108 74.1586Z" fill="url(#paint7_linear)"/>
<path d="M310.667 83.475L318.356 81.8406L323.918 96.0604L325.227 80.3696L332.916 78.7351L339.787 92.628L339.951 77.2641L347.64 75.6296L346.659 103.252L338.642 104.886L330.953 89.1957L329.317 106.848L321.301 108.482L310.667 83.475Z" fill="white"/>
<path d="M351.403 75.6296L373.489 72.3607L374.143 78.0813L360.401 80.0427L360.892 84.2923L373.652 82.4944L374.307 87.8881L361.546 89.686L362.2 94.9163L376.434 92.7915L377.252 98.839L354.838 102.108L351.403 75.6296Z" fill="white"/>
<path d="M379.051 71.7069L387.395 70.8896L389.194 91.157L402.119 89.6859L402.773 96.2238L381.669 98.512L379.051 71.7069Z" fill="white"/>
<path d="M422.896 83.6385L430.258 85.2729C429.931 87.3977 429.113 89.0322 428.295 90.5032C427.313 91.9742 426.004 93.1183 424.532 93.9356C423.06 94.7528 421.096 95.2431 418.642 95.4066C415.698 95.57 413.244 95.4066 411.444 94.5893C409.481 93.9356 407.845 92.4645 406.372 90.5032C404.9 88.3784 404.082 85.7633 403.918 82.4943C403.755 78.0813 404.736 74.4855 406.863 72.0338C409.154 69.4186 412.426 68.1111 416.679 67.7842C420.115 67.6207 422.732 68.1111 424.696 69.2552C426.659 70.5628 428.295 72.5241 429.276 75.3027L422.078 77.4275C421.751 76.6103 421.424 76.1199 421.26 75.6296C420.769 74.9758 420.115 74.6489 419.46 74.322C418.806 73.9951 417.988 73.8317 417.17 73.9951C415.37 74.1586 413.898 74.9758 412.916 76.6103C412.262 77.7544 411.935 79.5523 412.098 82.004C412.262 84.946 412.753 87.0708 413.734 88.0515C414.716 89.0322 416.025 89.5225 417.661 89.3591C419.297 89.1956 420.442 88.7053 421.26 87.7246C422.078 86.7439 422.569 85.4364 422.896 83.6385Z" fill="white"/>
<path d="M433.203 80.533C433.203 76.12 434.348 72.6876 436.802 70.0725C439.256 67.6208 442.528 66.1498 446.945 65.9863C451.362 65.8229 454.798 66.967 457.252 69.2552C459.706 71.5435 461.015 74.9758 461.015 79.2254C461.015 82.3309 460.524 84.946 459.542 87.0708C458.561 89.1956 456.925 90.6667 454.961 91.9742C452.998 93.1184 450.544 93.7721 447.436 93.9356C444.327 94.099 441.873 93.6087 439.91 92.7915C437.947 91.8108 436.311 90.3398 435.002 88.3784C433.857 86.2536 433.203 83.6385 433.203 80.533ZM441.546 80.3696C441.546 83.1481 442.037 85.1095 443.182 86.2536C444.164 87.3977 445.636 87.8881 447.272 87.8881C449.072 87.8881 450.381 87.2343 451.362 85.9267C452.344 84.7826 452.835 82.6578 452.671 79.5523C452.671 76.9372 452.18 75.1393 451.035 73.9952C450.053 72.851 448.581 72.3607 446.781 72.3607C445.145 72.3607 443.837 73.0145 442.691 74.3221C442.037 75.6296 441.546 77.591 441.546 80.3696Z" fill="white"/>
<path d="M466.087 65.9863L477.048 66.1498L480.811 82.6578L485.391 66.3132L496.353 66.4767L495.535 93.2818H488.663L489.154 72.6876L483.428 93.2818H477.211L472.467 72.6876L471.976 93.2818H465.105L466.087 65.9863Z" fill="white"/>
<path d="M502.242 66.4767L524.492 67.4574L524.165 73.178L510.259 72.5242L509.932 76.7738L522.856 77.4276L522.529 82.9847L509.604 82.4944L509.277 87.8881L523.51 88.5419L523.183 94.5894L500.606 93.6087L502.242 66.4767Z" fill="white"/>
</g>
<defs>
<linearGradient id="paint0_linear" x1="264.252" y1="328.165" x2="264.252" y2="467.826" gradientUnits="userSpaceOnUse">
<stop stop-color="#35C1E8"/>
<stop offset="0.2441" stop-color="#2DB7DC"/>
<stop offset="0.6791" stop-color="#199DBE"/>
<stop offset="1" stop-color="#0786A3"/>
</linearGradient>
<linearGradient id="paint1_linear" x1="172.743" y1="438.589" x2="265.802" y2="438.589" gradientUnits="userSpaceOnUse">
<stop stop-color="#B628DA"/>
<stop offset="1" stop-color="#780BBA"/>
</linearGradient>
<linearGradient id="paint2_linear" x1="217.098" y1="411.275" x2="301.308" y2="411.275" gradientUnits="userSpaceOnUse">
<stop offset="0.15481" stop-color="#0EF0E4"/>
<stop offset="1" stop-color="#0AC1B8"/>
</linearGradient>
<linearGradient id="paint3_linear" x1="657.998" y1="328.157" x2="680.904" y2="328.157" gradientUnits="userSpaceOnUse">
<stop stop-color="#B628DA"/>
<stop offset="1" stop-color="#780BBA"/>
</linearGradient>
<linearGradient id="paint4_linear" x1="625.598" y1="325.352" x2="625.598" y2="376.318" gradientUnits="userSpaceOnUse">
<stop stop-color="#35C1E8"/>
<stop offset="0.2441" stop-color="#2DB7DC"/>
<stop offset="0.6791" stop-color="#199DBE"/>
<stop offset="1" stop-color="#0786A3"/>
</linearGradient>
<linearGradient id="paint5_linear" x1="275.226" y1="86.357" x2="299.737" y2="120.243" gradientUnits="userSpaceOnUse">
<stop stop-color="#FFE887"/>
<stop offset="0.3849" stop-color="#F7C359"/>
<stop offset="0.7923" stop-color="#F0A02E"/>
<stop offset="1" stop-color="#ED931D"/>
</linearGradient>
<linearGradient id="paint6_linear" x1="548.343" y1="66.9229" x2="578.71" y2="98.0729" gradientUnits="userSpaceOnUse">
<stop stop-color="#FFE887"/>
<stop offset="0.3849" stop-color="#F7C359"/>
<stop offset="0.7923" stop-color="#F0A02E"/>
<stop offset="1" stop-color="#ED931D"/>
</linearGradient>
<linearGradient id="paint7_linear" x1="356.725" y1="61.3128" x2="366.372" y2="124.265" gradientUnits="userSpaceOnUse">
<stop stop-color="#FFE887"/>
<stop offset="0.3849" stop-color="#F7C359"/>
<stop offset="0.7923" stop-color="#F0A02E"/>
<stop offset="1" stop-color="#ED931D"/>
</linearGradient>
<clipPath id="clip0">
<rect width="818" height="609" fill="white" transform="translate(35 23)"/>
</clipPath>
</defs>
</svg>
