<?xml version="1.0" encoding="utf-8"?>
<!-- Generator: Adobe Illustrator 25.0.0, SVG Export Plug-In . SVG Version: 6.00 Build 0)  -->
<svg version="1.1" id="Layer_1" xmlns="http://www.w3.org/2000/svg" xmlns:xlink="http://www.w3.org/1999/xlink" x="0px" y="0px"
	 viewBox="0 0 214.6 41" style="enable-background:new 0 0 214.6 41;" xml:space="preserve">
<style type="text/css">
	.st0{fill:url(#SVGID_1_);}
	.st1{fill:url(#SVGID_2_);}
	.st2{fill:#FFFFFF;}
</style>
<g>
	<g>
		
			<linearGradient id="SVGID_1_" gradientUnits="userSpaceOnUse" x1="1.4" y1="23.55" x2="31.7815" y2="23.55" gradientTransform="matrix(1 0 0 -1 0 42)">
			<stop  offset="0" style="stop-color:#F29130"/>
			<stop  offset="0.3868" style="stop-color:#F0595A"/>
			<stop  offset="1" style="stop-color:#ED3475"/>
		</linearGradient>
		<path class="st0" d="M16.6,5.3c-8.4,0-15.2,6.8-15.2,15.2c0,3.3,1,6.3,2.8,8.8c0.6,0.8,1.3,1.6,2,2.3l1.6-2.8
			c4.9-4.7,12.7-4.7,17.6-0.1l1.6,2.8c0.7-0.7,1.4-1.5,2-2.3c1.7-2.5,2.7-5.5,2.7-8.7C31.8,12.1,25,5.3,16.6,5.3z M10.7,23.9l6-10.3
			L22.8,24C19.1,21.9,14.5,21.8,10.7,23.9z M27.3,26.1l-9-15.4H15L6,26.3c-0.9-1.7-1.5-3.7-1.5-5.8c0-6.7,5.4-12.1,12.1-12.1
			s12.1,5.4,12.1,12.1C28.7,22.5,28.2,24.5,27.3,26.1z"/>
		
			<linearGradient id="SVGID_2_" gradientUnits="userSpaceOnUse" x1="7.3468" y1="9.25" x2="25.8905" y2="9.25" gradientTransform="matrix(1 0 0 -1 0 42)">
			<stop  offset="0" style="stop-color:#F29130"/>
			<stop  offset="0.3868" style="stop-color:#F0595A"/>
			<stop  offset="1" style="stop-color:#ED3475"/>
		</linearGradient>
		<path class="st1" d="M16.6,32.6c-2.9,0-5.6-1-7.7-2.8l-1.6,2.7c2.6,2,5.8,3.2,9.3,3.2s6.7-1.2,9.3-3.2l-1.6-2.7
			C22.2,31.6,19.5,32.6,16.6,32.6z"/>
	</g>
	<g>
		<path class="st2" d="M54.7,26.7H44.2l-2.1,4.9h-4l9.4-21h3.8l9.5,21h-4.1L54.7,26.7z M53.4,23.6l-4-9.2l-3.9,9.2H53.4z"/>
		<path class="st2" d="M64.2,31.2c-1.2-0.3-2.2-0.8-3-1.3l1.4-2.9c0.7,0.5,1.6,0.9,2.6,1.2c1,0.3,2,0.4,3,0.4c2.2,0,3.4-0.6,3.4-1.8
			c0-0.6-0.3-0.9-0.9-1.2c-0.6-0.2-1.5-0.4-2.7-0.6c-1.3-0.2-2.4-0.4-3.2-0.7c-0.8-0.3-1.6-0.7-2.2-1.4c-0.6-0.7-0.9-1.6-0.9-2.7
			c0-1.5,0.6-2.7,1.9-3.6c1.3-0.9,3-1.4,5.1-1.4c1.1,0,2.2,0.1,3.3,0.4c1.1,0.3,2,0.6,2.7,1l-1.4,2.8c-1.4-0.8-2.9-1.2-4.6-1.2
			c-1.1,0-1.9,0.2-2.5,0.5s-0.9,0.8-0.9,1.3c0,0.6,0.3,1,0.9,1.3c0.6,0.2,1.6,0.5,2.8,0.7c1.3,0.2,2.3,0.4,3.1,0.7
			c0.8,0.3,1.5,0.7,2.1,1.3c0.6,0.6,0.9,1.5,0.9,2.6c0,1.5-0.6,2.7-1.9,3.6s-3.1,1.3-5.3,1.3C66.7,31.7,65.4,31.6,64.2,31.2z"/>
		<path class="st2" d="M81.3,30.7C80,30,79,29,78.3,27.8s-1.1-2.7-1.1-4.2s0.4-3,1.1-4.2s1.7-2.2,3-2.9c1.3-0.7,2.8-1.1,4.4-1.1
			s3.1,0.4,4.4,1.1s2.3,1.7,3,2.9c0.7,1.2,1.1,2.6,1.1,4.2s-0.4,3-1.1,4.2s-1.7,2.2-3,2.9c-1.3,0.7-2.8,1-4.4,1
			C84.1,31.7,82.6,31.4,81.3,30.7z M89.1,27.1c0.9-0.9,1.4-2.1,1.4-3.6s-0.5-2.7-1.4-3.6s-2-1.4-3.4-1.4s-2.5,0.5-3.4,1.4
			C81.4,20.8,81,22,81,23.5s0.4,2.7,1.3,3.6s2,1.4,3.4,1.4C87.1,28.5,88.2,28.1,89.1,27.1z"/>
		<path class="st2" d="M122.9,17.1c1.2,1.2,1.8,2.9,1.8,5.3v9.2h-3.8v-8.7c0-1.4-0.3-2.5-0.9-3.2s-1.5-1.1-2.7-1.1
			c-1.3,0-2.3,0.4-3,1.2c-0.8,0.8-1.1,2-1.1,3.6v8.1h-3.8v-8.7c0-1.4-0.3-2.5-0.9-3.2s-1.5-1.1-2.7-1.1c-1.3,0-2.3,0.4-3,1.2
			c-0.8,0.8-1.1,2-1.1,3.6v8.1h-3.8v-16h3.6v2c0.6-0.7,1.4-1.3,2.2-1.6c0.9-0.4,1.9-0.6,3-0.6c1.2,0,2.3,0.2,3.2,0.7
			c0.9,0.4,1.7,1.1,2.2,2c0.7-0.8,1.5-1.5,2.5-2s2.2-0.7,3.5-0.7C120.1,15.3,121.7,15.9,122.9,17.1z"/>
		<path class="st2" d="M142.5,16.3c1.2,0.7,2.2,1.6,2.9,2.9c0.7,1.2,1,2.7,1,4.3s-0.4,3.1-1,4.3c-0.7,1.2-1.7,2.2-2.9,2.9
			c-1.2,0.7-2.6,1-4.2,1c-1.1,0-2.1-0.2-3-0.6s-1.7-0.9-2.3-1.7v2.1h-3.6V9.3h3.8v8.2c0.6-0.7,1.4-1.2,2.3-1.6
			c0.9-0.4,1.8-0.5,2.9-0.5C139.9,15.3,141.3,15.7,142.5,16.3z M141.3,27.1c0.9-0.9,1.3-2.1,1.3-3.6s-0.4-2.7-1.3-3.6
			c-0.9-0.9-2-1.4-3.4-1.4c-0.9,0-1.7,0.2-2.4,0.6s-1.3,1-1.7,1.8s-0.6,1.6-0.6,2.6s0.2,1.9,0.6,2.6c0.4,0.8,1,1.3,1.7,1.8
			c0.7,0.4,1.5,0.6,2.4,0.6C139.3,28.5,140.4,28.1,141.3,27.1z"/>
		<path class="st2" d="M159.3,15.3v3.6c-0.3-0.1-0.6-0.1-0.9-0.1c-1.5,0-2.6,0.4-3.4,1.3c-0.8,0.9-1.2,2.1-1.2,3.7v7.8H150v-16h3.6
			v2.3C154.7,16.2,156.6,15.3,159.3,15.3z"/>
		<path class="st2" d="M165.1,30.7c-1.3-0.7-2.3-1.7-3-2.9c-0.7-1.2-1.1-2.7-1.1-4.2s0.4-3,1.1-4.2c0.7-1.2,1.7-2.2,3-2.9
			c1.3-0.7,2.8-1.1,4.4-1.1c1.6,0,3.1,0.4,4.4,1.1c1.3,0.7,2.3,1.7,3,2.9c0.7,1.2,1.1,2.6,1.1,4.2s-0.4,3-1.1,4.2
			c-0.7,1.2-1.7,2.2-3,2.9c-1.3,0.7-2.8,1-4.4,1C167.9,31.7,166.4,31.4,165.1,30.7z M172.9,27.1c0.9-0.9,1.3-2.1,1.3-3.6
			s-0.4-2.7-1.3-3.6c-0.9-0.9-2-1.4-3.4-1.4s-2.5,0.5-3.4,1.4s-1.3,2.1-1.3,3.6s0.4,2.7,1.3,3.6s2,1.4,3.4,1.4S172,28.1,172.9,27.1z
			"/>
		<path class="st2" d="M182.8,31.2c-1.2-0.3-2.2-0.8-3-1.3l1.4-2.9c0.7,0.5,1.6,0.9,2.6,1.2c1,0.3,2,0.4,3,0.4
			c2.2,0,3.4-0.6,3.4-1.8c0-0.6-0.3-0.9-0.9-1.2c-0.6-0.2-1.5-0.4-2.7-0.6c-1.3-0.2-2.4-0.4-3.2-0.7c-0.8-0.3-1.5-0.7-2.2-1.4
			c-0.6-0.7-0.9-1.6-0.9-2.7c0-1.5,0.6-2.7,1.9-3.6c1.3-0.9,3-1.4,5.1-1.4c1.1,0,2.2,0.1,3.3,0.4c1.1,0.3,2,0.6,2.7,1l-1.4,2.8
			c-1.4-0.8-2.9-1.2-4.6-1.2c-1.1,0-1.9,0.2-2.5,0.5s-0.9,0.8-0.9,1.3c0,0.6,0.3,1,0.9,1.3c0.6,0.2,1.6,0.5,2.8,0.7
			c1.3,0.2,2.3,0.4,3.2,0.7c0.8,0.3,1.5,0.7,2.1,1.3s0.9,1.5,0.9,2.6c0,1.5-0.7,2.7-2,3.6s-3.1,1.3-5.3,1.3
			C185.3,31.7,184,31.6,182.8,31.2z"/>
		<path class="st2" d="M199.9,30.7c-1.3-0.7-2.3-1.7-3-2.9c-0.7-1.2-1.1-2.7-1.1-4.2s0.4-3,1.1-4.2c0.7-1.2,1.7-2.2,3-2.9
			c1.3-0.7,2.8-1.1,4.4-1.1c1.6,0,3.1,0.4,4.4,1.1c1.3,0.7,2.3,1.7,3,2.9c0.7,1.2,1.1,2.6,1.1,4.2s-0.4,3-1.1,4.2
			c-0.7,1.2-1.7,2.2-3,2.9c-1.3,0.7-2.8,1-4.4,1C202.7,31.7,201.2,31.4,199.9,30.7z M207.7,27.1c0.9-0.9,1.3-2.1,1.3-3.6
			s-0.4-2.7-1.3-3.6c-0.9-0.9-2-1.4-3.4-1.4s-2.5,0.5-3.4,1.4s-1.3,2.1-1.3,3.6s0.4,2.7,1.3,3.6s2,1.4,3.4,1.4
			S206.8,28.1,207.7,27.1z"/>
	</g>
</g>
</svg>
