<?xml version="1.0" encoding="utf-8"?>
<!-- Generator: Adobe Illustrator 24.0.0, SVG Export Plug-In . SVG Version: 6.00 Build 0)  -->
<svg version="1.1" id="Layer_1" xmlns="http://www.w3.org/2000/svg" xmlns:xlink="http://www.w3.org/1999/xlink" x="0px" y="0px"
	 viewBox="0 0 422.5 203" style="enable-background:new 0 0 422.5 203;" xml:space="preserve">
<style type="text/css">
	.st0{clip-path:url(#SVGID_2_);}
	.st1{opacity:0.5947;fill:url(#SVGID_3_);enable-background:new    ;}
	.st2{opacity:0.9231;}
	.st3{opacity:0.5218;fill-rule:evenodd;clip-rule:evenodd;fill:url(#SVGID_4_);enable-background:new    ;}
	.st4{opacity:0.5218;fill-rule:evenodd;clip-rule:evenodd;fill:url(#SVGID_5_);enable-background:new    ;}
</style>
<g>
	<defs>
		<rect id="SVGID_1_" x="-492.5" width="915" height="203"/>
	</defs>
	<clipPath id="SVGID_2_">
		<use xlink:href="#SVGID_1_"  style="overflow:visible;"/>
	</clipPath>
	<g class="st0">
		
			<linearGradient id="SVGID_3_" gradientUnits="userSpaceOnUse" x1="206.4545" y1="347.894" x2="250.9116" y2="25.144" gradientTransform="matrix(1 0 0 -1 0 204)">
			<stop  offset="0" style="stop-color:#E5EAF9"/>
			<stop  offset="1" style="stop-color:#F4F6FF"/>
		</linearGradient>
		<path class="st1" d="M482.9,253c-12.7,16.4-152.4,40.4-156.1,40.8c-25.4,3.1-64.6-40.3-91.9-17.4c-55.3,46.3-200.1,56-201.8,31.8
			C32.2,294.5-15.4,230,7.7,167c13.9-37.9,93.6-47.4,124.9-78C184.1,38.8,103.7-32.1,198-48c0.5-0.1,1-0.1,1.5-0.2
			c81.7-6,226.9-34.7,254.3,7C475.1-8.6,528.5,194.6,482.9,253z"/>
		<g class="st2">
			
				<linearGradient id="SVGID_4_" gradientUnits="userSpaceOnUse" x1="-305.2005" y1="-1280.5182" x2="173.0695" y2="454.6141" gradientTransform="matrix(1 0 0 -1 0 204)">
				<stop  offset="0" style="stop-color:#A9C6FF"/>
				<stop  offset="1" style="stop-color:#DCE9FF"/>
			</linearGradient>
			<path class="st3" d="M66,175.8c0.3-0.2,0.5-0.6,0.4-1c0-0.3-0.2-0.5-0.4-0.6c-0.2-0.2-0.5-0.2-0.7-0.2c-0.4,0.1-0.7,0.4-0.8,0.8
				c-0.1,0.4,0.1,0.8,0.4,1C65.2,176.1,65.7,176.1,66,175.8z M58.5,175.8c0.1,0.4-0.1,0.8-0.5,1c-0.3,0.2-0.8,0.2-1.1,0
				c-0.3-0.2-0.5-0.6-0.4-1c0.1-0.4,0.4-0.7,0.8-0.8c0.3,0,0.5,0,0.7,0.2C58.3,175.3,58.4,175.6,58.5,175.8z M50.6,179
				c0.5-0.1,0.9-0.6,0.8-1.1c0-0.3-0.2-0.5-0.4-0.7c-0.2-0.2-0.5-0.2-0.7-0.2c-0.5,0.1-0.9,0.6-0.8,1.2
				C49.6,178.7,50.1,179.1,50.6,179z M44.5,178.8c0.1,0.5-0.3,1.1-0.8,1.1c-0.5,0.1-1.1-0.3-1.1-0.8c-0.1-0.5,0.3-1.1,0.8-1.2
				c0.3,0,0.5,0,0.8,0.2C44.3,178.3,44.4,178.6,44.5,178.8z M36,180.9c0.3-0.2,0.5-0.6,0.5-1c-0.1-0.5-0.6-0.9-1.1-0.8
				c-0.4,0.1-0.7,0.4-0.8,0.8c-0.1,0.4,0.1,0.8,0.4,1C35.2,181,35.6,181.1,36,180.9z M28.6,182c0.5-0.1,0.9-0.6,0.8-1.1
				c0-0.3-0.2-0.5-0.4-0.7c-0.2-0.2-0.5-0.2-0.8-0.2c-0.5,0.1-0.9,0.6-0.8,1.1C27.6,181.7,28.1,182.1,28.6,182z M30.5,186.8
				c0.1,0.4-0.1,0.8-0.5,1c-0.3,0.2-0.8,0.2-1.1,0c-0.3-0.2-0.5-0.6-0.4-1c0.1-0.4,0.4-0.7,0.8-0.8c0.3,0,0.5,0,0.7,0.2
				C30.3,186.3,30.4,186.6,30.5,186.8z M37,186.8c0.3-0.2,0.5-0.6,0.5-1c0-0.3-0.2-0.5-0.4-0.6c-0.2-0.2-0.5-0.2-0.7-0.2
				c-0.4,0.1-0.7,0.4-0.8,0.8c-0.1,0.4,0.1,0.8,0.4,1C36.2,187.1,36.7,187.1,37,186.8z M45.5,184.8c0.1,0.5-0.3,1.1-0.8,1.2
				c-0.5,0.1-1.1-0.3-1.2-0.8c-0.1-0.5,0.3-1.1,0.8-1.2c0.3,0,0.5,0,0.7,0.2C45.3,184.3,45.4,184.6,45.5,184.8z M51.6,184
				c0.5-0.1,0.9-0.6,0.8-1.2c-0.1-0.5-0.6-0.9-1.2-0.8c-0.5,0.1-0.9,0.6-0.8,1.2C50.6,183.7,51.1,184.1,51.6,184z M59.5,181.8
				c0.1,0.5-0.3,1.1-0.8,1.2c-0.5,0.1-1.1-0.3-1.2-0.8c-0.1-0.5,0.3-1.1,0.8-1.2C58.8,180.9,59.4,181.3,59.5,181.8z M66.6,182
				c0.5-0.1,0.9-0.6,0.8-1.2c-0.1-0.5-0.6-0.9-1.2-0.8c-0.5,0.1-0.9,0.6-0.8,1.2C65.6,181.7,66.1,182.1,66.6,182z M31.5,192.8
				c0.1,0.5-0.3,1.1-0.8,1.2c-0.5,0.1-1.1-0.3-1.2-0.8c-0.1-0.5,0.3-1.1,0.8-1.2C30.8,191.9,31.4,192.3,31.5,192.8z M37.6,193
				c0.5-0.1,0.9-0.6,0.8-1.2c-0.1-0.5-0.6-0.9-1.2-0.8c-0.5,0.1-0.9,0.6-0.8,1.2C36.6,192.7,37.1,193.1,37.6,193z M46.5,190.8
				c0.1,0.4-0.1,0.8-0.5,1c-0.3,0.2-0.8,0.2-1.1,0c-0.3-0.2-0.5-0.6-0.4-1c0.1-0.4,0.4-0.7,0.8-0.8
				C45.8,189.9,46.4,190.3,46.5,190.8z M53,189.8c0.3-0.2,0.5-0.6,0.5-1c-0.1-0.5-0.6-0.9-1.2-0.8c-0.4,0.1-0.7,0.4-0.8,0.8
				c-0.1,0.4,0.1,0.8,0.4,1C52.2,190.1,52.7,190.1,53,189.8z M60.5,187.8c0.1,0.4-0.1,0.8-0.5,1c-0.3,0.2-0.8,0.2-1.1,0
				c-0.3-0.2-0.5-0.6-0.4-1c0.1-0.4,0.4-0.7,0.8-0.8c0.3,0,0.5,0,0.7,0.2C60.3,187.3,60.4,187.6,60.5,187.8z M68,187.8
				c0.3-0.2,0.5-0.6,0.5-1c0-0.3-0.2-0.5-0.4-0.6c-0.2-0.2-0.5-0.2-0.7-0.2c-0.4,0.1-0.7,0.4-0.8,0.8c-0.1,0.4,0.1,0.8,0.4,1
				C67.2,188.1,67.7,188.1,68,187.8z M32.5,198.8c0.1,0.4-0.1,0.8-0.5,1c-0.3,0.2-0.8,0.2-1.1,0c-0.3-0.2-0.5-0.6-0.4-1
				c0.1-0.4,0.4-0.7,0.8-0.8c0.3,0,0.5,0,0.7,0.2C32.3,198.3,32.4,198.6,32.5,198.8z M39,198.8c0.3-0.2,0.5-0.6,0.5-1
				c0-0.3-0.2-0.5-0.4-0.6c-0.2-0.2-0.5-0.2-0.7-0.2c-0.4,0.1-0.7,0.4-0.8,0.8c-0.1,0.4,0.1,0.8,0.4,1
				C38.2,199.1,38.7,199.1,39,198.8z M47.5,196.8c0.1,0.5-0.3,1.1-0.8,1.2c-0.5,0.1-1.1-0.3-1.2-0.8c-0.1-0.5,0.3-1.1,0.8-1.2
				C46.8,195.9,47.4,196.3,47.5,196.8z M53.6,196c0.5-0.1,0.9-0.6,0.8-1.2c0-0.3-0.2-0.5-0.4-0.6c-0.2-0.2-0.5-0.2-0.7-0.2
				c-0.5,0.1-0.9,0.6-0.8,1.2C52.6,195.7,53.1,196.1,53.6,196z M62.5,193.8c0.1,0.5-0.3,1.1-0.8,1.2c-0.5,0.1-1.1-0.3-1.2-0.8
				c-0.1-0.5,0.3-1.1,0.8-1.2c0.3,0,0.5,0,0.7,0.2C62.3,193.3,62.4,193.6,62.5,193.8z M68.6,194c0.5-0.1,0.9-0.6,0.8-1.2
				c0-0.3-0.2-0.5-0.4-0.6c-0.2-0.2-0.5-0.2-0.7-0.2c-0.5,0.1-0.9,0.6-0.8,1.2C67.6,193.7,68.1,194.1,68.6,194z M33.5,204.8
				c0.1,0.5-0.3,1.1-0.8,1.2c-0.5,0.1-1.1-0.3-1.2-0.8c-0.1-0.5,0.3-1.1,0.8-1.2C32.8,203.9,33.4,204.3,33.5,204.8z M40,204.8
				c0.3-0.2,0.5-0.6,0.5-1c-0.1-0.5-0.6-0.9-1.2-0.8c-0.4,0.1-0.7,0.4-0.8,0.8c-0.1,0.4,0.1,0.8,0.4,1
				C39.2,205.1,39.7,205.1,40,204.8z M48.5,202.8c0.1,0.4-0.1,0.8-0.5,1c-0.3,0.2-0.8,0.2-1.1,0c-0.3-0.2-0.5-0.6-0.4-1
				c0.1-0.4,0.4-0.7,0.8-0.8C47.8,201.9,48.4,202.3,48.5,202.8z M55,201.8c0.3-0.2,0.5-0.6,0.5-1c-0.1-0.5-0.6-0.9-1.2-0.8
				c-0.4,0.1-0.7,0.4-0.8,0.8c-0.1,0.4,0.1,0.8,0.4,1C54.2,202.1,54.7,202.1,55,201.8z M63.5,199.8c0.1,0.4-0.1,0.8-0.5,1
				c-0.3,0.2-0.8,0.2-1.1,0c-0.3-0.2-0.5-0.6-0.4-1c0.1-0.4,0.4-0.7,0.8-0.8C62.8,198.9,63.4,199.3,63.5,199.8z M70,199.8
				c0.3-0.2,0.5-0.6,0.5-1c-0.1-0.5-0.6-0.9-1.2-0.8c-0.4,0.1-0.7,0.4-0.8,0.8c-0.1,0.4,0.1,0.8,0.4,1
				C69.2,200.1,69.7,200.1,70,199.8z M34.5,210.8c0.1,0.4-0.1,0.8-0.5,1c-0.3,0.2-0.8,0.2-1.1,0c-0.3-0.2-0.5-0.6-0.4-1
				c0.1-0.4,0.4-0.7,0.8-0.8C33.8,209.9,34.4,210.3,34.5,210.8z M40.6,211c0.5-0.1,0.9-0.6,0.8-1.2c-0.1-0.5-0.6-0.9-1.2-0.8
				c-0.5,0.1-0.9,0.6-0.8,1.2C39.6,210.7,40.1,211.1,40.6,211z M49.5,207.8c0.1,0.5-0.3,1.1-0.8,1.2c-0.5,0.1-1.1-0.3-1.2-0.8
				c-0.1-0.5,0.3-1.1,0.8-1.2C48.8,206.9,49.4,207.3,49.5,207.8z M55.6,208c0.5-0.1,0.9-0.6,0.8-1.2c-0.1-0.5-0.6-0.9-1.2-0.8
				c-0.5,0.1-0.9,0.6-0.8,1.2C54.6,207.7,55.1,208.1,55.6,208z M64.5,205.8c0.1,0.5-0.3,1.1-0.8,1.2c-0.5,0.1-1.1-0.3-1.2-0.8
				c-0.1-0.5,0.3-1.1,0.8-1.2c0.3,0,0.5,0,0.7,0.2C64.3,205.3,64.4,205.6,64.5,205.8z M70.6,206c0.5-0.1,0.9-0.6,0.8-1.2
				c0-0.3-0.2-0.5-0.4-0.6c-0.2-0.2-0.5-0.2-0.7-0.2c-0.5,0.1-0.9,0.6-0.8,1.2C69.6,205.7,70.1,206.1,70.6,206z M35.5,216.8
				c0.1,0.5-0.3,1.1-0.8,1.2c-0.5,0.1-1.1-0.3-1.2-0.8c-0.1-0.5,0.3-1.1,0.8-1.2c0.3,0,0.5,0,0.7,0.2
				C35.3,216.3,35.4,216.6,35.5,216.8z M42,216.8c0.3-0.2,0.5-0.6,0.5-1c0-0.3-0.2-0.5-0.4-0.6c-0.2-0.2-0.5-0.2-0.7-0.2
				c-0.4,0.1-0.7,0.4-0.8,0.8c-0.1,0.4,0.1,0.8,0.4,1C41.2,217.1,41.7,217.1,42,216.8z M50.5,213.8c0.1,0.4-0.1,0.8-0.5,1
				c-0.3,0.2-0.8,0.2-1.1,0c-0.3-0.2-0.5-0.6-0.4-1c0.1-0.4,0.4-0.7,0.8-0.8c0.3,0,0.5,0,0.7,0.2C50.3,213.3,50.4,213.6,50.5,213.8z
				 M57,213.8c0.3-0.2,0.5-0.6,0.5-1c-0.1-0.5-0.6-0.9-1.2-0.8c-0.4,0.1-0.7,0.4-0.8,0.8c-0.1,0.4,0.1,0.8,0.4,1
				C56.2,214.1,56.7,214.1,57,213.8z M65.5,211.8c0.1,0.4-0.1,0.8-0.5,1c-0.3,0.2-0.8,0.2-1.1,0c-0.3-0.2-0.5-0.6-0.4-1
				c0.1-0.4,0.4-0.7,0.8-0.8C64.8,210.9,65.4,211.3,65.5,211.8z M72,211.8c0.3-0.2,0.5-0.6,0.5-1c-0.1-0.5-0.6-0.9-1.2-0.8
				c-0.4,0.1-0.7,0.4-0.8,0.8c-0.1,0.4,0.1,0.8,0.4,1C71.2,212.1,71.7,212.1,72,211.8z"/>
		</g>
		<g class="st2">
			
				<linearGradient id="SVGID_5_" gradientUnits="userSpaceOnUse" x1="-841.2147" y1="-2371.7505" x2="792.0653" y2="1063.6555" gradientTransform="matrix(1 0 0 -1 0 204)">
				<stop  offset="0" style="stop-color:#A9C6FF"/>
				<stop  offset="1" style="stop-color:#DCE9FF"/>
			</linearGradient>
			<path class="st4" d="M412.4-11.5c0.8-0.3,1.3-1.1,1.3-2c0-0.6-0.2-1.1-0.6-1.5c-0.4-0.4-0.9-0.6-1.5-0.6c-0.9,0-1.6,0.5-2,1.3
				c-0.3,0.8-0.1,1.7,0.5,2.3C410.7-11.3,411.6-11.2,412.4-11.5z M396.7-14.3c0,0.9-0.5,1.6-1.3,1.9c-0.8,0.3-1.7,0.1-2.3-0.5
				c-0.6-0.6-0.8-1.5-0.4-2.3c0.3-0.8,1.1-1.3,2-1.3c0.6,0,1.1,0.2,1.5,0.6C396.5-15.4,396.7-14.8,396.7-14.3z M379.3-10.6
				c1.2,0,2.1-0.9,2.1-2.1c0-0.6-0.2-1.1-0.6-1.5c-0.4-0.4-0.9-0.6-1.5-0.6c-1.2,0-2.1,0.9-2.1,2.1
				C377.2-11.5,378.1-10.6,379.3-10.6z M366.5-13.1c0,1.2-1,2.1-2.1,2.1s-2.1-1-2.1-2.1c0-1.2,1-2.1,2.1-2.1c0.6,0,1.1,0.2,1.5,0.6
				S366.5-13.7,366.5-13.1z M348.2-12.1c0.8-0.3,1.3-1.1,1.3-1.9c0-1.2-0.9-2.1-2.1-2.1c-0.9,0-1.6,0.5-2,1.3
				c-0.3,0.8-0.2,1.7,0.4,2.3C346.5-11.9,347.4-11.7,348.2-12.1z M332.4-12.4c1.2,0,2.1-0.9,2.1-2.1c0-0.6-0.2-1.1-0.6-1.5
				c-0.4-0.4-0.9-0.6-1.5-0.6c-1.2,0-2.1,0.9-2.1,2.1C330.4-13.4,331.3-12.4,332.4-12.4z M334.5-1.7c0,0.9-0.5,1.6-1.3,1.9
				c-0.8,0.3-1.7,0.1-2.3-0.5c-0.6-0.6-0.8-1.5-0.4-2.3c0.3-0.8,1.1-1.3,2-1.3c0.6,0,1.1,0.2,1.5,0.6C334.3-2.7,334.5-2.2,334.5-1.7
				z M348.1,0.8c0.8-0.3,1.3-1.1,1.3-1.9c0-0.6-0.2-1.1-0.6-1.5c-0.4-0.4-0.9-0.6-1.5-0.6c-0.9,0-1.6,0.5-2,1.3s-0.2,1.7,0.4,2.3
				C346.4,0.9,347.3,1.1,348.1,0.8z M366.4-0.3c0,1.2-1,2.1-2.1,2.1c-1.2,0-2.1-0.9-2.1-2.1c0-1.2,0.9-2.1,2.1-2.1
				c0.6,0,1.1,0.2,1.5,0.6C366.2-1.4,366.4-0.9,366.4-0.3z M379.6,0.2c1.2,0,2.1-0.9,2.1-2.1c0-1.2-0.9-2.1-2.1-2.1
				c-1.2,0-2.1,0.9-2.1,2.1C377.4-0.8,378.4,0.2,379.6,0.2z M396.6-1.4c0,1.2-1,2.1-2.1,2.1c-1.2,0-2.1-1-2.1-2.1
				c0-1.2,0.9-2.1,2.1-2.1C395.6-3.5,396.6-2.6,396.6-1.4z M411.5,1.5c1.2,0,2.1-0.9,2.1-2.1c0-1.2-0.9-2.1-2.1-2.1
				c-1.2,0-2.1,0.9-2.1,2.1C409.4,0.6,410.3,1.5,411.5,1.5z M334.3,11.2c0,1.2-1,2.1-2.1,2.1c-1.2,0-2.1-0.9-2.1-2.1
				s0.9-2.1,2.1-2.1C333.4,9.1,334.3,10,334.3,11.2z M347.1,13.8c1.2,0,2.1-0.9,2.1-2.1c0-1.2-0.9-2.1-2.1-2.1
				c-1.2,0-2.1,0.9-2.1,2.1S346,13.8,347.1,13.8z M366.3,12.5c0,0.9-0.5,1.6-1.3,1.9c-0.8,0.3-1.7,0.1-2.3-0.5
				c-0.6-0.6-0.8-1.5-0.4-2.3c0.3-0.8,1.1-1.3,2-1.3C365.3,10.4,366.3,11.4,366.3,12.5z M380.2,12.9c0.8-0.3,1.3-1.1,1.3-1.9
				c0-1.2-0.9-2.1-2.1-2.1c-0.9,0-1.6,0.5-2,1.3c-0.3,0.8-0.2,1.7,0.4,2.3C378.5,13,379.4,13.2,380.2,12.9z M396.5,11.4
				c0,0.9-0.5,1.6-1.3,1.9c-0.8,0.3-1.7,0.1-2.3-0.5c-0.6-0.6-0.8-1.5-0.4-2.3c0.3-0.8,1.1-1.3,2-1.3c0.6,0,1.1,0.2,1.5,0.6
				C396.3,10.3,396.5,10.9,396.5,11.4z M412.2,14.2c0.8-0.3,1.3-1.1,1.3-1.9c0-0.6-0.2-1.1-0.6-1.5c-0.4-0.4-0.9-0.6-1.5-0.6
				c-0.9,0-1.6,0.5-2,1.3s-0.2,1.7,0.4,2.3C410.5,14.4,411.4,14.6,412.2,14.2z M334.2,24.1c0,0.9-0.5,1.6-1.3,1.9
				c-0.8,0.3-1.7,0.1-2.3-0.5c-0.6-0.6-0.8-1.5-0.4-2.3c0.3-0.8,1.1-1.3,2-1.3c0.6,0,1.1,0.2,1.5,0.6C334,23,334.2,23.5,334.2,24.1z
				 M347.8,26.5c0.8-0.3,1.3-1.1,1.3-1.9c0-0.6-0.2-1.1-0.6-1.5c-0.4-0.4-0.9-0.6-1.5-0.6c-0.9,0-1.6,0.5-2,1.3
				c-0.3,0.8-0.2,1.7,0.4,2.3C346.1,26.6,347,26.8,347.8,26.5z M366.1,25.4c0,1.2-1,2.1-2.1,2.1c-1.2,0-2.1-1-2.1-2.1
				c0-1.2,0.9-2.1,2.1-2.1C365.2,23.3,366.1,24.2,366.1,25.4z M379.3,25.9c1.2,0,2.1-0.9,2.1-2.1c0-0.6-0.2-1.1-0.6-1.5
				c-0.4-0.4-0.9-0.6-1.5-0.6c-1.2,0-2.1,0.9-2.1,2.1C377.2,25,378.1,25.9,379.3,25.9z M398.4,24.7c0,1.2-1,2.1-2.1,2.1
				c-1.2,0-2.1-0.9-2.1-2.1s0.9-2.1,2.1-2.1c0.6,0,1.1,0.2,1.5,0.6C398.2,23.6,398.4,24.1,398.4,24.7z M411.2,27.2
				c1.2,0,2.1-0.9,2.1-2.1c0-0.6-0.2-1.1-0.6-1.5c-0.4-0.4-0.9-0.6-1.5-0.6c-1.2,0-2.1,0.9-2.1,2.1
				C409.1,26.3,410.1,27.2,411.2,27.2z M334.1,36.9c0,1.2-1,2.1-2.1,2.1c-1.2,0-2.1-1-2.1-2.1c0-1.2,0.9-2.1,2.1-2.1
				C333.2,34.8,334.1,35.7,334.1,36.9z M347.7,39.3c0.8-0.3,1.3-1.1,1.3-2c0-1.2-0.9-2.1-2.1-2.1c-0.9,0-1.6,0.5-2,1.3
				c-0.3,0.8-0.2,1.7,0.4,2.3C346,39.5,346.9,39.7,347.7,39.3z M366,38.3c0,0.9-0.5,1.6-1.3,1.9c-0.8,0.3-1.7,0.1-2.3-0.5
				c-0.6-0.6-0.8-1.5-0.4-2.3c0.3-0.8,1.1-1.3,2-1.3C365.1,36.1,366,37.1,366,38.3z M380,38.6c0.8-0.3,1.3-1.1,1.3-1.9
				c0-1.2-0.9-2.1-2.1-2.1c-0.9,0-1.6,0.5-2,1.3c-0.3,0.8-0.2,1.7,0.4,2.3C378.3,38.7,379.2,38.9,380,38.6z M398.3,37.5
				c0,0.9-0.5,1.6-1.3,1.9c-0.8,0.3-1.7,0.1-2.3-0.5c-0.6-0.6-0.8-1.5-0.4-2.3c0.3-0.8,1.1-1.3,2-1.3
				C397.4,35.4,398.3,36.3,398.3,37.5z M411.9,39.9c0.8-0.3,1.3-1.1,1.3-1.9c0-1.2-0.9-2.1-2.1-2.1c-0.9,0-1.6,0.5-2,1.3
				c-0.3,0.8-0.2,1.7,0.4,2.3C410.2,40.1,411.1,40.3,411.9,39.9z M334,49.8c0,0.9-0.5,1.6-1.3,1.9c-0.8,0.3-1.7,0.1-2.3-0.5
				c-0.6-0.6-0.8-1.5-0.4-2.3c0.3-0.8,1.1-1.3,2-1.3C333,47.7,334,48.6,334,49.8z M346.8,52.4c1.2,0,2.1-0.9,2.1-2.1
				c0-1.2-0.9-2.1-2.1-2.1c-1.2,0-2.1,0.9-2.1,2.1C344.7,51.4,345.6,52.4,346.8,52.4z M366.3,49c0,1.2-1,2.1-2.1,2.1
				c-1.2,0-2.1-1-2.1-2.1s0.9-2.1,2.1-2.1C365.3,46.9,366.3,47.9,366.3,49z M379.1,51.6c1.2,0,2.1-0.9,2.1-2.1
				c0-1.2-0.9-2.1-2.1-2.1c-1.2,0-2.1,0.9-2.1,2.1C377,50.7,377.9,51.6,379.1,51.6z M398.2,50.4c0,1.2-1,2.1-2.1,2.1
				c-1.2,0-2.1-0.9-2.1-2.1c0-1.2,0.9-2.1,2.1-2.1c0.6,0,1.1,0.2,1.5,0.6C398,49.3,398.2,49.8,398.2,50.4z M411,53
				c1.2,0,2.1-0.9,2.1-2.1c0-0.6-0.2-1.1-0.6-1.5c-0.4-0.4-0.9-0.6-1.5-0.6c-1.2,0-2.1,0.9-2.1,2.1C408.9,52,409.8,53,411,53z
				 M333.9,62.6c0,1.2-1,2.1-2.1,2.1c-1.2,0-2.1-0.9-2.1-2.1c0-1.2,0.9-2.1,2.1-2.1c0.6,0,1.1,0.2,1.5,0.6
				C333.6,61.5,333.9,62.1,333.9,62.6z M347.5,65.1c0.8-0.3,1.3-1.1,1.3-1.9c0-0.6-0.2-1.1-0.6-1.5c-0.4-0.4-0.9-0.6-1.5-0.6
				c-0.9,0-1.6,0.5-2,1.3c-0.3,0.8-0.2,1.7,0.4,2.3C345.8,65.2,346.7,65.4,347.5,65.1z M366.1,61.9c0,0.9-0.5,1.6-1.3,1.9
				c-0.8,0.3-1.7,0.1-2.3-0.5c-0.6-0.6-0.8-1.5-0.4-2.3c0.3-0.8,1.1-1.3,2-1.3c0.6,0,1.1,0.2,1.5,0.6
				C365.9,60.8,366.1,61.3,366.1,61.9z M379.7,64.3c0.8-0.3,1.3-1.1,1.3-1.9c0-1.2-0.9-2.1-2.1-2.1c-0.9,0-1.6,0.5-2,1.3
				c-0.3,0.8-0.2,1.7,0.4,2.3C378,64.5,379,64.6,379.7,64.3z M398.1,63.2c0,0.9-0.5,1.6-1.3,1.9c-0.8,0.3-1.7,0.1-2.3-0.5
				c-0.6-0.6-0.8-1.5-0.4-2.3c0.3-0.8,1.1-1.3,2-1.3C397.1,61.1,398.1,62.1,398.1,63.2z M411.7,65.7c0.8-0.3,1.3-1.1,1.3-1.9
				c0-1.2-0.9-2.1-2.1-2.1c-0.9,0-1.6,0.5-2,1.3c-0.3,0.8-0.2,1.7,0.4,2.3C410,65.8,410.9,66,411.7,65.7z"/>
		</g>
	</g>
</g>
</svg>
